<svg xmlns="http://www.w3.org/2000/svg" xmlns:xlink="http://www.w3.org/1999/xlink" width="1500" zoomAndPan="magnify" viewBox="0 0 1125 374.999991" height="500" preserveAspectRatio="xMidYMid meet" version="1.0"><defs><g/><clipPath id="09a22cea8c"><path d="M 381.597656 9.125 L 710.847656 9.125 L 710.847656 184.625 L 381.597656 184.625 Z M 381.597656 9.125 " clip-rule="nonzero"/></clipPath><clipPath id="d019f000e8"><path d="M 407.738281 30.769531 L 736.988281 30.769531 L 736.988281 206.269531 L 407.738281 206.269531 Z M 407.738281 30.769531 " clip-rule="nonzero"/></clipPath></defs><g clip-path="url(#09a22cea8c)"><path fill="#12229d" d="M 654.046875 71.054688 C 651.226562 71.054688 648.46875 71.269531 645.777344 71.652344 C 642.511719 36.578125 613.007812 9.128906 577.078125 9.128906 C 554.757812 9.128906 534.910156 19.746094 522.285156 36.195312 C 517.222656 34.699219 511.863281 33.886719 506.308594 33.886719 C 481.207031 33.886719 459.933594 50.226562 452.519531 72.871094 C 447.949219 71.675781 443.140625 71.035156 438.207031 71.035156 C 406.957031 71.054688 381.597656 96.390625 381.597656 127.664062 C 381.597656 158.9375 406.957031 184.273438 438.207031 184.273438 L 654.046875 184.273438 C 685.320312 184.273438 710.652344 158.917969 710.652344 127.664062 C 710.652344 96.410156 685.296875 71.054688 654.046875 71.054688 Z M 654.046875 71.054688 " fill-opacity="1" fill-rule="nonzero"/></g><g clip-path="url(#d019f000e8)"><path fill="#ffffff" d="M 680.417969 92.816406 C 677.597656 92.816406 674.835938 93.027344 672.144531 93.414062 C 668.871094 58.273438 639.347656 30.773438 603.386719 30.773438 C 581.042969 30.773438 561.183594 41.410156 548.546875 57.886719 C 543.480469 56.390625 538.113281 55.578125 532.554688 55.578125 C 507.433594 55.578125 486.140625 71.949219 478.71875 94.632812 C 474.144531 93.4375 469.335938 92.792969 464.394531 92.792969 C 433.117188 92.816406 407.738281 118.199219 407.738281 149.53125 C 407.738281 180.863281 433.117188 206.242188 464.394531 206.242188 L 680.417969 206.242188 C 711.71875 206.242188 737.074219 180.839844 737.074219 149.53125 C 737.074219 118.21875 711.695312 92.816406 680.417969 92.816406 Z M 680.417969 92.816406 " fill-opacity="1" fill-rule="nonzero"/></g><path stroke-linecap="butt" transform="matrix(1.950009, 0, 0, 1.950009, 262.361715, 152.32414)" fill="none" stroke-linejoin="miter" d="M 57.935231 37.231439 L 58.363915 48.118808 L 41.715354 48.00062 L 41.108385 43.878042 L 40.50342 43.878042 C 39.459755 45.454558 38.081556 46.674504 36.366821 47.541888 C 34.654088 48.409271 32.827174 48.841962 30.886077 48.841962 C 24.229457 48.841962 19.367701 46.768654 16.304814 42.622039 C 13.241928 38.46741 11.711486 32.551973 11.711486 24.879733 C 11.711486 19.394983 12.414608 14.897808 13.822854 11.392215 C 15.241117 7.886622 17.540786 5.286474 20.721861 3.59177 C 23.912952 1.89907 28.129679 1.051718 33.368037 1.051718 C 37.642856 1.051718 41.202536 1.494424 44.049077 2.38184 C 46.895618 3.267253 49.155223 4.671493 50.829895 6.590555 C 52.504567 8.501603 53.700475 10.979557 54.419622 14.022411 C 55.148785 17.065266 55.513367 20.769175 55.513367 25.132136 C 55.513367 27.229482 55.206878 28.924185 54.597906 30.214243 C 53.996948 31.504302 53.291823 32.487871 52.484535 33.168957 C 51.765387 33.858057 50.90802 34.615265 49.914434 35.442585 C 48.928862 36.269905 47.949299 37.059164 46.973743 37.806356 C 46.008202 38.555551 45.186892 39.170532 44.507809 39.653302 L 44.447713 39.711395 L 45.230962 40.494645 C 46.521021 39.126462 48.023417 38.211001 49.73615 37.748263 C 51.450886 37.285525 53.035414 37.053154 54.49374 37.053154 C 54.858322 37.053154 55.419217 37.073186 56.178428 37.11325 C 56.945652 37.151311 57.532588 37.191375 57.935231 37.231439 Z M 39.601982 37.718215 C 39.9265 35.817182 40.168886 33.872079 40.327139 31.882906 C 40.493404 29.883716 40.577538 27.750313 40.577538 25.486701 C 40.577538 23.024773 40.321129 20.759159 39.808311 18.689858 C 39.307512 16.612543 38.500224 14.937872 37.386447 13.667846 C 36.282686 12.397819 34.826363 11.762806 33.013471 11.762806 C 32.246247 11.762806 31.294729 11.820899 30.162923 11.939088 C 29.029114 12.057276 28.019504 12.219535 27.134091 12.425864 C 26.937778 14.120568 26.775519 15.863348 26.647314 17.656209 C 26.529126 19.449069 26.46903 21.698658 26.46903 24.406979 C 26.46903 26.82083 26.739461 29.086444 27.282327 31.203822 C 27.833206 33.3212 28.680558 35.039942 29.82238 36.358045 C 30.974217 37.668135 32.462592 38.32318 34.283497 38.32318 C 34.964584 38.32318 35.860012 38.275104 36.973789 38.176947 C 38.085563 38.066771 38.962963 37.914528 39.601982 37.718215 Z M 77.598601 48.841962 C 72.999264 48.841962 69.315386 48.156869 66.548973 46.788686 C 63.790572 45.420503 61.797392 43.283093 60.565427 40.376456 C 59.335465 37.471822 58.71848 33.757897 58.71848 29.238687 L 58.71848 15.691073 C 58.71848 13.189082 58.690435 10.78124 58.63034 8.467549 C 58.572247 6.143842 58.498129 3.932314 58.407985 1.834968 L 73.359839 1.834968 C 73.359839 2.602192 73.349823 3.746016 73.329791 5.262436 C 73.309759 6.768839 73.299743 8.471555 73.299743 10.372588 C 73.299743 12.263605 73.289727 14.170648 73.269695 16.089709 C 73.251666 18.000758 73.24165 19.753555 73.24165 21.350102 C 73.24165 22.944646 73.24165 24.166595 73.24165 25.013947 C 73.24165 27.553999 73.3979 29.813604 73.714404 31.794765 C 74.038922 33.763907 74.643887 35.324396 75.531303 36.476234 C 76.426732 37.620059 77.702767 38.190969 79.357407 38.190969 C 80.114615 38.190969 81.026069 38.130873 82.089766 38.012685 C 83.163479 37.894496 83.926697 37.732238 84.379419 37.525908 C 84.497608 36.117662 84.585748 35.009894 84.645844 34.202606 C 84.703937 33.395318 84.744001 32.670162 84.764033 32.031142 C 84.784065 31.380103 84.794081 30.5628 84.794081 29.577227 C 84.794081 28.583642 84.794081 27.199434 84.794081 25.426605 C 84.794081 24.058423 84.784065 22.305626 84.764033 20.168216 C 84.744001 18.030806 84.723969 15.785224 84.703937 13.431468 C 84.685908 11.067697 84.665876 8.846153 84.645844 6.768839 C 84.625812 4.691525 84.615796 3.046901 84.615796 1.834968 L 99.491529 1.834968 C 99.453468 4.651461 99.42342 7.491993 99.403388 10.358566 C 99.383356 13.225139 99.37334 16.089709 99.37334 18.956283 L 99.433436 31.602458 C 99.433436 36.083607 98.566052 39.575178 96.833288 42.075166 C 95.100524 44.577158 92.608548 46.329954 89.357361 47.335559 C 86.118193 48.33916 82.197939 48.841962 77.598601 48.841962 Z M 102.87693 48.00062 C 103.043195 44.168506 103.137345 40.318363 103.157377 36.448189 C 103.175406 32.567999 103.185422 28.711847 103.185422 24.879733 C 103.185422 21.049622 103.175406 17.207493 103.157377 13.35735 C 103.137345 9.507208 103.043195 5.665078 102.87693 1.834968 L 117.884873 1.834968 C 117.728624 5.665078 117.63848 9.497192 117.618448 13.327302 C 117.600419 17.159416 117.590404 20.989526 117.590404 24.82164 C 117.590404 28.691815 117.600419 32.557983 117.618448 36.418141 C 117.63848 40.268283 117.728624 44.130445 117.884873 48.00062 Z M 120.246641 48.00062 L 120.246641 32.754296 L 145.420804 16.045639 L 145.420804 15.144201 C 138.555851 15.302453 133.187287 15.390594 129.317112 15.410626 C 125.446938 15.430658 122.560332 15.460706 120.661303 15.498767 L 120.661303 1.834968 L 160.060159 1.834968 L 160.060159 16.179853 L 134.885997 33.713827 L 134.885997 34.63129 C 135.172454 34.63129 135.915639 34.621274 137.117557 34.601242 C 138.32949 34.58121 139.811855 34.561178 141.564652 34.541147 C 143.327464 34.523118 145.184427 34.503086 147.133536 34.483054 C 149.092662 34.453006 150.989688 34.428968 152.820609 34.408936 C 154.663549 34.388904 156.278125 34.368872 157.66634 34.34884 C 159.054555 34.330811 160.036121 34.320795 160.607032 34.320795 L 160.607032 48.00062 Z M 184.801631 48.723773 C 180.202294 48.723773 176.27603 48.261035 173.026846 47.335559 C 169.785675 46.410082 167.245623 44.839576 165.404686 42.622039 C 163.571761 40.396488 162.433946 37.329595 161.99124 33.419357 L 178.211117 32.149331 C 178.329305 33.152932 178.581708 34.172558 178.966322 35.206208 C 179.348932 36.231844 180.013993 37.077192 180.959502 37.748263 C 181.90501 38.407315 183.26518 38.737842 185.038008 38.737842 C 185.440651 38.737842 185.963485 38.71781 186.602504 38.677746 C 187.253543 38.639685 187.888556 38.579589 188.509547 38.501465 C 189.13855 38.421337 189.597282 38.363244 189.883739 38.32318 C 189.999924 37.555956 190.100084 36.786729 190.178209 36.019505 C 190.26635 35.250278 190.31042 34.463022 190.31042 33.655734 C 190.31042 32.572005 190.138145 31.656544 189.793595 30.907349 C 189.449046 30.160157 188.804017 29.563205 187.858508 29.120498 C 186.913 28.677792 185.510763 28.435406 183.64779 28.395342 C 178.241165 28.277153 174.036457 27.672188 171.031663 26.578443 C 168.028872 25.486701 165.931526 23.984304 164.739625 22.073255 C 163.547723 20.152191 162.950771 17.922634 162.950771 15.380578 C 162.950771 12.111362 163.848202 9.417064 165.641063 7.299686 C 167.441936 5.182308 169.903864 3.601786 173.026846 2.558121 C 176.157841 1.50444 179.699491 0.9776 183.64779 0.9776 C 190.590867 0.9776 195.797173 2.409885 199.262702 5.276458 C 202.730234 8.143031 204.725417 12.560078 205.246248 18.527599 L 190.31042 19.561248 C 190.144155 17.906608 189.907777 16.484339 189.601289 15.292437 C 189.306819 14.100536 188.671806 13.175059 187.696249 12.516008 C 186.730709 11.844937 185.200267 11.510404 183.102921 11.510404 C 182.786416 11.510404 182.29363 11.530436 181.624563 11.5705 C 180.955495 11.60856 180.304456 11.662647 179.675453 11.732758 C 179.054462 11.790851 178.625778 11.860963 178.389401 11.939088 C 178.271213 12.708315 178.167047 13.515603 178.078906 14.362955 C 178.000781 15.208303 177.960717 16.095719 177.960717 17.021195 C 177.960717 18.675835 178.403424 19.955877 179.290839 20.861322 C 180.176252 21.76877 181.91102 22.323655 184.491136 22.531987 C 188.854096 22.650176 192.383728 22.9787 195.082032 23.521566 C 197.790353 24.062429 199.869671 24.82164 201.317981 25.797197 C 202.774305 26.760734 203.773899 27.962651 204.316765 29.400946 C 204.857628 30.829225 205.12806 32.487871 205.12806 34.378888 C 205.12806 37.45179 204.232631 40.057948 202.439771 42.193355 C 200.646911 44.330765 198.215031 45.95736 195.142128 47.069133 C 192.079242 48.172894 188.631742 48.723773 184.801631 48.723773 Z M 241.371882 30.021937 L 251.596194 48.00062 L 235.079844 48.00062 L 224.310663 26.874916 L 222.241362 26.874916 L 222.670046 48.00062 L 207.660099 48.00062 C 207.750243 44.130445 207.822358 40.210191 207.882454 36.239857 C 207.940547 32.26151 207.970595 28.495501 207.970595 24.939829 C 207.970595 21.434236 207.940547 17.686256 207.882454 13.697894 C 207.822358 9.699515 207.750243 5.745206 207.660099 1.834968 L 222.670046 1.834968 L 222.241362 22.457869 L 224.310663 22.457869 L 234.961656 1.834968 L 250.812945 1.834968 L 241.371882 19.19266 C 240.929176 20.080076 240.462432 20.789207 239.969645 21.320054 C 239.486875 21.842888 238.871894 22.265562 238.122699 22.59008 C 237.38352 22.906585 236.379918 23.177016 235.107889 23.403377 C 233.837863 23.629739 232.173207 23.860106 230.115925 24.096483 L 230.115925 24.939829 C 232.253335 25.186222 233.956051 25.412583 235.226078 25.618912 C 236.498107 25.815225 237.481676 26.08766 238.180791 26.43221 C 238.889923 26.776759 239.476859 27.229482 239.939597 27.790376 C 240.412352 28.351271 240.889112 29.09646 241.371882 30.021937 Z M 279.116099 1.834968 L 294.967388 1.834968 L 285.41014 39.460996 C 284.729054 42.327569 283.42898 44.468985 281.509918 45.887248 C 279.598869 47.295495 277.21106 48.00062 274.344486 48.00062 L 260.177885 48.00062 L 263.869775 34.513102 L 271.197466 34.513102 L 273.310837 27.908565 L 272.038808 27.908565 C 270.947066 29.887723 269.640983 31.213838 268.124563 31.882906 C 266.61816 32.541957 265.101741 32.872484 263.575305 32.872484 L 257.814114 32.872484 C 256.966762 29.809598 256.059315 26.450238 255.095777 22.796409 C 254.130237 19.14258 253.16069 15.504776 252.185134 11.880995 C 251.219593 8.245194 250.314149 4.897854 249.466797 1.834968 L 265.081709 1.834968 L 271.493939 26.209855 L 272.58568 26.209855 Z M 279.116099 1.834968 " stroke="#12229d" stroke-width="15.88398" stroke-opacity="1" stroke-miterlimit="4"/><g fill="#f4f6fc" fill-opacity="1"><g transform="translate(281.770399, 245.924573)"><g><path d="M 93.578125 -21 L 94.40625 0.234375 L 61.953125 0 L 60.765625 -8.03125 L 59.59375 -8.03125 C 57.539062 -4.957031 54.84375 -2.570312 51.5 -0.875 C 48.15625 0.8125 44.597656 1.65625 40.828125 1.65625 C 27.847656 1.65625 18.367188 -2.394531 12.390625 -10.5 C 6.410156 -18.601562 3.421875 -30.128906 3.421875 -45.078125 C 3.421875 -55.773438 4.796875 -64.546875 7.546875 -71.390625 C 10.304688 -78.234375 14.789062 -83.304688 21 -86.609375 C 27.21875 -89.910156 35.441406 -91.5625 45.671875 -91.5625 C 54.003906 -91.5625 60.941406 -90.695312 66.484375 -88.96875 C 72.035156 -87.238281 76.441406 -84.503906 79.703125 -80.765625 C 82.972656 -77.035156 85.316406 -72.195312 86.734375 -66.25 C 88.148438 -60.3125 88.859375 -53.097656 88.859375 -44.609375 C 88.859375 -40.515625 88.265625 -37.207031 87.078125 -34.6875 C 85.898438 -32.175781 84.523438 -30.25 82.953125 -28.90625 C 81.535156 -27.570312 79.863281 -26.097656 77.9375 -24.484375 C 76.007812 -22.867188 74.101562 -21.332031 72.21875 -19.875 C 70.332031 -18.425781 68.71875 -17.226562 67.375 -16.28125 L 67.265625 -16.171875 L 68.796875 -14.625 C 71.304688 -17.300781 74.234375 -19.09375 77.578125 -20 C 80.921875 -20.90625 84.007812 -21.359375 86.84375 -21.359375 C 87.550781 -21.359375 88.648438 -21.316406 90.140625 -21.234375 C 91.640625 -21.160156 92.785156 -21.082031 93.578125 -21 Z M 57.8125 -20.0625 C 58.445312 -23.757812 58.921875 -27.550781 59.234375 -31.4375 C 59.546875 -35.332031 59.703125 -39.484375 59.703125 -43.890625 C 59.703125 -48.691406 59.210938 -53.117188 58.234375 -57.171875 C 57.253906 -61.222656 55.679688 -64.488281 53.515625 -66.96875 C 51.347656 -69.445312 48.492188 -70.6875 44.953125 -70.6875 C 43.460938 -70.6875 41.613281 -70.566406 39.40625 -70.328125 C 37.207031 -70.085938 35.242188 -69.773438 33.515625 -69.390625 C 33.117188 -66.078125 32.800781 -62.671875 32.5625 -59.171875 C 32.332031 -55.671875 32.21875 -51.285156 32.21875 -46.015625 C 32.21875 -41.296875 32.75 -36.867188 33.8125 -32.734375 C 34.875 -28.609375 36.523438 -25.265625 38.765625 -22.703125 C 41.003906 -20.148438 43.894531 -18.875 47.4375 -18.875 C 48.769531 -18.875 50.519531 -18.972656 52.6875 -19.171875 C 54.851562 -19.367188 56.5625 -19.664062 57.8125 -20.0625 Z M 57.8125 -20.0625 "/></g></g></g><g fill="#f4f6fc" fill-opacity="1"><g transform="translate(370.959053, 245.924573)"><g><path d="M 42.71875 1.65625 C 33.75 1.65625 26.566406 0.316406 21.171875 -2.359375 C 15.785156 -5.035156 11.894531 -9.203125 9.5 -14.859375 C 7.101562 -20.523438 5.90625 -27.765625 5.90625 -36.578125 L 5.90625 -63.015625 C 5.90625 -67.890625 5.84375 -72.585938 5.71875 -77.109375 C 5.601562 -81.628906 5.46875 -85.9375 5.3125 -90.03125 L 34.453125 -90.03125 C 34.453125 -88.539062 34.429688 -86.316406 34.390625 -83.359375 C 34.359375 -80.410156 34.34375 -77.085938 34.34375 -73.390625 C 34.34375 -69.691406 34.320312 -65.972656 34.28125 -62.234375 C 34.238281 -58.503906 34.21875 -55.082031 34.21875 -51.96875 C 34.21875 -48.863281 34.21875 -46.488281 34.21875 -44.84375 C 34.21875 -39.882812 34.53125 -35.476562 35.15625 -31.625 C 35.789062 -27.769531 36.972656 -24.71875 38.703125 -22.46875 C 40.429688 -20.226562 42.910156 -19.109375 46.140625 -19.109375 C 47.628906 -19.109375 49.414062 -19.226562 51.5 -19.46875 C 53.59375 -19.707031 55.070312 -20.019531 55.9375 -20.40625 C 56.164062 -23.164062 56.335938 -25.332031 56.453125 -26.90625 C 56.578125 -28.476562 56.660156 -29.894531 56.703125 -31.15625 C 56.742188 -32.414062 56.765625 -34.007812 56.765625 -35.9375 C 56.765625 -37.863281 56.765625 -40.554688 56.765625 -44.015625 C 56.765625 -46.691406 56.742188 -50.113281 56.703125 -54.28125 C 56.660156 -58.445312 56.617188 -62.832031 56.578125 -67.4375 C 56.535156 -72.039062 56.492188 -76.367188 56.453125 -80.421875 C 56.421875 -84.472656 56.40625 -87.675781 56.40625 -90.03125 L 85.4375 -90.03125 C 85.351562 -84.53125 85.289062 -78.984375 85.25 -73.390625 C 85.21875 -67.804688 85.203125 -62.222656 85.203125 -56.640625 L 85.3125 -31.984375 C 85.3125 -23.242188 83.617188 -16.4375 80.234375 -11.5625 C 76.859375 -6.6875 72.003906 -3.265625 65.671875 -1.296875 C 59.335938 0.671875 51.6875 1.65625 42.71875 1.65625 Z M 42.71875 1.65625 "/></g></g></g><g fill="#f4f6fc" fill-opacity="1"><g transform="translate(457.670237, 245.924573)"><g><path d="M 5.3125 0 C 5.625 -7.46875 5.800781 -14.976562 5.84375 -22.53125 C 5.882812 -30.082031 5.90625 -37.597656 5.90625 -45.078125 C 5.90625 -52.546875 5.882812 -60.035156 5.84375 -67.546875 C 5.800781 -75.066406 5.625 -82.5625 5.3125 -90.03125 L 34.578125 -90.03125 C 34.265625 -82.5625 34.085938 -75.085938 34.046875 -67.609375 C 34.003906 -60.140625 33.984375 -52.664062 33.984375 -45.1875 C 33.984375 -37.632812 34.003906 -30.101562 34.046875 -22.59375 C 34.085938 -15.082031 34.265625 -7.550781 34.578125 0 Z M 5.3125 0 "/></g></g></g><g fill="#f4f6fc" fill-opacity="1"><g transform="translate(493.416063, 245.924573)"><g><path d="M 3.421875 0 L 3.421875 -29.734375 L 52.515625 -62.296875 L 52.515625 -64.078125 C 39.140625 -63.765625 28.675781 -63.585938 21.125 -63.546875 C 13.570312 -63.503906 7.945312 -63.441406 4.25 -63.359375 L 4.25 -90.03125 L 81.0625 -90.03125 L 81.0625 -62.0625 L 31.984375 -27.84375 L 31.984375 -26.078125 C 32.523438 -26.078125 33.976562 -26.097656 36.34375 -26.140625 C 38.707031 -26.179688 41.597656 -26.21875 45.015625 -26.25 C 48.441406 -26.289062 52.0625 -26.332031 55.875 -26.375 C 59.6875 -26.414062 63.378906 -26.453125 66.953125 -26.484375 C 70.535156 -26.523438 73.679688 -26.566406 76.390625 -26.609375 C 79.109375 -26.648438 81.019531 -26.671875 82.125 -26.671875 L 82.125 0 Z M 3.421875 0 "/></g></g></g><g fill="#f4f6fc" fill-opacity="1"><g transform="translate(574.818347, 245.924573)"><g><path d="M 47.90625 1.421875 C 38.9375 1.421875 31.285156 0.515625 24.953125 -1.296875 C 18.617188 -3.109375 13.660156 -6.175781 10.078125 -10.5 C 6.503906 -14.820312 4.285156 -20.800781 3.421875 -28.4375 L 35.046875 -30.921875 C 35.285156 -28.953125 35.773438 -26.960938 36.515625 -24.953125 C 37.265625 -22.953125 38.5625 -21.300781 40.40625 -20 C 42.257812 -18.695312 44.914062 -18.046875 48.375 -18.046875 C 49.164062 -18.046875 50.191406 -18.085938 51.453125 -18.171875 C 52.710938 -18.253906 53.953125 -18.375 55.171875 -18.53125 C 56.390625 -18.6875 57.269531 -18.800781 57.8125 -18.875 C 58.050781 -20.375 58.25 -21.867188 58.40625 -23.359375 C 58.5625 -24.859375 58.640625 -26.394531 58.640625 -27.96875 C 58.640625 -30.09375 58.304688 -31.878906 57.640625 -33.328125 C 56.972656 -34.785156 55.710938 -35.945312 53.859375 -36.8125 C 52.015625 -37.675781 49.285156 -38.148438 45.671875 -38.234375 C 35.128906 -38.472656 26.925781 -39.648438 21.0625 -41.765625 C 15.195312 -43.890625 11.101562 -46.820312 8.78125 -50.5625 C 6.46875 -54.300781 5.3125 -58.648438 5.3125 -63.609375 C 5.3125 -69.972656 7.0625 -75.21875 10.5625 -79.34375 C 14.0625 -83.476562 18.859375 -86.566406 24.953125 -88.609375 C 31.054688 -90.660156 37.960938 -91.6875 45.671875 -91.6875 C 59.203125 -91.6875 69.347656 -88.894531 76.109375 -83.3125 C 82.878906 -77.726562 86.773438 -69.113281 87.796875 -57.46875 L 58.640625 -55.453125 C 58.328125 -58.679688 57.875 -61.457031 57.28125 -63.78125 C 56.695312 -66.101562 55.457031 -67.910156 53.5625 -69.203125 C 51.675781 -70.503906 48.691406 -71.15625 44.609375 -71.15625 C 43.972656 -71.15625 43.003906 -71.113281 41.703125 -71.03125 C 40.410156 -70.957031 39.15625 -70.859375 37.9375 -70.734375 C 36.71875 -70.617188 35.875 -70.484375 35.40625 -70.328125 C 35.164062 -68.835938 34.96875 -67.265625 34.8125 -65.609375 C 34.65625 -63.953125 34.578125 -62.222656 34.578125 -60.421875 C 34.578125 -57.191406 35.441406 -54.691406 37.171875 -52.921875 C 38.898438 -51.148438 42.28125 -50.066406 47.3125 -49.671875 C 55.8125 -49.441406 62.695312 -48.796875 67.96875 -47.734375 C 73.238281 -46.671875 77.289062 -45.191406 80.125 -43.296875 C 82.957031 -41.410156 84.90625 -39.070312 85.96875 -36.28125 C 87.03125 -33.488281 87.5625 -30.242188 87.5625 -26.546875 C 87.5625 -20.566406 85.804688 -15.492188 82.296875 -11.328125 C 78.796875 -7.160156 74.054688 -3.992188 68.078125 -1.828125 C 62.109375 0.335938 55.382812 1.421875 47.90625 1.421875 Z M 47.90625 1.421875 "/></g></g></g><g fill="#f4f6fc" fill-opacity="1"><g transform="translate(662.001448, 245.924573)"><g><path d="M 71.03125 -35.046875 L 90.984375 0 L 58.765625 0 L 37.765625 -41.1875 L 33.75 -41.1875 L 34.578125 0 L 5.3125 0 C 5.46875 -7.550781 5.601562 -15.203125 5.71875 -22.953125 C 5.84375 -30.703125 5.90625 -38.035156 5.90625 -44.953125 C 5.90625 -51.796875 5.84375 -59.113281 5.71875 -66.90625 C 5.601562 -74.695312 5.46875 -82.40625 5.3125 -90.03125 L 34.578125 -90.03125 L 33.75 -49.796875 L 37.765625 -49.796875 L 58.53125 -90.03125 L 89.4375 -90.03125 L 71.03125 -56.171875 C 70.164062 -54.441406 69.257812 -53.0625 68.3125 -52.03125 C 67.375 -51.007812 66.175781 -50.179688 64.71875 -49.546875 C 63.269531 -48.921875 61.304688 -48.390625 58.828125 -47.953125 C 56.347656 -47.523438 53.101562 -47.078125 49.09375 -46.609375 L 49.09375 -44.953125 C 53.257812 -44.484375 56.582031 -44.050781 59.0625 -43.65625 C 61.539062 -43.257812 63.46875 -42.726562 64.84375 -42.0625 C 66.21875 -41.394531 67.359375 -40.507812 68.265625 -39.40625 C 69.171875 -38.3125 70.09375 -36.859375 71.03125 -35.046875 Z M 71.03125 -35.046875 "/></g></g></g><g fill="#f4f6fc" fill-opacity="1"><g transform="translate(749.774407, 245.924573)"><g><path d="M 56.875 -90.03125 L 87.796875 -90.03125 L 69.140625 -16.640625 C 67.804688 -11.054688 65.269531 -6.882812 61.53125 -4.125 C 57.800781 -1.375 53.140625 0 47.546875 0 L 19.9375 0 L 27.140625 -26.3125 L 41.421875 -26.3125 L 45.546875 -39.171875 L 43.0625 -39.171875 C 40.945312 -35.316406 38.410156 -32.738281 35.453125 -31.4375 C 32.503906 -30.144531 29.535156 -29.5 26.546875 -29.5 L 15.34375 -29.5 C 13.6875 -35.476562 11.914062 -42.023438 10.03125 -49.140625 C 8.144531 -56.265625 6.253906 -63.363281 4.359375 -70.4375 C 2.472656 -77.519531 0.707031 -84.050781 -0.9375 -90.03125 L 29.5 -90.03125 L 42.015625 -42.484375 L 44.125 -42.484375 Z M 56.875 -90.03125 "/></g></g></g><g fill="#12229d" fill-opacity="1"><g transform="translate(323.985057, 315.216722)"><g><path d="M 2.09375 0 C 2.125 -0.6875 2.148438 -1.535156 2.171875 -2.546875 C 2.191406 -3.554688 2.210938 -4.644531 2.234375 -5.8125 C 2.253906 -6.976562 2.269531 -8.15625 2.28125 -9.34375 C 2.289062 -10.539062 2.296875 -11.660156 2.296875 -12.703125 C 2.296875 -13.566406 2.285156 -14.570312 2.265625 -15.71875 C 2.242188 -16.863281 2.222656 -18.039062 2.203125 -19.25 C 2.179688 -20.46875 2.15625 -21.617188 2.125 -22.703125 C 2.101562 -23.796875 2.09375 -24.707031 2.09375 -25.4375 L 21.40625 -25.4375 L 21.40625 -20.671875 L 8.640625 -20.671875 L 8.640625 -14.140625 L 20.5 -14.34375 L 20.5 -9.84375 L 8.640625 -10.03125 C 8.640625 -9.125 8.644531 -8.0625 8.65625 -6.84375 C 8.664062 -5.632812 8.675781 -4.425781 8.6875 -3.21875 C 8.695312 -2.007812 8.703125 -0.9375 8.703125 0 Z M 2.09375 0 "/></g></g></g><g fill="#12229d" fill-opacity="1"><g transform="translate(345.385332, 315.216722)"><g><path d="M 2.09375 0 C 2.144531 -2.113281 2.179688 -4.265625 2.203125 -6.453125 C 2.222656 -8.640625 2.234375 -10.722656 2.234375 -12.703125 C 2.234375 -14.703125 2.222656 -16.789062 2.203125 -18.96875 C 2.179688 -21.144531 2.144531 -23.300781 2.09375 -25.4375 L 8.765625 -25.4375 C 8.703125 -21.21875 8.671875 -17.226562 8.671875 -13.46875 C 8.671875 -12.050781 8.675781 -10.585938 8.6875 -9.078125 C 8.695312 -7.578125 8.710938 -6.238281 8.734375 -5.0625 C 10.441406 -5.0625 12.226562 -5.066406 14.09375 -5.078125 C 15.96875 -5.097656 17.71875 -5.117188 19.34375 -5.140625 L 18.875 0 Z M 2.09375 0 "/></g></g></g><g fill="#12229d" fill-opacity="1"><g transform="translate(363.485459, 315.216722)"><g><path d="M 7.828125 0 L 7.828125 -8.609375 L 7.4375 -8.609375 C 6.4375 -8.609375 5.703125 -8.820312 5.234375 -9.25 C 4.765625 -9.6875 4.398438 -10.484375 4.140625 -11.640625 L -0.03125 -25.4375 L 7.375 -25.4375 L 10.5 -12.96875 L 12.203125 -12.96875 L 15.34375 -25.4375 L 22.703125 -25.4375 L 18.46875 -11.609375 C 18.207031 -10.453125 17.847656 -9.660156 17.390625 -9.234375 C 16.929688 -8.816406 16.191406 -8.609375 15.171875 -8.609375 L 14.84375 -8.609375 L 14.84375 0 Z M 7.828125 0 "/></g></g></g><g fill="#12229d" fill-opacity="1"><g transform="translate(384.952397, 315.216722)"><g/></g></g><g fill="#12229d" fill-opacity="1"><g transform="translate(391.785407, 315.216722)"><g><path d="M 6.875 0 C 6.914062 -2.0625 6.945312 -4.160156 6.96875 -6.296875 C 6.988281 -8.429688 7 -10.476562 7 -12.4375 C 7 -13.8125 6.992188 -15.226562 6.984375 -16.6875 C 6.972656 -18.144531 6.957031 -19.429688 6.9375 -20.546875 C 5.914062 -20.546875 4.769531 -20.535156 3.5 -20.515625 C 2.226562 -20.503906 1.050781 -20.476562 -0.03125 -20.4375 L -0.03125 -25.4375 L 20.5 -25.4375 L 20.5 -20.4375 C 19.476562 -20.476562 18.316406 -20.503906 17.015625 -20.515625 C 15.722656 -20.535156 14.539062 -20.546875 13.46875 -20.546875 C 13.46875 -20.097656 13.460938 -19.476562 13.453125 -18.6875 C 13.441406 -17.894531 13.429688 -17.046875 13.421875 -16.140625 C 13.410156 -15.242188 13.40625 -14.40625 13.40625 -13.625 C 13.40625 -12.851562 13.40625 -12.269531 13.40625 -11.875 C 13.40625 -7.894531 13.4375 -3.9375 13.5 0 Z M 6.875 0 "/></g></g></g><g fill="#12229d" fill-opacity="1"><g transform="translate(411.052263, 315.216722)"><g><path d="M 24.46875 -25.4375 C 24.445312 -24.476562 24.425781 -23.3125 24.40625 -21.9375 C 24.382812 -20.5625 24.375 -19.078125 24.375 -17.484375 C 24.375 -15.898438 24.375 -14.304688 24.375 -12.703125 C 24.375 -11.171875 24.375 -9.601562 24.375 -8 C 24.375 -6.40625 24.382812 -4.910156 24.40625 -3.515625 C 24.425781 -2.128906 24.445312 -0.957031 24.46875 0 L 17.90625 0 C 17.945312 -1.132812 17.972656 -2.375 17.984375 -3.71875 C 17.992188 -5.0625 18.003906 -6.390625 18.015625 -7.703125 C 18.023438 -9.015625 18.03125 -10.160156 18.03125 -11.140625 L 8.640625 -11.140625 C 8.640625 -10.023438 8.644531 -8.789062 8.65625 -7.4375 C 8.664062 -6.082031 8.675781 -4.753906 8.6875 -3.453125 C 8.695312 -2.148438 8.703125 -1 8.703125 0 L 2.09375 0 C 2.144531 -2.113281 2.1875 -4.257812 2.21875 -6.4375 C 2.25 -8.613281 2.265625 -10.703125 2.265625 -12.703125 C 2.265625 -14.703125 2.25 -16.789062 2.21875 -18.96875 C 2.1875 -21.144531 2.144531 -23.300781 2.09375 -25.4375 L 8.703125 -25.4375 C 8.679688 -23.945312 8.664062 -22.304688 8.65625 -20.515625 C 8.644531 -18.734375 8.640625 -16.984375 8.640625 -15.265625 L 18.03125 -15.265625 C 18.03125 -16.773438 18.019531 -18.425781 18 -20.21875 C 17.976562 -22.007812 17.945312 -23.75 17.90625 -25.4375 Z M 24.46875 -25.4375 "/></g></g></g><g fill="#12229d" fill-opacity="1"><g transform="translate(436.4527, 315.216722)"><g><path d="M 2.09375 0 C 2.125 -1.289062 2.15625 -2.664062 2.1875 -4.125 C 2.21875 -5.59375 2.242188 -7.066406 2.265625 -8.546875 C 2.285156 -10.023438 2.296875 -11.398438 2.296875 -12.671875 C 2.296875 -13.960938 2.285156 -15.359375 2.265625 -16.859375 C 2.242188 -18.359375 2.21875 -19.851562 2.1875 -21.34375 C 2.15625 -22.832031 2.125 -24.195312 2.09375 -25.4375 L 13.765625 -25.4375 C 16.054688 -25.4375 17.984375 -25.25 19.546875 -24.875 C 21.117188 -24.5 22.3125 -23.816406 23.125 -22.828125 C 23.9375 -21.835938 24.34375 -20.421875 24.34375 -18.578125 C 24.34375 -16.085938 23.675781 -14.316406 22.34375 -13.265625 C 21.007812 -12.222656 19.019531 -11.679688 16.375 -11.640625 L 16.375 -11.171875 C 18.0625 -11.128906 19.425781 -10.914062 20.46875 -10.53125 C 21.519531 -10.15625 22.328125 -9.585938 22.890625 -8.828125 C 23.453125 -8.078125 23.835938 -7.113281 24.046875 -5.9375 C 24.085938 -5.625 24.160156 -5.203125 24.265625 -4.671875 C 24.378906 -4.140625 24.507812 -3.578125 24.65625 -2.984375 C 24.800781 -2.390625 24.945312 -1.828125 25.09375 -1.296875 C 25.238281 -0.765625 25.363281 -0.332031 25.46875 0 L 18.4375 0 C 18.28125 -0.84375 18.085938 -1.78125 17.859375 -2.8125 C 17.640625 -3.851562 17.488281 -4.835938 17.40625 -5.765625 C 17.207031 -6.628906 16.957031 -7.304688 16.65625 -7.796875 C 16.351562 -8.285156 15.929688 -8.632812 15.390625 -8.84375 C 14.847656 -9.0625 14.109375 -9.171875 13.171875 -9.171875 L 8.671875 -9.171875 C 8.671875 -8.585938 8.671875 -7.875 8.671875 -7.03125 C 8.671875 -6.1875 8.671875 -5.316406 8.671875 -4.421875 C 8.671875 -3.535156 8.671875 -2.695312 8.671875 -1.90625 C 8.671875 -1.125 8.671875 -0.488281 8.671875 0 Z M 8.609375 -13.34375 L 12.703125 -13.34375 C 14.390625 -13.34375 15.632812 -13.617188 16.4375 -14.171875 C 17.238281 -14.722656 17.640625 -15.703125 17.640625 -17.109375 C 17.640625 -18.640625 17.222656 -19.664062 16.390625 -20.1875 C 15.554688 -20.707031 14.328125 -20.96875 12.703125 -20.96875 L 8.609375 -20.96875 Z M 8.609375 -13.34375 "/></g></g></g><g fill="#12229d" fill-opacity="1"><g transform="translate(461.919793, 315.216722)"><g><path d="M 13.109375 0.4375 C 8.972656 0.4375 5.941406 -0.632812 4.015625 -2.78125 C 2.097656 -4.925781 1.140625 -8.242188 1.140625 -12.734375 C 1.140625 -17.179688 2.109375 -20.476562 4.046875 -22.625 C 5.992188 -24.769531 8.945312 -25.84375 12.90625 -25.84375 C 17 -25.84375 20.019531 -24.765625 21.96875 -22.609375 C 23.925781 -20.453125 24.90625 -17.117188 24.90625 -12.609375 C 24.90625 -8.179688 23.914062 -4.898438 21.9375 -2.765625 C 19.957031 -0.628906 17.015625 0.4375 13.109375 0.4375 Z M 13.203125 -4.265625 C 13.785156 -4.265625 14.378906 -4.316406 14.984375 -4.421875 C 15.597656 -4.535156 16.128906 -4.738281 16.578125 -5.03125 C 17.171875 -5.945312 17.628906 -7.03125 17.953125 -8.28125 C 18.273438 -9.539062 18.4375 -10.984375 18.4375 -12.609375 C 18.4375 -14.296875 18.222656 -15.773438 17.796875 -17.046875 C 17.378906 -18.328125 16.757812 -19.320312 15.9375 -20.03125 C 15.113281 -20.75 14.101562 -21.109375 12.90625 -21.109375 C 12.28125 -21.109375 11.640625 -21.03125 10.984375 -20.875 C 10.328125 -20.71875 9.742188 -20.472656 9.234375 -20.140625 C 8.722656 -19.273438 8.328125 -18.265625 8.046875 -17.109375 C 7.773438 -15.953125 7.640625 -14.539062 7.640625 -12.875 C 7.640625 -10.289062 8.117188 -8.207031 9.078125 -6.625 C 10.046875 -5.050781 11.421875 -4.265625 13.203125 -4.265625 Z M 13.203125 -4.265625 "/></g></g></g><g fill="#12229d" fill-opacity="1"><g transform="translate(486.820213, 315.216722)"><g><path d="M 12.40625 0.4375 C 9.84375 0.4375 7.820312 0.0351562 6.34375 -0.765625 C 4.875 -1.566406 3.820312 -2.773438 3.1875 -4.390625 C 2.550781 -6.015625 2.234375 -8.0625 2.234375 -10.53125 L 2.234375 -17.90625 C 2.234375 -19.28125 2.222656 -20.585938 2.203125 -21.828125 C 2.179688 -23.078125 2.144531 -24.28125 2.09375 -25.4375 L 8.640625 -25.4375 C 8.640625 -24.925781 8.632812 -24.234375 8.625 -23.359375 C 8.613281 -22.484375 8.609375 -21.507812 8.609375 -20.4375 C 8.609375 -19.375 8.597656 -18.304688 8.578125 -17.234375 C 8.566406 -16.171875 8.5625 -15.175781 8.5625 -14.25 C 8.5625 -13.332031 8.5625 -12.582031 8.5625 -12 C 8.5625 -10.46875 8.695312 -9.117188 8.96875 -7.953125 C 9.238281 -6.785156 9.703125 -5.875 10.359375 -5.21875 C 11.015625 -4.5625 11.941406 -4.234375 13.140625 -4.234375 C 13.847656 -4.234375 14.515625 -4.320312 15.140625 -4.5 C 15.765625 -4.675781 16.285156 -4.976562 16.703125 -5.40625 C 16.898438 -6.070312 17.054688 -6.660156 17.171875 -7.171875 C 17.285156 -7.679688 17.363281 -8.28125 17.40625 -8.96875 C 17.445312 -9.65625 17.46875 -10.597656 17.46875 -11.796875 C 17.46875 -12.648438 17.46875 -13.691406 17.46875 -14.921875 C 17.46875 -16.148438 17.460938 -17.429688 17.453125 -18.765625 C 17.441406 -20.097656 17.429688 -21.351562 17.421875 -22.53125 C 17.410156 -23.71875 17.394531 -24.6875 17.375 -25.4375 L 23.90625 -25.4375 C 23.863281 -23.96875 23.835938 -22.492188 23.828125 -21.015625 C 23.816406 -19.546875 23.8125 -18.039062 23.8125 -16.5 L 23.84375 -8.96875 C 23.84375 -6.59375 23.382812 -4.710938 22.46875 -3.328125 C 21.5625 -1.953125 20.253906 -0.976562 18.546875 -0.40625 C 16.847656 0.15625 14.800781 0.4375 12.40625 0.4375 Z M 12.40625 0.4375 "/></g></g></g><g fill="#12229d" fill-opacity="1"><g transform="translate(511.65397, 315.216722)"><g><path d="M 11.40625 0.4375 C 8.070312 0.4375 5.523438 -0.695312 3.765625 -2.96875 C 2.015625 -5.238281 1.140625 -8.492188 1.140625 -12.734375 C 1.140625 -17.160156 2.082031 -20.453125 3.96875 -22.609375 C 5.851562 -24.765625 8.8125 -25.84375 12.84375 -25.84375 C 15.632812 -25.84375 17.828125 -25.460938 19.421875 -24.703125 C 21.015625 -23.953125 22.175781 -22.796875 22.90625 -21.234375 C 23.632812 -19.679688 24.09375 -17.691406 24.28125 -15.265625 L 17.8125 -14.53125 C 17.71875 -15.820312 17.488281 -16.960938 17.125 -17.953125 C 16.757812 -18.941406 16.21875 -19.71875 15.5 -20.28125 C 14.789062 -20.851562 13.859375 -21.140625 12.703125 -21.140625 C 12.054688 -21.140625 11.445312 -21.050781 10.875 -20.875 C 10.3125 -20.695312 9.773438 -20.453125 9.265625 -20.140625 C 8.734375 -19.296875 8.316406 -18.316406 8.015625 -17.203125 C 7.710938 -16.085938 7.5625 -14.675781 7.5625 -12.96875 C 7.5625 -11.300781 7.785156 -9.804688 8.234375 -8.484375 C 8.679688 -7.160156 9.328125 -6.109375 10.171875 -5.328125 C 11.015625 -4.554688 12.035156 -4.171875 13.234375 -4.171875 C 13.921875 -4.171875 14.539062 -4.226562 15.09375 -4.34375 C 15.65625 -4.46875 16.160156 -4.644531 16.609375 -4.875 C 17.117188 -5.15625 17.578125 -5.570312 17.984375 -6.125 C 18.398438 -6.6875 18.6875 -7.113281 18.84375 -7.40625 C 18.84375 -7.875 18.765625 -8.320312 18.609375 -8.75 C 18.453125 -9.1875 18.1875 -9.40625 17.8125 -9.40625 L 14.140625 -9.40625 L 14.140625 -11.765625 L 25.015625 -11.765625 C 25.015625 -10.546875 25.015625 -9.347656 25.015625 -8.171875 C 25.015625 -6.992188 25.023438 -5.75 25.046875 -4.4375 C 25.066406 -3.125 25.078125 -1.644531 25.078125 0 L 18.765625 0 L 18.90625 -4.9375 L 18.5 -4.9375 C 18.164062 -3.25 17.394531 -1.929688 16.1875 -0.984375 C 14.976562 -0.0351562 13.382812 0.4375 11.40625 0.4375 Z M 11.40625 0.4375 "/></g></g></g><g fill="#12229d" fill-opacity="1"><g transform="translate(536.621053, 315.216722)"><g><path d="M 24.46875 -25.4375 C 24.445312 -24.476562 24.425781 -23.3125 24.40625 -21.9375 C 24.382812 -20.5625 24.375 -19.078125 24.375 -17.484375 C 24.375 -15.898438 24.375 -14.304688 24.375 -12.703125 C 24.375 -11.171875 24.375 -9.601562 24.375 -8 C 24.375 -6.40625 24.382812 -4.910156 24.40625 -3.515625 C 24.425781 -2.128906 24.445312 -0.957031 24.46875 0 L 17.90625 0 C 17.945312 -1.132812 17.972656 -2.375 17.984375 -3.71875 C 17.992188 -5.0625 18.003906 -6.390625 18.015625 -7.703125 C 18.023438 -9.015625 18.03125 -10.160156 18.03125 -11.140625 L 8.640625 -11.140625 C 8.640625 -10.023438 8.644531 -8.789062 8.65625 -7.4375 C 8.664062 -6.082031 8.675781 -4.753906 8.6875 -3.453125 C 8.695312 -2.148438 8.703125 -1 8.703125 0 L 2.09375 0 C 2.144531 -2.113281 2.1875 -4.257812 2.21875 -6.4375 C 2.25 -8.613281 2.265625 -10.703125 2.265625 -12.703125 C 2.265625 -14.703125 2.25 -16.789062 2.21875 -18.96875 C 2.1875 -21.144531 2.144531 -23.300781 2.09375 -25.4375 L 8.703125 -25.4375 C 8.679688 -23.945312 8.664062 -22.304688 8.65625 -20.515625 C 8.644531 -18.734375 8.640625 -16.984375 8.640625 -15.265625 L 18.03125 -15.265625 C 18.03125 -16.773438 18.019531 -18.425781 18 -20.21875 C 17.976562 -22.007812 17.945312 -23.75 17.90625 -25.4375 Z M 24.46875 -25.4375 "/></g></g></g><g fill="#12229d" fill-opacity="1"><g transform="translate(562.021496, 315.216722)"><g/></g></g><g fill="#12229d" fill-opacity="1"><g transform="translate(568.854513, 315.216722)"><g><path d="M 13.03125 0.4375 C 8.925781 0.4375 5.914062 -0.644531 4 -2.8125 C 2.09375 -4.976562 1.140625 -8.285156 1.140625 -12.734375 C 1.140625 -17.160156 2.097656 -20.453125 4.015625 -22.609375 C 5.941406 -24.765625 8.945312 -25.84375 13.03125 -25.84375 C 15.65625 -25.84375 17.78125 -25.4375 19.40625 -24.625 C 21.03125 -23.8125 22.25 -22.628906 23.0625 -21.078125 C 23.875 -19.535156 24.367188 -17.675781 24.546875 -15.5 L 18.078125 -14.796875 C 17.609375 -19.023438 15.738281 -21.140625 12.46875 -21.140625 C 11.894531 -21.140625 11.316406 -21.050781 10.734375 -20.875 C 10.160156 -20.695312 9.660156 -20.453125 9.234375 -20.140625 C 8.171875 -18.203125 7.640625 -15.703125 7.640625 -12.640625 C 7.640625 -10.054688 8.117188 -8.007812 9.078125 -6.5 C 10.046875 -4.988281 11.507812 -4.234375 13.46875 -4.234375 C 13.976562 -4.234375 14.503906 -4.289062 15.046875 -4.40625 C 15.597656 -4.53125 16.09375 -4.726562 16.53125 -5 C 16.914062 -5.582031 17.210938 -6.195312 17.421875 -6.84375 C 17.628906 -7.5 17.800781 -8.238281 17.9375 -9.0625 L 24.375 -9.0625 C 24.082031 -6.019531 23.03125 -3.675781 21.21875 -2.03125 C 19.40625 -0.382812 16.675781 0.4375 13.03125 0.4375 Z M 13.03125 0.4375 "/></g></g></g><g fill="#12229d" fill-opacity="1"><g transform="translate(593.354904, 315.216722)"><g><path d="M 24.46875 -25.4375 C 24.445312 -24.476562 24.425781 -23.3125 24.40625 -21.9375 C 24.382812 -20.5625 24.375 -19.078125 24.375 -17.484375 C 24.375 -15.898438 24.375 -14.304688 24.375 -12.703125 C 24.375 -11.171875 24.375 -9.601562 24.375 -8 C 24.375 -6.40625 24.382812 -4.910156 24.40625 -3.515625 C 24.425781 -2.128906 24.445312 -0.957031 24.46875 0 L 17.90625 0 C 17.945312 -1.132812 17.972656 -2.375 17.984375 -3.71875 C 17.992188 -5.0625 18.003906 -6.390625 18.015625 -7.703125 C 18.023438 -9.015625 18.03125 -10.160156 18.03125 -11.140625 L 8.640625 -11.140625 C 8.640625 -10.023438 8.644531 -8.789062 8.65625 -7.4375 C 8.664062 -6.082031 8.675781 -4.753906 8.6875 -3.453125 C 8.695312 -2.148438 8.703125 -1 8.703125 0 L 2.09375 0 C 2.144531 -2.113281 2.1875 -4.257812 2.21875 -6.4375 C 2.25 -8.613281 2.265625 -10.703125 2.265625 -12.703125 C 2.265625 -14.703125 2.25 -16.789062 2.21875 -18.96875 C 2.1875 -21.144531 2.144531 -23.300781 2.09375 -25.4375 L 8.703125 -25.4375 C 8.679688 -23.945312 8.664062 -22.304688 8.65625 -20.515625 C 8.644531 -18.734375 8.640625 -16.984375 8.640625 -15.265625 L 18.03125 -15.265625 C 18.03125 -16.773438 18.019531 -18.425781 18 -20.21875 C 17.976562 -22.007812 17.945312 -23.75 17.90625 -25.4375 Z M 24.46875 -25.4375 "/></g></g></g><g fill="#12229d" fill-opacity="1"><g transform="translate(618.755347, 315.216722)"><g><path d="M 25.015625 0 L 18.203125 0 C 18.023438 -0.957031 17.816406 -1.898438 17.578125 -2.828125 C 17.347656 -3.765625 17.113281 -4.710938 16.875 -5.671875 L 12.4375 -5.671875 C 11.675781 -5.671875 10.945312 -5.671875 10.25 -5.671875 C 9.550781 -5.671875 8.867188 -5.671875 8.203125 -5.671875 C 7.617188 -3.421875 7.109375 -1.53125 6.671875 0 L -0.03125 0 C 0.457031 -1.800781 1.007812 -3.804688 1.625 -6.015625 C 2.25 -8.234375 2.890625 -10.503906 3.546875 -12.828125 C 4.203125 -15.148438 4.820312 -17.398438 5.40625 -19.578125 C 6 -21.753906 6.507812 -23.707031 6.9375 -25.4375 L 17.96875 -25.4375 C 18.414062 -23.726562 18.925781 -21.800781 19.5 -19.65625 C 20.082031 -17.507812 20.703125 -15.285156 21.359375 -12.984375 C 22.015625 -10.679688 22.648438 -8.421875 23.265625 -6.203125 C 23.890625 -3.984375 24.472656 -1.914062 25.015625 0 Z M 9.140625 -9.265625 L 15.875 -9.265625 C 15.269531 -11.316406 14.671875 -13.378906 14.078125 -15.453125 C 13.492188 -17.535156 12.976562 -19.628906 12.53125 -21.734375 L 12.265625 -21.734375 C 11.734375 -19.648438 11.203125 -17.539062 10.671875 -15.40625 C 10.140625 -13.269531 9.628906 -11.222656 9.140625 -9.265625 Z M 9.140625 -9.265625 "/></g></g></g><g fill="#12229d" fill-opacity="1"><g transform="translate(642.555726, 315.216722)"><g><path d="M 2.09375 0 C 2.144531 -2.113281 2.179688 -4.265625 2.203125 -6.453125 C 2.222656 -8.640625 2.234375 -10.722656 2.234375 -12.703125 C 2.234375 -14.703125 2.222656 -16.789062 2.203125 -18.96875 C 2.179688 -21.144531 2.144531 -23.300781 2.09375 -25.4375 L 8.765625 -25.4375 C 8.703125 -21.21875 8.671875 -17.226562 8.671875 -13.46875 C 8.671875 -12.050781 8.675781 -10.585938 8.6875 -9.078125 C 8.695312 -7.578125 8.710938 -6.238281 8.734375 -5.0625 C 10.441406 -5.0625 12.226562 -5.066406 14.09375 -5.078125 C 15.96875 -5.097656 17.71875 -5.117188 19.34375 -5.140625 L 18.875 0 Z M 2.09375 0 "/></g></g></g><g fill="#12229d" fill-opacity="1"><g transform="translate(660.655858, 315.216722)"><g><path d="M 2.09375 0 C 2.144531 -2.113281 2.179688 -4.265625 2.203125 -6.453125 C 2.222656 -8.640625 2.234375 -10.722656 2.234375 -12.703125 C 2.234375 -14.703125 2.222656 -16.789062 2.203125 -18.96875 C 2.179688 -21.144531 2.144531 -23.300781 2.09375 -25.4375 L 8.765625 -25.4375 C 8.703125 -21.21875 8.671875 -17.226562 8.671875 -13.46875 C 8.671875 -12.050781 8.675781 -10.585938 8.6875 -9.078125 C 8.695312 -7.578125 8.710938 -6.238281 8.734375 -5.0625 C 10.441406 -5.0625 12.226562 -5.066406 14.09375 -5.078125 C 15.96875 -5.097656 17.71875 -5.117188 19.34375 -5.140625 L 18.875 0 Z M 2.09375 0 "/></g></g></g><g fill="#12229d" fill-opacity="1"><g transform="translate(678.755991, 315.216722)"><g><path d="M 2.09375 0 C 2.125 -0.6875 2.148438 -1.550781 2.171875 -2.59375 C 2.191406 -3.644531 2.210938 -4.769531 2.234375 -5.96875 C 2.253906 -7.164062 2.269531 -8.351562 2.28125 -9.53125 C 2.289062 -10.707031 2.296875 -11.765625 2.296875 -12.703125 C 2.296875 -13.703125 2.289062 -14.78125 2.28125 -15.9375 C 2.269531 -17.09375 2.253906 -18.257812 2.234375 -19.4375 C 2.210938 -20.613281 2.191406 -21.722656 2.171875 -22.765625 C 2.148438 -23.816406 2.125 -24.707031 2.09375 -25.4375 L 21.609375 -25.4375 L 21.609375 -20.671875 L 8.640625 -20.671875 L 8.640625 -14.703125 L 20.703125 -14.90625 L 20.703125 -10.640625 L 8.640625 -10.84375 L 8.640625 -4.765625 L 21.78125 -4.765625 L 21.78125 0 Z M 2.09375 0 "/></g></g></g><g fill="#12229d" fill-opacity="1"><g transform="translate(700.522944, 315.216722)"><g><path d="M 2.140625 0 C 2.160156 -1.289062 2.175781 -2.660156 2.1875 -4.109375 C 2.195312 -5.566406 2.207031 -7.191406 2.21875 -8.984375 C 2.226562 -10.773438 2.234375 -12.816406 2.234375 -15.109375 C 2.234375 -16.703125 2.222656 -18.398438 2.203125 -20.203125 C 2.179688 -22.003906 2.144531 -23.75 2.09375 -25.4375 L 11 -25.4375 L 18.3125 -10.40625 C 18.613281 -9.601562 18.929688 -8.804688 19.265625 -8.015625 C 19.597656 -7.222656 19.84375 -6.550781 20 -6 L 20.46875 -6 C 20.382812 -6.6875 20.304688 -7.398438 20.234375 -8.140625 C 20.171875 -8.890625 20.140625 -9.625 20.140625 -10.34375 C 20.140625 -11.519531 20.132812 -12.800781 20.125 -14.1875 C 20.113281 -15.570312 20.097656 -16.957031 20.078125 -18.34375 C 20.054688 -19.738281 20.035156 -21.050781 20.015625 -22.28125 C 20.003906 -23.519531 19.988281 -24.570312 19.96875 -25.4375 L 26.015625 -25.4375 C 25.941406 -21.28125 25.90625 -17.132812 25.90625 -13 C 25.90625 -8.9375 25.941406 -4.601562 26.015625 0 L 17.140625 0 L 10.40625 -13.34375 C 9.84375 -14.695312 9.390625 -15.867188 9.046875 -16.859375 C 8.703125 -17.847656 8.410156 -18.753906 8.171875 -19.578125 L 7.703125 -19.578125 C 7.722656 -19.367188 7.75 -19.035156 7.78125 -18.578125 C 7.8125 -18.128906 7.847656 -17.640625 7.890625 -17.109375 C 7.941406 -16.578125 7.976562 -16.082031 8 -15.625 C 8.019531 -15.164062 8.03125 -14.847656 8.03125 -14.671875 C 8.03125 -11.929688 8.035156 -9.347656 8.046875 -6.921875 C 8.054688 -4.503906 8.078125 -2.195312 8.109375 0 Z M 2.140625 0 "/></g></g></g><g fill="#12229d" fill-opacity="1"><g transform="translate(727.456764, 315.216722)"><g><path d="M 11.40625 0.4375 C 8.070312 0.4375 5.523438 -0.695312 3.765625 -2.96875 C 2.015625 -5.238281 1.140625 -8.492188 1.140625 -12.734375 C 1.140625 -17.160156 2.082031 -20.453125 3.96875 -22.609375 C 5.851562 -24.765625 8.8125 -25.84375 12.84375 -25.84375 C 15.632812 -25.84375 17.828125 -25.460938 19.421875 -24.703125 C 21.015625 -23.953125 22.175781 -22.796875 22.90625 -21.234375 C 23.632812 -19.679688 24.09375 -17.691406 24.28125 -15.265625 L 17.8125 -14.53125 C 17.71875 -15.820312 17.488281 -16.960938 17.125 -17.953125 C 16.757812 -18.941406 16.21875 -19.71875 15.5 -20.28125 C 14.789062 -20.851562 13.859375 -21.140625 12.703125 -21.140625 C 12.054688 -21.140625 11.445312 -21.050781 10.875 -20.875 C 10.3125 -20.695312 9.773438 -20.453125 9.265625 -20.140625 C 8.734375 -19.296875 8.316406 -18.316406 8.015625 -17.203125 C 7.710938 -16.085938 7.5625 -14.675781 7.5625 -12.96875 C 7.5625 -11.300781 7.785156 -9.804688 8.234375 -8.484375 C 8.679688 -7.160156 9.328125 -6.109375 10.171875 -5.328125 C 11.015625 -4.554688 12.035156 -4.171875 13.234375 -4.171875 C 13.921875 -4.171875 14.539062 -4.226562 15.09375 -4.34375 C 15.65625 -4.46875 16.160156 -4.644531 16.609375 -4.875 C 17.117188 -5.15625 17.578125 -5.570312 17.984375 -6.125 C 18.398438 -6.6875 18.6875 -7.113281 18.84375 -7.40625 C 18.84375 -7.875 18.765625 -8.320312 18.609375 -8.75 C 18.453125 -9.1875 18.1875 -9.40625 17.8125 -9.40625 L 14.140625 -9.40625 L 14.140625 -11.765625 L 25.015625 -11.765625 C 25.015625 -10.546875 25.015625 -9.347656 25.015625 -8.171875 C 25.015625 -6.992188 25.023438 -5.75 25.046875 -4.4375 C 25.066406 -3.125 25.078125 -1.644531 25.078125 0 L 18.765625 0 L 18.90625 -4.9375 L 18.5 -4.9375 C 18.164062 -3.25 17.394531 -1.929688 16.1875 -0.984375 C 14.976562 -0.0351562 13.382812 0.4375 11.40625 0.4375 Z M 11.40625 0.4375 "/></g></g></g><g fill="#12229d" fill-opacity="1"><g transform="translate(752.423847, 315.216722)"><g><path d="M 2.09375 0 C 2.125 -0.6875 2.148438 -1.550781 2.171875 -2.59375 C 2.191406 -3.644531 2.210938 -4.769531 2.234375 -5.96875 C 2.253906 -7.164062 2.269531 -8.351562 2.28125 -9.53125 C 2.289062 -10.707031 2.296875 -11.765625 2.296875 -12.703125 C 2.296875 -13.703125 2.289062 -14.78125 2.28125 -15.9375 C 2.269531 -17.09375 2.253906 -18.257812 2.234375 -19.4375 C 2.210938 -20.613281 2.191406 -21.722656 2.171875 -22.765625 C 2.148438 -23.816406 2.125 -24.707031 2.09375 -25.4375 L 21.609375 -25.4375 L 21.609375 -20.671875 L 8.640625 -20.671875 L 8.640625 -14.703125 L 20.703125 -14.90625 L 20.703125 -10.640625 L 8.640625 -10.84375 L 8.640625 -4.765625 L 21.78125 -4.765625 L 21.78125 0 Z M 2.09375 0 "/></g></g></g><g fill="#12229d" fill-opacity="1"><g transform="translate(774.1908, 315.216722)"><g><path d="M 13.03125 0.40625 C 9.363281 0.40625 6.546875 -0.203125 4.578125 -1.421875 C 2.617188 -2.648438 1.472656 -4.773438 1.140625 -7.796875 L 8.203125 -8.375 C 8.316406 -7.613281 8.535156 -6.90625 8.859375 -6.25 C 9.179688 -5.59375 9.679688 -5.054688 10.359375 -4.640625 C 11.035156 -4.234375 11.960938 -4.03125 13.140625 -4.03125 C 13.734375 -4.03125 14.351562 -4.085938 15 -4.203125 C 15.644531 -4.316406 16.144531 -4.515625 16.5 -4.796875 C 17.0625 -5.617188 17.34375 -6.539062 17.34375 -7.5625 C 17.34375 -8.226562 17.207031 -8.773438 16.9375 -9.203125 C 16.664062 -9.628906 16.1875 -9.960938 15.5 -10.203125 C 14.8125 -10.441406 13.8125 -10.628906 12.5 -10.765625 C 9.832031 -10.878906 7.710938 -11.257812 6.140625 -11.90625 C 4.578125 -12.550781 3.457031 -13.414062 2.78125 -14.5 C 2.101562 -15.59375 1.765625 -16.847656 1.765625 -18.265625 C 1.765625 -19.984375 2.234375 -21.398438 3.171875 -22.515625 C 4.117188 -23.640625 5.40625 -24.472656 7.03125 -25.015625 C 8.65625 -25.566406 10.503906 -25.84375 12.578125 -25.84375 C 16.148438 -25.84375 18.8125 -25.097656 20.5625 -23.609375 C 22.320312 -22.117188 23.394531 -19.882812 23.78125 -16.90625 L 17.265625 -16.4375 C 17.109375 -17.414062 16.890625 -18.257812 16.609375 -18.96875 C 16.335938 -19.6875 15.875 -20.238281 15.21875 -20.625 C 14.5625 -21.007812 13.585938 -21.203125 12.296875 -21.203125 C 11.835938 -21.203125 11.320312 -21.160156 10.75 -21.078125 C 10.1875 -21.003906 9.726562 -20.859375 9.375 -20.640625 C 9.0625 -20.210938 8.800781 -19.753906 8.59375 -19.265625 C 8.394531 -18.785156 8.296875 -18.242188 8.296875 -17.640625 C 8.296875 -16.546875 8.640625 -15.769531 9.328125 -15.3125 C 10.023438 -14.863281 11.25 -14.515625 13 -14.265625 C 15.226562 -14.160156 17.046875 -13.921875 18.453125 -13.546875 C 19.867188 -13.179688 20.957031 -12.703125 21.71875 -12.109375 C 22.488281 -11.523438 23.023438 -10.828125 23.328125 -10.015625 C 23.628906 -9.203125 23.78125 -8.285156 23.78125 -7.265625 C 23.78125 -5.617188 23.316406 -4.222656 22.390625 -3.078125 C 21.460938 -1.929688 20.191406 -1.0625 18.578125 -0.46875 C 16.972656 0.113281 15.125 0.40625 13.03125 0.40625 Z M 13.03125 0.40625 "/></g></g></g><g fill="#12229d" fill-opacity="1"><g transform="translate(798.02451, 315.216722)"><g><path d="M 7.9375 -5.234375 C 8.019531 -4.785156 8.082031 -4.335938 8.125 -3.890625 C 8.175781 -3.453125 8.203125 -3.019531 8.203125 -2.59375 C 8.203125 -1.488281 7.941406 -0.484375 7.421875 0.421875 C 6.898438 1.335938 6.164062 2.085938 5.21875 2.671875 C 4.269531 3.265625 3.164062 3.628906 1.90625 3.765625 L 1.640625 3.4375 C 1.765625 3.300781 1.96875 3.078125 2.25 2.765625 C 2.53125 2.453125 2.816406 2.117188 3.109375 1.765625 C 3.410156 1.410156 3.664062 1.082031 3.875 0.78125 C 4.09375 0.476562 4.203125 0.273438 4.203125 0.171875 C 4.085938 0.148438 3.878906 0.109375 3.578125 0.046875 C 3.285156 -0.00390625 2.988281 -0.09375 2.6875 -0.21875 C 2.382812 -0.34375 2.175781 -0.46875 2.0625 -0.59375 L 1.53125 -5.234375 Z M 7.9375 -5.234375 "/></g></g></g><g fill="#12229d" fill-opacity="1"><g transform="translate(318.793368, 354.69412)"><g><path d="M 25.015625 0 L 18.203125 0 C 18.023438 -0.957031 17.816406 -1.898438 17.578125 -2.828125 C 17.347656 -3.765625 17.113281 -4.710938 16.875 -5.671875 L 12.4375 -5.671875 C 11.675781 -5.671875 10.945312 -5.671875 10.25 -5.671875 C 9.550781 -5.671875 8.867188 -5.671875 8.203125 -5.671875 C 7.617188 -3.421875 7.109375 -1.53125 6.671875 0 L -0.03125 0 C 0.457031 -1.800781 1.007812 -3.804688 1.625 -6.015625 C 2.25 -8.234375 2.890625 -10.503906 3.546875 -12.828125 C 4.203125 -15.148438 4.820312 -17.398438 5.40625 -19.578125 C 6 -21.753906 6.507812 -23.707031 6.9375 -25.4375 L 17.96875 -25.4375 C 18.414062 -23.726562 18.925781 -21.800781 19.5 -19.65625 C 20.082031 -17.507812 20.703125 -15.285156 21.359375 -12.984375 C 22.015625 -10.679688 22.648438 -8.421875 23.265625 -6.203125 C 23.890625 -3.984375 24.472656 -1.914062 25.015625 0 Z M 9.140625 -9.265625 L 15.875 -9.265625 C 15.269531 -11.316406 14.671875 -13.378906 14.078125 -15.453125 C 13.492188 -17.535156 12.976562 -19.628906 12.53125 -21.734375 L 12.265625 -21.734375 C 11.734375 -19.648438 11.203125 -17.539062 10.671875 -15.40625 C 10.140625 -13.269531 9.628906 -11.222656 9.140625 -9.265625 Z M 9.140625 -9.265625 "/></g></g></g><g fill="#12229d" fill-opacity="1"><g transform="translate(342.59374, 354.69412)"><g><path d="M 2.140625 0 C 2.160156 -1.289062 2.175781 -2.660156 2.1875 -4.109375 C 2.195312 -5.566406 2.207031 -7.191406 2.21875 -8.984375 C 2.226562 -10.773438 2.234375 -12.816406 2.234375 -15.109375 C 2.234375 -16.703125 2.222656 -18.398438 2.203125 -20.203125 C 2.179688 -22.003906 2.144531 -23.75 2.09375 -25.4375 L 11 -25.4375 L 18.3125 -10.40625 C 18.613281 -9.601562 18.929688 -8.804688 19.265625 -8.015625 C 19.597656 -7.222656 19.84375 -6.550781 20 -6 L 20.46875 -6 C 20.382812 -6.6875 20.304688 -7.398438 20.234375 -8.140625 C 20.171875 -8.890625 20.140625 -9.625 20.140625 -10.34375 C 20.140625 -11.519531 20.132812 -12.800781 20.125 -14.1875 C 20.113281 -15.570312 20.097656 -16.957031 20.078125 -18.34375 C 20.054688 -19.738281 20.035156 -21.050781 20.015625 -22.28125 C 20.003906 -23.519531 19.988281 -24.570312 19.96875 -25.4375 L 26.015625 -25.4375 C 25.941406 -21.28125 25.90625 -17.132812 25.90625 -13 C 25.90625 -8.9375 25.941406 -4.601562 26.015625 0 L 17.140625 0 L 10.40625 -13.34375 C 9.84375 -14.695312 9.390625 -15.867188 9.046875 -16.859375 C 8.703125 -17.847656 8.410156 -18.753906 8.171875 -19.578125 L 7.703125 -19.578125 C 7.722656 -19.367188 7.75 -19.035156 7.78125 -18.578125 C 7.8125 -18.128906 7.847656 -17.640625 7.890625 -17.109375 C 7.941406 -16.578125 7.976562 -16.082031 8 -15.625 C 8.019531 -15.164062 8.03125 -14.847656 8.03125 -14.671875 C 8.03125 -11.929688 8.035156 -9.347656 8.046875 -6.921875 C 8.054688 -4.503906 8.078125 -2.195312 8.109375 0 Z M 2.140625 0 "/></g></g></g><g fill="#12229d" fill-opacity="1"><g transform="translate(369.527554, 354.69412)"><g><path d="M 13.03125 0.40625 C 9.363281 0.40625 6.546875 -0.203125 4.578125 -1.421875 C 2.617188 -2.648438 1.472656 -4.773438 1.140625 -7.796875 L 8.203125 -8.375 C 8.316406 -7.613281 8.535156 -6.90625 8.859375 -6.25 C 9.179688 -5.59375 9.679688 -5.054688 10.359375 -4.640625 C 11.035156 -4.234375 11.960938 -4.03125 13.140625 -4.03125 C 13.734375 -4.03125 14.351562 -4.085938 15 -4.203125 C 15.644531 -4.316406 16.144531 -4.515625 16.5 -4.796875 C 17.0625 -5.617188 17.34375 -6.539062 17.34375 -7.5625 C 17.34375 -8.226562 17.207031 -8.773438 16.9375 -9.203125 C 16.664062 -9.628906 16.1875 -9.960938 15.5 -10.203125 C 14.8125 -10.441406 13.8125 -10.628906 12.5 -10.765625 C 9.832031 -10.878906 7.710938 -11.257812 6.140625 -11.90625 C 4.578125 -12.550781 3.457031 -13.414062 2.78125 -14.5 C 2.101562 -15.59375 1.765625 -16.847656 1.765625 -18.265625 C 1.765625 -19.984375 2.234375 -21.398438 3.171875 -22.515625 C 4.117188 -23.640625 5.40625 -24.472656 7.03125 -25.015625 C 8.65625 -25.566406 10.503906 -25.84375 12.578125 -25.84375 C 16.148438 -25.84375 18.8125 -25.097656 20.5625 -23.609375 C 22.320312 -22.117188 23.394531 -19.882812 23.78125 -16.90625 L 17.265625 -16.4375 C 17.109375 -17.414062 16.890625 -18.257812 16.609375 -18.96875 C 16.335938 -19.6875 15.875 -20.238281 15.21875 -20.625 C 14.5625 -21.007812 13.585938 -21.203125 12.296875 -21.203125 C 11.835938 -21.203125 11.320312 -21.160156 10.75 -21.078125 C 10.1875 -21.003906 9.726562 -20.859375 9.375 -20.640625 C 9.0625 -20.210938 8.800781 -19.753906 8.59375 -19.265625 C 8.394531 -18.785156 8.296875 -18.242188 8.296875 -17.640625 C 8.296875 -16.546875 8.640625 -15.769531 9.328125 -15.3125 C 10.023438 -14.863281 11.25 -14.515625 13 -14.265625 C 15.226562 -14.160156 17.046875 -13.921875 18.453125 -13.546875 C 19.867188 -13.179688 20.957031 -12.703125 21.71875 -12.109375 C 22.488281 -11.523438 23.023438 -10.828125 23.328125 -10.015625 C 23.628906 -9.203125 23.78125 -8.285156 23.78125 -7.265625 C 23.78125 -5.617188 23.316406 -4.222656 22.390625 -3.078125 C 21.460938 -1.929688 20.191406 -1.0625 18.578125 -0.46875 C 16.972656 0.113281 15.125 0.40625 13.03125 0.40625 Z M 13.03125 0.40625 "/></g></g></g><g fill="#12229d" fill-opacity="1"><g transform="translate(393.361258, 354.69412)"><g><path d="M 4.59375 0 C 3.882812 -4.957031 3.113281 -9.585938 2.28125 -13.890625 C 1.445312 -18.191406 0.675781 -22.039062 -0.03125 -25.4375 L 6.671875 -25.4375 C 6.847656 -24.375 7.054688 -23.148438 7.296875 -21.765625 C 7.546875 -20.390625 7.800781 -18.945312 8.0625 -17.4375 C 8.332031 -15.925781 8.59375 -14.429688 8.84375 -12.953125 C 9.101562 -11.472656 9.335938 -10.097656 9.546875 -8.828125 C 9.765625 -7.566406 9.9375 -6.503906 10.0625 -5.640625 L 10.5625 -5.640625 L 13.84375 -25.4375 L 20.734375 -25.4375 L 23.96875 -5.671875 L 24.4375 -5.671875 C 24.664062 -7.085938 24.921875 -8.660156 25.203125 -10.390625 C 25.492188 -12.128906 25.800781 -13.90625 26.125 -15.71875 C 26.445312 -17.53125 26.765625 -19.273438 27.078125 -20.953125 C 27.390625 -22.628906 27.65625 -24.125 27.875 -25.4375 L 34.578125 -25.4375 C 34.285156 -24.195312 33.976562 -22.722656 33.65625 -21.015625 C 33.332031 -19.316406 32.992188 -17.507812 32.640625 -15.59375 C 32.285156 -13.6875 31.945312 -11.769531 31.625 -9.84375 C 31.300781 -7.925781 30.992188 -6.117188 30.703125 -4.421875 C 30.421875 -2.722656 30.175781 -1.25 29.96875 0 L 20.5 0 L 17.9375 -15.8125 C 17.851562 -16.40625 17.773438 -16.90625 17.703125 -17.3125 C 17.640625 -17.726562 17.582031 -18.304688 17.53125 -19.046875 L 17.03125 -19.046875 C 16.96875 -18.484375 16.898438 -17.9375 16.828125 -17.40625 C 16.765625 -16.875 16.691406 -16.328125 16.609375 -15.765625 L 14.078125 0 Z M 4.59375 0 "/></g></g></g><g fill="#12229d" fill-opacity="1"><g transform="translate(426.695329, 354.69412)"><g><path d="M 2.09375 0 C 2.125 -0.6875 2.148438 -1.550781 2.171875 -2.59375 C 2.191406 -3.644531 2.210938 -4.769531 2.234375 -5.96875 C 2.253906 -7.164062 2.269531 -8.351562 2.28125 -9.53125 C 2.289062 -10.707031 2.296875 -11.765625 2.296875 -12.703125 C 2.296875 -13.703125 2.289062 -14.78125 2.28125 -15.9375 C 2.269531 -17.09375 2.253906 -18.257812 2.234375 -19.4375 C 2.210938 -20.613281 2.191406 -21.722656 2.171875 -22.765625 C 2.148438 -23.816406 2.125 -24.707031 2.09375 -25.4375 L 21.609375 -25.4375 L 21.609375 -20.671875 L 8.640625 -20.671875 L 8.640625 -14.703125 L 20.703125 -14.90625 L 20.703125 -10.640625 L 8.640625 -10.84375 L 8.640625 -4.765625 L 21.78125 -4.765625 L 21.78125 0 Z M 2.09375 0 "/></g></g></g><g fill="#12229d" fill-opacity="1"><g transform="translate(448.462283, 354.69412)"><g><path d="M 2.09375 0 C 2.125 -1.289062 2.15625 -2.664062 2.1875 -4.125 C 2.21875 -5.59375 2.242188 -7.066406 2.265625 -8.546875 C 2.285156 -10.023438 2.296875 -11.398438 2.296875 -12.671875 C 2.296875 -13.960938 2.285156 -15.359375 2.265625 -16.859375 C 2.242188 -18.359375 2.21875 -19.851562 2.1875 -21.34375 C 2.15625 -22.832031 2.125 -24.195312 2.09375 -25.4375 L 13.765625 -25.4375 C 16.054688 -25.4375 17.984375 -25.25 19.546875 -24.875 C 21.117188 -24.5 22.3125 -23.816406 23.125 -22.828125 C 23.9375 -21.835938 24.34375 -20.421875 24.34375 -18.578125 C 24.34375 -16.085938 23.675781 -14.316406 22.34375 -13.265625 C 21.007812 -12.222656 19.019531 -11.679688 16.375 -11.640625 L 16.375 -11.171875 C 18.0625 -11.128906 19.425781 -10.914062 20.46875 -10.53125 C 21.519531 -10.15625 22.328125 -9.585938 22.890625 -8.828125 C 23.453125 -8.078125 23.835938 -7.113281 24.046875 -5.9375 C 24.085938 -5.625 24.160156 -5.203125 24.265625 -4.671875 C 24.378906 -4.140625 24.507812 -3.578125 24.65625 -2.984375 C 24.800781 -2.390625 24.945312 -1.828125 25.09375 -1.296875 C 25.238281 -0.765625 25.363281 -0.332031 25.46875 0 L 18.4375 0 C 18.28125 -0.84375 18.085938 -1.78125 17.859375 -2.8125 C 17.640625 -3.851562 17.488281 -4.835938 17.40625 -5.765625 C 17.207031 -6.628906 16.957031 -7.304688 16.65625 -7.796875 C 16.351562 -8.285156 15.929688 -8.632812 15.390625 -8.84375 C 14.847656 -9.0625 14.109375 -9.171875 13.171875 -9.171875 L 8.671875 -9.171875 C 8.671875 -8.585938 8.671875 -7.875 8.671875 -7.03125 C 8.671875 -6.1875 8.671875 -5.316406 8.671875 -4.421875 C 8.671875 -3.535156 8.671875 -2.695312 8.671875 -1.90625 C 8.671875 -1.125 8.671875 -0.488281 8.671875 0 Z M 8.609375 -13.34375 L 12.703125 -13.34375 C 14.390625 -13.34375 15.632812 -13.617188 16.4375 -14.171875 C 17.238281 -14.722656 17.640625 -15.703125 17.640625 -17.109375 C 17.640625 -18.640625 17.222656 -19.664062 16.390625 -20.1875 C 15.554688 -20.707031 14.328125 -20.96875 12.703125 -20.96875 L 8.609375 -20.96875 Z M 8.609375 -13.34375 "/></g></g></g><g fill="#12229d" fill-opacity="1"><g transform="translate(473.929389, 354.69412)"><g/></g></g><g fill="#12229d" fill-opacity="1"><g transform="translate(480.762393, 354.69412)"><g><path d="M 4.59375 0 C 3.882812 -4.957031 3.113281 -9.585938 2.28125 -13.890625 C 1.445312 -18.191406 0.675781 -22.039062 -0.03125 -25.4375 L 6.671875 -25.4375 C 6.847656 -24.375 7.054688 -23.148438 7.296875 -21.765625 C 7.546875 -20.390625 7.800781 -18.945312 8.0625 -17.4375 C 8.332031 -15.925781 8.59375 -14.429688 8.84375 -12.953125 C 9.101562 -11.472656 9.335938 -10.097656 9.546875 -8.828125 C 9.765625 -7.566406 9.9375 -6.503906 10.0625 -5.640625 L 10.5625 -5.640625 L 13.84375 -25.4375 L 20.734375 -25.4375 L 23.96875 -5.671875 L 24.4375 -5.671875 C 24.664062 -7.085938 24.921875 -8.660156 25.203125 -10.390625 C 25.492188 -12.128906 25.800781 -13.90625 26.125 -15.71875 C 26.445312 -17.53125 26.765625 -19.273438 27.078125 -20.953125 C 27.390625 -22.628906 27.65625 -24.125 27.875 -25.4375 L 34.578125 -25.4375 C 34.285156 -24.195312 33.976562 -22.722656 33.65625 -21.015625 C 33.332031 -19.316406 32.992188 -17.507812 32.640625 -15.59375 C 32.285156 -13.6875 31.945312 -11.769531 31.625 -9.84375 C 31.300781 -7.925781 30.992188 -6.117188 30.703125 -4.421875 C 30.421875 -2.722656 30.175781 -1.25 29.96875 0 L 20.5 0 L 17.9375 -15.8125 C 17.851562 -16.40625 17.773438 -16.90625 17.703125 -17.3125 C 17.640625 -17.726562 17.582031 -18.304688 17.53125 -19.046875 L 17.03125 -19.046875 C 16.96875 -18.484375 16.898438 -17.9375 16.828125 -17.40625 C 16.765625 -16.875 16.691406 -16.328125 16.609375 -15.765625 L 14.078125 0 Z M 4.59375 0 "/></g></g></g><g fill="#12229d" fill-opacity="1"><g transform="translate(514.096458, 354.69412)"><g><path d="M 2.09375 0 C 2.164062 -2.113281 2.207031 -4.226562 2.21875 -6.34375 C 2.226562 -8.46875 2.234375 -10.585938 2.234375 -12.703125 C 2.234375 -14.835938 2.226562 -16.957031 2.21875 -19.0625 C 2.207031 -21.175781 2.164062 -23.300781 2.09375 -25.4375 L 8.671875 -25.4375 C 8.597656 -23.332031 8.554688 -21.21875 8.546875 -19.09375 C 8.535156 -16.96875 8.53125 -14.847656 8.53125 -12.734375 C 8.53125 -10.597656 8.535156 -8.46875 8.546875 -6.34375 C 8.554688 -4.226562 8.597656 -2.113281 8.671875 0 Z M 2.09375 0 "/></g></g></g><g fill="#12229d" fill-opacity="1"><g transform="translate(523.696232, 354.69412)"><g><path d="M 6.875 0 C 6.914062 -2.0625 6.945312 -4.160156 6.96875 -6.296875 C 6.988281 -8.429688 7 -10.476562 7 -12.4375 C 7 -13.8125 6.992188 -15.226562 6.984375 -16.6875 C 6.972656 -18.144531 6.957031 -19.429688 6.9375 -20.546875 C 5.914062 -20.546875 4.769531 -20.535156 3.5 -20.515625 C 2.226562 -20.503906 1.050781 -20.476562 -0.03125 -20.4375 L -0.03125 -25.4375 L 20.5 -25.4375 L 20.5 -20.4375 C 19.476562 -20.476562 18.316406 -20.503906 17.015625 -20.515625 C 15.722656 -20.535156 14.539062 -20.546875 13.46875 -20.546875 C 13.46875 -20.097656 13.460938 -19.476562 13.453125 -18.6875 C 13.441406 -17.894531 13.429688 -17.046875 13.421875 -16.140625 C 13.410156 -15.242188 13.40625 -14.40625 13.40625 -13.625 C 13.40625 -12.851562 13.40625 -12.269531 13.40625 -11.875 C 13.40625 -7.894531 13.4375 -3.9375 13.5 0 Z M 6.875 0 "/></g></g></g><g fill="#12229d" fill-opacity="1"><g transform="translate(542.963081, 354.69412)"><g><path d="M 24.46875 -25.4375 C 24.445312 -24.476562 24.425781 -23.3125 24.40625 -21.9375 C 24.382812 -20.5625 24.375 -19.078125 24.375 -17.484375 C 24.375 -15.898438 24.375 -14.304688 24.375 -12.703125 C 24.375 -11.171875 24.375 -9.601562 24.375 -8 C 24.375 -6.40625 24.382812 -4.910156 24.40625 -3.515625 C 24.425781 -2.128906 24.445312 -0.957031 24.46875 0 L 17.90625 0 C 17.945312 -1.132812 17.972656 -2.375 17.984375 -3.71875 C 17.992188 -5.0625 18.003906 -6.390625 18.015625 -7.703125 C 18.023438 -9.015625 18.03125 -10.160156 18.03125 -11.140625 L 8.640625 -11.140625 C 8.640625 -10.023438 8.644531 -8.789062 8.65625 -7.4375 C 8.664062 -6.082031 8.675781 -4.753906 8.6875 -3.453125 C 8.695312 -2.148438 8.703125 -1 8.703125 0 L 2.09375 0 C 2.144531 -2.113281 2.1875 -4.257812 2.21875 -6.4375 C 2.25 -8.613281 2.265625 -10.703125 2.265625 -12.703125 C 2.265625 -14.703125 2.25 -16.789062 2.21875 -18.96875 C 2.1875 -21.144531 2.144531 -23.300781 2.09375 -25.4375 L 8.703125 -25.4375 C 8.679688 -23.945312 8.664062 -22.304688 8.65625 -20.515625 C 8.644531 -18.734375 8.640625 -16.984375 8.640625 -15.265625 L 18.03125 -15.265625 C 18.03125 -16.773438 18.019531 -18.425781 18 -20.21875 C 17.976562 -22.007812 17.945312 -23.75 17.90625 -25.4375 Z M 24.46875 -25.4375 "/></g></g></g><g fill="#12229d" fill-opacity="1"><g transform="translate(568.363524, 354.69412)"><g/></g></g><g fill="#12229d" fill-opacity="1"><g transform="translate(575.196541, 354.69412)"><g><path d="M 13.03125 0.4375 C 8.925781 0.4375 5.914062 -0.644531 4 -2.8125 C 2.09375 -4.976562 1.140625 -8.285156 1.140625 -12.734375 C 1.140625 -17.160156 2.097656 -20.453125 4.015625 -22.609375 C 5.941406 -24.765625 8.945312 -25.84375 13.03125 -25.84375 C 15.65625 -25.84375 17.78125 -25.4375 19.40625 -24.625 C 21.03125 -23.8125 22.25 -22.628906 23.0625 -21.078125 C 23.875 -19.535156 24.367188 -17.675781 24.546875 -15.5 L 18.078125 -14.796875 C 17.609375 -19.023438 15.738281 -21.140625 12.46875 -21.140625 C 11.894531 -21.140625 11.316406 -21.050781 10.734375 -20.875 C 10.160156 -20.695312 9.660156 -20.453125 9.234375 -20.140625 C 8.171875 -18.203125 7.640625 -15.703125 7.640625 -12.640625 C 7.640625 -10.054688 8.117188 -8.007812 9.078125 -6.5 C 10.046875 -4.988281 11.507812 -4.234375 13.46875 -4.234375 C 13.976562 -4.234375 14.503906 -4.289062 15.046875 -4.40625 C 15.597656 -4.53125 16.09375 -4.726562 16.53125 -5 C 16.914062 -5.582031 17.210938 -6.195312 17.421875 -6.84375 C 17.628906 -7.5 17.800781 -8.238281 17.9375 -9.0625 L 24.375 -9.0625 C 24.082031 -6.019531 23.03125 -3.675781 21.21875 -2.03125 C 19.40625 -0.382812 16.675781 0.4375 13.03125 0.4375 Z M 13.03125 0.4375 "/></g></g></g><g fill="#12229d" fill-opacity="1"><g transform="translate(599.696932, 354.69412)"><g><path d="M 13.109375 0.4375 C 8.972656 0.4375 5.941406 -0.632812 4.015625 -2.78125 C 2.097656 -4.925781 1.140625 -8.242188 1.140625 -12.734375 C 1.140625 -17.179688 2.109375 -20.476562 4.046875 -22.625 C 5.992188 -24.769531 8.945312 -25.84375 12.90625 -25.84375 C 17 -25.84375 20.019531 -24.765625 21.96875 -22.609375 C 23.925781 -20.453125 24.90625 -17.117188 24.90625 -12.609375 C 24.90625 -8.179688 23.914062 -4.898438 21.9375 -2.765625 C 19.957031 -0.628906 17.015625 0.4375 13.109375 0.4375 Z M 13.203125 -4.265625 C 13.785156 -4.265625 14.378906 -4.316406 14.984375 -4.421875 C 15.597656 -4.535156 16.128906 -4.738281 16.578125 -5.03125 C 17.171875 -5.945312 17.628906 -7.03125 17.953125 -8.28125 C 18.273438 -9.539062 18.4375 -10.984375 18.4375 -12.609375 C 18.4375 -14.296875 18.222656 -15.773438 17.796875 -17.046875 C 17.378906 -18.328125 16.757812 -19.320312 15.9375 -20.03125 C 15.113281 -20.75 14.101562 -21.109375 12.90625 -21.109375 C 12.28125 -21.109375 11.640625 -21.03125 10.984375 -20.875 C 10.328125 -20.71875 9.742188 -20.472656 9.234375 -20.140625 C 8.722656 -19.273438 8.328125 -18.265625 8.046875 -17.109375 C 7.773438 -15.953125 7.640625 -14.539062 7.640625 -12.875 C 7.640625 -10.289062 8.117188 -8.207031 9.078125 -6.625 C 10.046875 -5.050781 11.421875 -4.265625 13.203125 -4.265625 Z M 13.203125 -4.265625 "/></g></g></g><g fill="#12229d" fill-opacity="1"><g transform="translate(624.597352, 354.69412)"><g><path d="M 2.140625 0 C 2.160156 -1.289062 2.175781 -2.660156 2.1875 -4.109375 C 2.195312 -5.566406 2.207031 -7.191406 2.21875 -8.984375 C 2.226562 -10.773438 2.234375 -12.816406 2.234375 -15.109375 C 2.234375 -16.703125 2.222656 -18.398438 2.203125 -20.203125 C 2.179688 -22.003906 2.144531 -23.75 2.09375 -25.4375 L 11 -25.4375 L 18.3125 -10.40625 C 18.613281 -9.601562 18.929688 -8.804688 19.265625 -8.015625 C 19.597656 -7.222656 19.84375 -6.550781 20 -6 L 20.46875 -6 C 20.382812 -6.6875 20.304688 -7.398438 20.234375 -8.140625 C 20.171875 -8.890625 20.140625 -9.625 20.140625 -10.34375 C 20.140625 -11.519531 20.132812 -12.800781 20.125 -14.1875 C 20.113281 -15.570312 20.097656 -16.957031 20.078125 -18.34375 C 20.054688 -19.738281 20.035156 -21.050781 20.015625 -22.28125 C 20.003906 -23.519531 19.988281 -24.570312 19.96875 -25.4375 L 26.015625 -25.4375 C 25.941406 -21.28125 25.90625 -17.132812 25.90625 -13 C 25.90625 -8.9375 25.941406 -4.601562 26.015625 0 L 17.140625 0 L 10.40625 -13.34375 C 9.84375 -14.695312 9.390625 -15.867188 9.046875 -16.859375 C 8.703125 -17.847656 8.410156 -18.753906 8.171875 -19.578125 L 7.703125 -19.578125 C 7.722656 -19.367188 7.75 -19.035156 7.78125 -18.578125 C 7.8125 -18.128906 7.847656 -17.640625 7.890625 -17.109375 C 7.941406 -16.578125 7.976562 -16.082031 8 -15.625 C 8.019531 -15.164062 8.03125 -14.847656 8.03125 -14.671875 C 8.03125 -11.929688 8.035156 -9.347656 8.046875 -6.921875 C 8.054688 -4.503906 8.078125 -2.195312 8.109375 0 Z M 2.140625 0 "/></g></g></g><g fill="#12229d" fill-opacity="1"><g transform="translate(651.531172, 354.69412)"><g><path d="M 2.09375 0 C 2.125 -0.6875 2.148438 -1.535156 2.171875 -2.546875 C 2.191406 -3.554688 2.210938 -4.644531 2.234375 -5.8125 C 2.253906 -6.976562 2.269531 -8.15625 2.28125 -9.34375 C 2.289062 -10.539062 2.296875 -11.660156 2.296875 -12.703125 C 2.296875 -13.566406 2.285156 -14.570312 2.265625 -15.71875 C 2.242188 -16.863281 2.222656 -18.039062 2.203125 -19.25 C 2.179688 -20.46875 2.15625 -21.617188 2.125 -22.703125 C 2.101562 -23.796875 2.09375 -24.707031 2.09375 -25.4375 L 21.40625 -25.4375 L 21.40625 -20.671875 L 8.640625 -20.671875 L 8.640625 -14.140625 L 20.5 -14.34375 L 20.5 -9.84375 L 8.640625 -10.03125 C 8.640625 -9.125 8.644531 -8.0625 8.65625 -6.84375 C 8.664062 -5.632812 8.675781 -4.425781 8.6875 -3.21875 C 8.695312 -2.007812 8.703125 -0.9375 8.703125 0 Z M 2.09375 0 "/></g></g></g><g fill="#12229d" fill-opacity="1"><g transform="translate(672.931453, 354.69412)"><g><path d="M 2.09375 0 C 2.164062 -2.113281 2.207031 -4.226562 2.21875 -6.34375 C 2.226562 -8.46875 2.234375 -10.585938 2.234375 -12.703125 C 2.234375 -14.835938 2.226562 -16.957031 2.21875 -19.0625 C 2.207031 -21.175781 2.164062 -23.300781 2.09375 -25.4375 L 8.671875 -25.4375 C 8.597656 -23.332031 8.554688 -21.21875 8.546875 -19.09375 C 8.535156 -16.96875 8.53125 -14.847656 8.53125 -12.734375 C 8.53125 -10.597656 8.535156 -8.46875 8.546875 -6.34375 C 8.554688 -4.226562 8.597656 -2.113281 8.671875 0 Z M 2.09375 0 "/></g></g></g><g fill="#12229d" fill-opacity="1"><g transform="translate(682.531239, 354.69412)"><g><path d="M 2.09375 0 C 2.144531 -1.269531 2.179688 -2.640625 2.203125 -4.109375 C 2.222656 -5.585938 2.238281 -7.070312 2.25 -8.5625 C 2.257812 -10.050781 2.265625 -11.429688 2.265625 -12.703125 C 2.265625 -13.992188 2.257812 -15.40625 2.25 -16.9375 C 2.238281 -18.46875 2.222656 -19.976562 2.203125 -21.46875 C 2.179688 -22.957031 2.144531 -24.28125 2.09375 -25.4375 L 11.875 -25.4375 C 14.757812 -25.4375 17.144531 -25.007812 19.03125 -24.15625 C 20.925781 -23.300781 22.335938 -21.945312 23.265625 -20.09375 C 24.203125 -18.238281 24.671875 -15.796875 24.671875 -12.765625 C 24.671875 -8.546875 23.757812 -5.375 21.9375 -3.25 C 20.113281 -1.125 17.210938 -0.0390625 13.234375 0 Z M 8.640625 -4.4375 L 12.140625 -4.4375 C 14.316406 -4.4375 15.859375 -5.085938 16.765625 -6.390625 C 17.679688 -7.691406 18.140625 -9.773438 18.140625 -12.640625 C 18.140625 -15.617188 17.679688 -17.753906 16.765625 -19.046875 C 15.859375 -20.347656 14.25 -21 11.9375 -21 L 8.640625 -21 Z M 8.640625 -4.4375 "/></g></g></g><g fill="#12229d" fill-opacity="1"><g transform="translate(707.198313, 354.69412)"><g><path d="M 2.09375 0 C 2.125 -0.6875 2.148438 -1.550781 2.171875 -2.59375 C 2.191406 -3.644531 2.210938 -4.769531 2.234375 -5.96875 C 2.253906 -7.164062 2.269531 -8.351562 2.28125 -9.53125 C 2.289062 -10.707031 2.296875 -11.765625 2.296875 -12.703125 C 2.296875 -13.703125 2.289062 -14.78125 2.28125 -15.9375 C 2.269531 -17.09375 2.253906 -18.257812 2.234375 -19.4375 C 2.210938 -20.613281 2.191406 -21.722656 2.171875 -22.765625 C 2.148438 -23.816406 2.125 -24.707031 2.09375 -25.4375 L 21.609375 -25.4375 L 21.609375 -20.671875 L 8.640625 -20.671875 L 8.640625 -14.703125 L 20.703125 -14.90625 L 20.703125 -10.640625 L 8.640625 -10.84375 L 8.640625 -4.765625 L 21.78125 -4.765625 L 21.78125 0 Z M 2.09375 0 "/></g></g></g><g fill="#12229d" fill-opacity="1"><g transform="translate(728.965266, 354.69412)"><g><path d="M 2.140625 0 C 2.160156 -1.289062 2.175781 -2.660156 2.1875 -4.109375 C 2.195312 -5.566406 2.207031 -7.191406 2.21875 -8.984375 C 2.226562 -10.773438 2.234375 -12.816406 2.234375 -15.109375 C 2.234375 -16.703125 2.222656 -18.398438 2.203125 -20.203125 C 2.179688 -22.003906 2.144531 -23.75 2.09375 -25.4375 L 11 -25.4375 L 18.3125 -10.40625 C 18.613281 -9.601562 18.929688 -8.804688 19.265625 -8.015625 C 19.597656 -7.222656 19.84375 -6.550781 20 -6 L 20.46875 -6 C 20.382812 -6.6875 20.304688 -7.398438 20.234375 -8.140625 C 20.171875 -8.890625 20.140625 -9.625 20.140625 -10.34375 C 20.140625 -11.519531 20.132812 -12.800781 20.125 -14.1875 C 20.113281 -15.570312 20.097656 -16.957031 20.078125 -18.34375 C 20.054688 -19.738281 20.035156 -21.050781 20.015625 -22.28125 C 20.003906 -23.519531 19.988281 -24.570312 19.96875 -25.4375 L 26.015625 -25.4375 C 25.941406 -21.28125 25.90625 -17.132812 25.90625 -13 C 25.90625 -8.9375 25.941406 -4.601562 26.015625 0 L 17.140625 0 L 10.40625 -13.34375 C 9.84375 -14.695312 9.390625 -15.867188 9.046875 -16.859375 C 8.703125 -17.847656 8.410156 -18.753906 8.171875 -19.578125 L 7.703125 -19.578125 C 7.722656 -19.367188 7.75 -19.035156 7.78125 -18.578125 C 7.8125 -18.128906 7.847656 -17.640625 7.890625 -17.109375 C 7.941406 -16.578125 7.976562 -16.082031 8 -15.625 C 8.019531 -15.164062 8.03125 -14.847656 8.03125 -14.671875 C 8.03125 -11.929688 8.035156 -9.347656 8.046875 -6.921875 C 8.054688 -4.503906 8.078125 -2.195312 8.109375 0 Z M 2.140625 0 "/></g></g></g><g fill="#12229d" fill-opacity="1"><g transform="translate(755.899061, 354.69412)"><g><path d="M 13.03125 0.4375 C 8.925781 0.4375 5.914062 -0.644531 4 -2.8125 C 2.09375 -4.976562 1.140625 -8.285156 1.140625 -12.734375 C 1.140625 -17.160156 2.097656 -20.453125 4.015625 -22.609375 C 5.941406 -24.765625 8.945312 -25.84375 13.03125 -25.84375 C 15.65625 -25.84375 17.78125 -25.4375 19.40625 -24.625 C 21.03125 -23.8125 22.25 -22.628906 23.0625 -21.078125 C 23.875 -19.535156 24.367188 -17.675781 24.546875 -15.5 L 18.078125 -14.796875 C 17.609375 -19.023438 15.738281 -21.140625 12.46875 -21.140625 C 11.894531 -21.140625 11.316406 -21.050781 10.734375 -20.875 C 10.160156 -20.695312 9.660156 -20.453125 9.234375 -20.140625 C 8.171875 -18.203125 7.640625 -15.703125 7.640625 -12.640625 C 7.640625 -10.054688 8.117188 -8.007812 9.078125 -6.5 C 10.046875 -4.988281 11.507812 -4.234375 13.46875 -4.234375 C 13.976562 -4.234375 14.503906 -4.289062 15.046875 -4.40625 C 15.597656 -4.53125 16.09375 -4.726562 16.53125 -5 C 16.914062 -5.582031 17.210938 -6.195312 17.421875 -6.84375 C 17.628906 -7.5 17.800781 -8.238281 17.9375 -9.0625 L 24.375 -9.0625 C 24.082031 -6.019531 23.03125 -3.675781 21.21875 -2.03125 C 19.40625 -0.382812 16.675781 0.4375 13.03125 0.4375 Z M 13.03125 0.4375 "/></g></g></g><g fill="#12229d" fill-opacity="1"><g transform="translate(780.399452, 354.69412)"><g><path d="M 2.09375 0 C 2.125 -0.6875 2.148438 -1.550781 2.171875 -2.59375 C 2.191406 -3.644531 2.210938 -4.769531 2.234375 -5.96875 C 2.253906 -7.164062 2.269531 -8.351562 2.28125 -9.53125 C 2.289062 -10.707031 2.296875 -11.765625 2.296875 -12.703125 C 2.296875 -13.703125 2.289062 -14.78125 2.28125 -15.9375 C 2.269531 -17.09375 2.253906 -18.257812 2.234375 -19.4375 C 2.210938 -20.613281 2.191406 -21.722656 2.171875 -22.765625 C 2.148438 -23.816406 2.125 -24.707031 2.09375 -25.4375 L 21.609375 -25.4375 L 21.609375 -20.671875 L 8.640625 -20.671875 L 8.640625 -14.703125 L 20.703125 -14.90625 L 20.703125 -10.640625 L 8.640625 -10.84375 L 8.640625 -4.765625 L 21.78125 -4.765625 L 21.78125 0 Z M 2.09375 0 "/></g></g></g><g fill="#12229d" fill-opacity="1"><g transform="translate(802.166405, 354.69412)"><g><path d="M 2.671875 -6.46875 C 2.554688 -9.664062 2.414062 -12.832031 2.25 -15.96875 C 2.082031 -19.101562 1.890625 -22.257812 1.671875 -25.4375 L 9.03125 -25.4375 C 8.875 -23.476562 8.734375 -21.410156 8.609375 -19.234375 C 8.492188 -17.054688 8.382812 -14.878906 8.28125 -12.703125 C 8.1875 -10.523438 8.101562 -8.445312 8.03125 -6.46875 C 7.65625 -6.53125 7.257812 -6.585938 6.84375 -6.640625 C 6.4375 -6.703125 5.921875 -6.734375 5.296875 -6.734375 C 4.742188 -6.734375 4.253906 -6.703125 3.828125 -6.640625 C 3.410156 -6.585938 3.023438 -6.53125 2.671875 -6.46875 Z M 5.375 0.5 C 4.082031 0.5 3.164062 0.285156 2.625 -0.140625 C 2.09375 -0.578125 1.828125 -1.21875 1.828125 -2.0625 C 1.828125 -2.90625 2.09375 -3.53125 2.625 -3.9375 C 3.164062 -4.351562 4.082031 -4.5625 5.375 -4.5625 C 6.632812 -4.5625 7.535156 -4.351562 8.078125 -3.9375 C 8.628906 -3.53125 8.90625 -2.90625 8.90625 -2.0625 C 8.90625 -1.21875 8.628906 -0.578125 8.078125 -0.140625 C 7.535156 0.285156 6.632812 0.5 5.375 0.5 Z M 5.375 0.5 "/></g></g></g></svg>