<svg xmlns="http://www.w3.org/2000/svg" xmlns:xlink="http://www.w3.org/1999/xlink" width="500" zoomAndPan="magnify" viewBox="0 0 375 374.999991" height="500" preserveAspectRatio="xMidYMid meet" version="1.0"><defs><g/><clipPath id="f3a66d12a7"><path d="M 76.957031 67.0625 L 277 67.0625 L 277 173.5625 L 76.957031 173.5625 Z M 76.957031 67.0625 " clip-rule="nonzero"/></clipPath><clipPath id="f7e5c1d2e4"><path d="M 92.851562 80.21875 L 293.101562 80.21875 L 293.101562 186.71875 L 92.851562 186.71875 Z M 92.851562 80.21875 " clip-rule="nonzero"/></clipPath></defs><g clip-path="url(#f3a66d12a7)"><path fill="#12229d" d="M 242.585938 104.710938 C 240.875 104.710938 239.199219 104.839844 237.5625 105.074219 C 235.574219 83.75 217.640625 67.0625 195.796875 67.0625 C 182.226562 67.0625 170.164062 73.515625 162.488281 83.515625 C 159.410156 82.605469 156.148438 82.113281 152.773438 82.113281 C 137.515625 82.113281 124.582031 92.046875 120.074219 105.8125 C 117.296875 105.085938 114.375 104.695312 111.375 104.695312 C 92.375 104.710938 76.960938 120.109375 76.960938 139.125 C 76.960938 158.136719 92.375 173.535156 111.375 173.535156 L 242.585938 173.535156 C 261.601562 173.535156 277 158.121094 277 139.125 C 277 120.125 261.585938 104.710938 242.585938 104.710938 Z M 242.585938 104.710938 " fill-opacity="1" fill-rule="nonzero"/></g><g clip-path="url(#f7e5c1d2e4)"><path fill="#ffffff" d="M 258.691406 117.871094 C 256.976562 117.871094 255.296875 118 253.660156 118.234375 C 251.671875 96.910156 233.714844 80.21875 211.84375 80.21875 C 198.253906 80.21875 186.175781 86.675781 178.488281 96.675781 C 175.40625 95.765625 172.144531 95.273438 168.761719 95.273438 C 153.484375 95.273438 140.535156 105.207031 136.019531 118.976562 C 133.238281 118.246094 130.3125 117.859375 127.308594 117.859375 C 108.285156 117.871094 92.851562 133.273438 92.851562 152.289062 C 92.851562 171.304688 108.285156 186.707031 127.308594 186.707031 L 258.691406 186.707031 C 277.730469 186.707031 293.152344 171.289062 293.152344 152.289062 C 293.152344 133.289062 277.714844 117.871094 258.691406 117.871094 Z M 258.691406 117.871094 " fill-opacity="1" fill-rule="nonzero"/></g><path stroke-linecap="butt" transform="matrix(1.185492, 0, 0, 1.185492, 4.468786, 154.118471)" fill="none" stroke-linejoin="miter" d="M 57.936747 37.229631 L 58.365102 48.119755 L 41.71524 48.001133 L 41.108951 43.879032 L 40.502663 43.879032 C 39.458134 45.454063 38.080805 46.676525 36.367382 47.543122 C 34.653958 48.409719 32.825208 48.84137 30.887722 48.84137 C 24.228436 48.84137 19.368244 46.768786 16.303852 42.62362 C 13.242756 38.465273 11.71056 32.553962 11.71056 24.879802 C 11.71056 19.393552 12.415699 14.899111 13.822683 11.393183 C 15.242848 7.887255 17.542789 5.287464 20.722508 3.593811 C 23.912111 1.900158 28.129769 1.050036 33.368891 1.050036 C 37.642564 1.050036 41.201213 1.494867 44.048132 2.381234 C 46.895051 3.267602 49.155451 4.671291 50.829334 6.592302 C 52.503217 8.503428 53.699319 10.978007 54.420933 14.022629 C 55.149138 17.063955 55.511593 20.767586 55.511593 25.130226 C 55.511593 27.229169 55.208449 28.922822 54.595571 30.21448 C 53.995873 31.502843 53.290733 32.488061 52.483447 33.16684 C 51.765127 33.8588 50.908415 34.61666 49.913312 35.443717 C 48.928093 36.270773 47.949465 37.058289 46.974132 37.806264 C 46.008683 38.554239 45.188217 39.170412 44.506143 39.654784 L 44.446832 39.7108 L 45.231053 40.495021 C 46.522711 39.127577 48.021956 38.211554 49.735379 37.746953 C 51.448803 37.285647 53.037015 37.051698 54.493424 37.051698 C 54.859174 37.051698 55.419332 37.071469 56.177192 37.111009 C 56.944938 37.15055 57.531456 37.19009 57.936747 37.229631 Z M 39.603116 37.717298 C 39.92603 35.816057 40.169864 33.87198 40.324731 31.881773 C 40.492778 29.884976 40.578449 27.749786 40.578449 25.48609 C 40.578449 23.024692 40.321436 20.757701 39.810704 18.691707 C 39.306562 16.612534 38.499276 14.938651 37.385551 13.666764 C 36.285006 12.398171 34.825301 11.762228 33.013026 11.762228 C 32.24528 11.762228 31.296307 11.821539 30.162812 11.94016 C 29.029316 12.058782 28.021033 12.220239 27.134665 12.427827 C 26.936963 14.12148 26.775506 15.864559 26.646999 17.657063 C 26.528377 19.449568 26.469066 21.700084 26.469066 24.408611 C 26.469066 26.820584 26.73926 29.08428 27.282942 31.202994 C 27.833215 33.321707 28.680042 35.038426 29.823422 36.359739 C 30.973393 37.667872 32.462753 38.323586 34.284913 38.323586 C 34.963692 38.323586 35.859945 38.27416 36.97367 38.175309 C 38.0841 38.066572 38.963877 37.915 39.603116 37.717298 Z M 77.59828 48.84137 C 72.998397 48.84137 69.317832 48.156 66.549994 46.788557 C 63.792042 45.421113 61.795244 43.282629 60.566192 40.376399 C 59.333846 37.470169 58.717672 33.759948 58.717672 29.239147 L 58.717672 15.689921 C 58.717672 13.188982 58.688017 10.783599 58.632001 8.467183 C 58.57269 6.144176 58.496904 3.933201 58.407938 1.834257 L 73.357557 1.834257 C 73.357557 2.602003 73.347672 3.745383 73.331197 5.261104 C 73.311427 6.770234 73.301542 8.473773 73.301542 10.371719 C 73.301542 12.263075 73.291656 14.170906 73.271886 16.091917 C 73.252116 17.999748 73.242231 19.752712 73.242231 21.350809 C 73.242231 22.945611 73.242231 24.164777 73.242231 25.014899 C 73.242231 27.555379 73.397098 29.81578 73.713422 31.792807 C 74.039632 33.763244 74.64592 35.325095 75.532287 36.478361 C 76.428539 37.618446 77.703722 38.191784 79.357834 38.191784 C 80.115695 38.191784 81.025127 38.132473 82.089427 38.013852 C 83.163611 37.89523 83.928062 37.733773 84.379483 37.526185 C 84.498105 36.119201 84.587071 35.008771 84.646382 34.201485 C 84.705693 33.394198 84.745233 32.669289 84.765003 32.03005 C 84.784774 31.380926 84.794659 30.563755 84.794659 29.578536 C 84.794659 28.583433 84.794659 27.199514 84.794659 25.42678 C 84.794659 24.059336 84.784774 22.306372 84.765003 20.167888 C 84.745233 18.029403 84.725463 15.785478 84.705693 13.432816 C 84.685922 11.066973 84.666152 8.846113 84.646382 6.770234 C 84.626611 4.691061 84.616726 3.046834 84.616726 1.834257 L 99.493855 1.834257 C 99.454314 4.651521 99.424659 7.491849 99.404888 10.358539 C 99.385118 13.225228 99.375233 16.091917 99.375233 18.955311 L 99.434544 31.601694 C 99.434544 36.082955 98.567947 39.575703 96.834753 42.076642 C 95.10156 44.577581 92.607211 46.330545 89.358296 47.335534 C 86.119267 48.340523 82.198163 48.84137 77.59828 48.84137 Z M 102.874571 48.001133 C 103.042618 44.168996 103.138175 40.317088 103.157945 36.448705 C 103.177715 32.567142 103.1876 28.711939 103.1876 24.879802 C 103.1876 21.047665 103.177715 17.208937 103.157945 13.35703 C 103.138175 9.505122 103.042618 5.666394 102.874571 1.834257 L 117.886796 1.834257 C 117.728634 5.666394 117.639668 9.495237 117.619898 13.327374 C 117.600127 17.159512 117.590242 20.991649 117.590242 24.820491 C 117.590242 28.692169 117.600127 32.557257 117.619898 36.41905 C 117.639668 40.267662 117.728634 44.129455 117.886796 48.001133 Z M 120.246048 48.001133 L 120.246048 32.75496 L 145.420193 16.045786 L 145.420193 15.146239 C 138.556614 15.301106 133.188985 15.390072 129.317307 15.409843 C 125.44563 15.429613 122.562465 15.459268 120.661224 15.498809 L 120.661224 1.834257 L 160.060078 1.834257 L 160.060078 16.177588 L 134.885934 33.713818 L 134.885934 34.62984 C 135.172602 34.62984 135.917283 34.619955 137.116679 34.600185 C 138.329256 34.580415 139.812026 34.560644 141.56499 34.540874 C 143.327839 34.521104 145.182949 34.501334 147.133616 34.481563 C 149.094168 34.451908 150.988819 34.428843 152.820864 34.409072 C 154.662794 34.389302 156.277366 34.369532 157.667875 34.349762 C 159.055089 34.329991 160.033717 34.320106 160.607055 34.320106 L 160.607055 48.001133 Z M 184.799276 48.722748 C 180.202688 48.722748 176.278289 48.261442 173.02608 47.335534 C 169.787051 46.409626 167.246571 44.83789 165.404641 42.62362 C 163.572596 40.396169 162.435805 37.328482 161.990974 33.420559 L 178.212481 32.148671 C 178.331103 33.15366 178.581526 34.171829 178.967046 35.206473 C 179.349271 36.231232 180.014871 37.078059 180.960548 37.746953 C 181.906226 38.405962 183.263785 38.738762 185.036519 38.738762 C 185.44181 38.738762 185.962427 38.718991 186.601666 38.679451 C 187.254085 38.63991 187.886733 38.580599 188.509497 38.501518 C 189.13885 38.422437 189.596862 38.363126 189.88353 38.323586 C 190.002152 37.55584 190.101003 36.788095 190.176789 36.020349 C 190.265756 35.249309 190.311886 34.461793 190.311886 33.654507 C 190.311886 32.573732 190.137249 31.65771 189.794564 30.906439 C 189.448585 30.158464 188.802756 29.562061 187.860373 29.120525 C 186.914695 28.675694 185.511006 28.435156 183.649305 28.395615 C 178.242136 28.276994 174.037659 27.674 171.032578 26.580045 C 168.027497 25.48609 165.931848 23.98355 164.739042 22.072424 C 163.546235 20.151412 162.953127 17.920667 162.953127 15.380187 C 162.953127 12.111503 163.84938 9.419451 165.641884 7.300737 C 167.444274 5.182023 169.905672 3.603696 173.02608 2.559167 C 176.159668 1.504753 179.698546 0.977545 183.649305 0.977545 C 190.591965 0.977545 195.798136 2.41089 199.264524 5.277579 C 202.730911 8.140973 204.724413 12.559629 205.24503 18.526955 L 190.311886 19.561599 C 190.143839 17.907487 189.906596 16.484027 189.603452 15.291221 C 189.306898 14.10171 188.670954 13.175802 187.695621 12.516793 C 186.730172 11.844604 185.201271 11.511804 183.102328 11.511804 C 182.786003 11.511804 182.295042 11.531575 181.626148 11.571115 C 180.953958 11.610656 180.304835 11.663376 179.675481 11.732572 C 179.052717 11.791883 178.624362 11.861079 178.390413 11.94016 C 178.271792 12.707906 178.16635 13.515192 178.080679 14.362018 C 178.001598 15.208845 177.962057 16.095212 177.962057 17.02112 C 177.962057 18.675232 178.403594 19.957005 179.289961 20.863142 C 180.176328 21.76928 181.909521 22.326142 184.489542 22.530435 C 188.852181 22.649057 192.38447 22.978561 195.083112 23.522244 C 197.791639 24.062631 199.870812 24.820491 201.317337 25.795825 C 202.773747 26.761273 203.77544 27.963964 204.315828 29.400604 C 204.856215 30.827358 205.129704 32.488061 205.129704 34.379417 C 205.129704 37.453694 204.233452 40.05678 202.440947 42.195264 C 200.648443 44.330453 198.213404 45.95491 195.142422 47.068635 C 192.07803 48.172476 188.631413 48.722748 184.799276 48.722748 Z M 241.371904 30.020072 L 251.596429 48.001133 L 235.078368 48.001133 L 224.310161 26.873304 L 222.240873 26.873304 L 222.669229 48.001133 L 207.660299 48.001133 C 207.749265 44.129455 207.821756 40.208352 207.881067 36.241117 C 207.940377 32.260703 207.970033 28.494467 207.970033 24.939113 C 207.970033 21.433185 207.940377 17.686719 207.881067 13.696419 C 207.821756 9.69953 207.749265 5.745475 207.660299 1.834257 L 222.669229 1.834257 L 222.240873 22.457944 L 224.310161 22.457944 L 234.959747 1.834257 L 250.812208 1.834257 L 241.371904 19.192554 C 240.930368 20.078921 240.462472 20.787356 239.968215 21.321153 C 239.487139 21.841771 238.870965 22.266831 238.12299 22.589746 C 237.3849 22.90607 236.379911 23.176264 235.108024 23.403622 C 233.839431 23.63098 232.175434 23.861633 230.116031 24.098876 L 230.116031 24.939113 C 232.25122 25.186241 233.958053 25.413599 235.226645 25.617892 C 236.498533 25.815595 237.483751 26.085789 238.182301 26.431768 C 238.890735 26.777748 239.477254 27.229169 239.93856 27.789327 C 240.413046 28.35278 240.890828 29.094165 241.371904 30.020072 Z M 279.116645 1.834257 L 294.965812 1.834257 L 285.410181 39.460376 C 284.728107 42.327066 283.429859 44.468845 281.508848 45.889009 C 279.597722 47.295994 277.208814 48.001133 274.34542 48.001133 L 260.176726 48.001133 L 263.870472 34.511219 L 271.198652 34.511219 L 273.310776 27.907948 L 272.038889 27.907948 C 270.944934 29.888271 269.640096 31.212879 268.124375 31.881773 C 266.61854 32.544077 265.102819 32.873581 263.573918 32.873581 L 257.814179 32.873581 C 256.967353 29.809189 256.061215 26.451539 255.095767 22.797334 C 254.130319 19.143129 253.158281 15.505399 252.186242 11.880849 C 251.220794 8.246415 250.314657 4.898649 249.46783 1.834257 L 265.083049 1.834257 L 271.491911 26.211 L 272.585866 26.211 Z M 279.116645 1.834257 " stroke="#12229d" stroke-width="15.88398" stroke-opacity="1" stroke-miterlimit="4"/><g fill="#f4f6fc" fill-opacity="1"><g transform="translate(16.268138, 211.022094)"><g><path d="M 56.890625 -12.765625 L 57.390625 0.140625 L 37.65625 0 L 36.9375 -4.875 L 36.21875 -4.875 C 34.976562 -3.007812 33.34375 -1.5625 31.3125 -0.53125 C 29.28125 0.488281 27.113281 1 24.8125 1 C 16.925781 1 11.164062 -1.457031 7.53125 -6.375 C 3.894531 -11.300781 2.078125 -18.3125 2.078125 -27.40625 C 2.078125 -33.90625 2.914062 -39.234375 4.59375 -43.390625 C 6.269531 -47.554688 8.992188 -50.644531 12.765625 -52.65625 C 16.546875 -54.664062 21.546875 -55.671875 27.765625 -55.671875 C 32.828125 -55.671875 37.046875 -55.144531 40.421875 -54.09375 C 43.796875 -53.039062 46.472656 -51.375 48.453125 -49.09375 C 50.441406 -46.820312 51.863281 -43.878906 52.71875 -40.265625 C 53.582031 -36.660156 54.015625 -32.273438 54.015625 -27.109375 C 54.015625 -24.628906 53.65625 -22.625 52.9375 -21.09375 C 52.21875 -19.5625 51.378906 -18.390625 50.421875 -17.578125 C 49.566406 -16.765625 48.550781 -15.867188 47.375 -14.890625 C 46.207031 -13.910156 45.050781 -12.976562 43.90625 -12.09375 C 42.757812 -11.207031 41.773438 -10.476562 40.953125 -9.90625 L 40.890625 -9.828125 L 41.828125 -8.890625 C 43.347656 -10.515625 45.125 -11.601562 47.15625 -12.15625 C 49.195312 -12.707031 51.078125 -12.984375 52.796875 -12.984375 C 53.222656 -12.984375 53.890625 -12.957031 54.796875 -12.90625 C 55.710938 -12.863281 56.410156 -12.816406 56.890625 -12.765625 Z M 35.15625 -12.1875 C 35.53125 -14.4375 35.8125 -16.742188 36 -19.109375 C 36.195312 -21.484375 36.296875 -24.007812 36.296875 -26.6875 C 36.296875 -29.601562 35.992188 -32.289062 35.390625 -34.75 C 34.796875 -37.21875 33.84375 -39.203125 32.53125 -40.703125 C 31.21875 -42.210938 29.484375 -42.96875 27.328125 -42.96875 C 26.421875 -42.96875 25.296875 -42.894531 23.953125 -42.75 C 22.617188 -42.601562 21.425781 -42.414062 20.375 -42.1875 C 20.132812 -40.175781 19.941406 -38.101562 19.796875 -35.96875 C 19.648438 -33.84375 19.578125 -31.175781 19.578125 -27.96875 C 19.578125 -25.101562 19.898438 -22.414062 20.546875 -19.90625 C 21.191406 -17.394531 22.195312 -15.363281 23.5625 -13.8125 C 24.925781 -12.257812 26.6875 -11.484375 28.84375 -11.484375 C 29.65625 -11.484375 30.71875 -11.539062 32.03125 -11.65625 C 33.34375 -11.78125 34.382812 -11.957031 35.15625 -12.1875 Z M 35.15625 -12.1875 "/></g></g></g><g fill="#f4f6fc" fill-opacity="1"><g transform="translate(70.489655, 211.022094)"><g><path d="M 25.96875 1 C 20.519531 1 16.15625 0.1875 12.875 -1.4375 C 9.601562 -3.0625 7.238281 -5.59375 5.78125 -9.03125 C 4.320312 -12.476562 3.59375 -16.878906 3.59375 -22.234375 L 3.59375 -38.3125 C 3.59375 -41.269531 3.554688 -44.125 3.484375 -46.875 C 3.410156 -49.625 3.328125 -52.242188 3.234375 -54.734375 L 20.953125 -54.734375 C 20.953125 -53.828125 20.9375 -52.472656 20.90625 -50.671875 C 20.882812 -48.878906 20.875 -46.859375 20.875 -44.609375 C 20.875 -42.367188 20.859375 -40.113281 20.828125 -37.84375 C 20.804688 -35.570312 20.796875 -33.488281 20.796875 -31.59375 C 20.796875 -29.707031 20.796875 -28.265625 20.796875 -27.265625 C 20.796875 -24.242188 20.988281 -21.5625 21.375 -19.21875 C 21.757812 -16.875 22.476562 -15.019531 23.53125 -13.65625 C 24.582031 -12.300781 26.085938 -11.625 28.046875 -11.625 C 28.953125 -11.625 30.039062 -11.691406 31.3125 -11.828125 C 32.582031 -11.972656 33.476562 -12.164062 34 -12.40625 C 34.144531 -14.082031 34.253906 -15.398438 34.328125 -16.359375 C 34.398438 -17.316406 34.445312 -18.175781 34.46875 -18.9375 C 34.488281 -19.695312 34.5 -20.660156 34.5 -21.828125 C 34.5 -23.003906 34.5 -24.644531 34.5 -26.75 C 34.5 -28.382812 34.488281 -30.46875 34.46875 -33 C 34.445312 -35.53125 34.421875 -38.191406 34.390625 -40.984375 C 34.367188 -43.785156 34.34375 -46.414062 34.3125 -48.875 C 34.289062 -51.34375 34.28125 -53.296875 34.28125 -54.734375 L 51.9375 -54.734375 C 51.882812 -51.390625 51.847656 -48.019531 51.828125 -44.625 C 51.804688 -41.226562 51.796875 -37.832031 51.796875 -34.4375 L 51.859375 -19.4375 C 51.859375 -14.132812 50.828125 -10 48.765625 -7.03125 C 46.710938 -4.0625 43.757812 -1.976562 39.90625 -0.78125 C 36.0625 0.40625 31.414062 1 25.96875 1 Z M 25.96875 1 "/></g></g></g><g fill="#f4f6fc" fill-opacity="1"><g transform="translate(123.205015, 211.022094)"><g><path d="M 3.234375 0 C 3.421875 -4.539062 3.523438 -9.109375 3.546875 -13.703125 C 3.578125 -18.296875 3.59375 -22.863281 3.59375 -27.40625 C 3.59375 -31.945312 3.578125 -36.5 3.546875 -41.0625 C 3.523438 -45.632812 3.421875 -50.191406 3.234375 -54.734375 L 21.015625 -54.734375 C 20.828125 -50.191406 20.71875 -45.644531 20.6875 -41.09375 C 20.664062 -36.550781 20.65625 -32.007812 20.65625 -27.46875 C 20.65625 -22.882812 20.664062 -18.304688 20.6875 -13.734375 C 20.71875 -9.171875 20.828125 -4.59375 21.015625 0 Z M 3.234375 0 "/></g></g></g><g fill="#f4f6fc" fill-opacity="1"><g transform="translate(144.936399, 211.022094)"><g><path d="M 2.078125 0 L 2.078125 -18.078125 L 31.921875 -37.875 L 31.921875 -38.953125 C 23.796875 -38.765625 17.4375 -38.65625 12.84375 -38.625 C 8.25 -38.601562 4.828125 -38.566406 2.578125 -38.515625 L 2.578125 -54.734375 L 49.28125 -54.734375 L 49.28125 -37.734375 L 19.4375 -16.921875 L 19.4375 -15.859375 C 19.769531 -15.859375 20.65625 -15.867188 22.09375 -15.890625 C 23.53125 -15.910156 25.285156 -15.929688 27.359375 -15.953125 C 29.441406 -15.984375 31.644531 -16.007812 33.96875 -16.03125 C 36.289062 -16.050781 38.535156 -16.070312 40.703125 -16.09375 C 42.878906 -16.125 44.789062 -16.148438 46.4375 -16.171875 C 48.09375 -16.203125 49.253906 -16.21875 49.921875 -16.21875 L 49.921875 0 Z M 2.078125 0 "/></g></g></g><g fill="#f4f6fc" fill-opacity="1"><g transform="translate(194.424257, 211.022094)"><g><path d="M 29.125 0.859375 C 23.675781 0.859375 19.023438 0.3125 15.171875 -0.78125 C 11.316406 -1.882812 8.300781 -3.75 6.125 -6.375 C 3.957031 -9.007812 2.609375 -12.644531 2.078125 -17.28125 L 21.3125 -18.796875 C 21.445312 -17.597656 21.742188 -16.390625 22.203125 -15.171875 C 22.660156 -13.953125 23.445312 -12.945312 24.5625 -12.15625 C 25.6875 -11.363281 27.300781 -10.96875 29.40625 -10.96875 C 29.882812 -10.96875 30.503906 -10.992188 31.265625 -11.046875 C 32.035156 -11.097656 32.789062 -11.171875 33.53125 -11.265625 C 34.269531 -11.359375 34.8125 -11.429688 35.15625 -11.484375 C 35.289062 -12.390625 35.40625 -13.296875 35.5 -14.203125 C 35.601562 -15.109375 35.65625 -16.039062 35.65625 -17 C 35.65625 -18.289062 35.453125 -19.378906 35.046875 -20.265625 C 34.640625 -21.148438 33.875 -21.851562 32.75 -22.375 C 31.625 -22.90625 29.960938 -23.191406 27.765625 -23.234375 C 21.359375 -23.378906 16.367188 -24.097656 12.796875 -25.390625 C 9.234375 -26.679688 6.75 -28.460938 5.34375 -30.734375 C 3.9375 -33.003906 3.234375 -35.648438 3.234375 -38.671875 C 3.234375 -42.535156 4.296875 -45.722656 6.421875 -48.234375 C 8.546875 -50.742188 11.460938 -52.617188 15.171875 -53.859375 C 18.878906 -55.109375 23.078125 -55.734375 27.765625 -55.734375 C 35.984375 -55.734375 42.148438 -54.035156 46.265625 -50.640625 C 50.378906 -47.242188 52.75 -42.007812 53.375 -34.9375 L 35.65625 -33.71875 C 35.457031 -35.675781 35.175781 -37.359375 34.8125 -38.765625 C 34.457031 -40.179688 33.707031 -41.28125 32.5625 -42.0625 C 31.414062 -42.851562 29.597656 -43.25 27.109375 -43.25 C 26.734375 -43.25 26.148438 -43.222656 25.359375 -43.171875 C 24.566406 -43.128906 23.800781 -43.070312 23.0625 -43 C 22.320312 -42.925781 21.804688 -42.84375 21.515625 -42.75 C 21.378906 -41.84375 21.257812 -40.882812 21.15625 -39.875 C 21.0625 -38.875 21.015625 -37.828125 21.015625 -36.734375 C 21.015625 -34.765625 21.539062 -33.242188 22.59375 -32.171875 C 23.644531 -31.097656 25.703125 -30.441406 28.765625 -30.203125 C 33.929688 -30.054688 38.113281 -29.660156 41.3125 -29.015625 C 44.519531 -28.367188 46.984375 -27.472656 48.703125 -26.328125 C 50.429688 -25.179688 51.617188 -23.757812 52.265625 -22.0625 C 52.910156 -20.363281 53.234375 -18.390625 53.234375 -16.140625 C 53.234375 -12.503906 52.164062 -9.414062 50.03125 -6.875 C 47.90625 -4.34375 45.023438 -2.421875 41.390625 -1.109375 C 37.753906 0.203125 33.664062 0.859375 29.125 0.859375 Z M 29.125 0.859375 "/></g></g></g><g fill="#f4f6fc" fill-opacity="1"><g transform="translate(247.426515, 211.022094)"><g><path d="M 43.1875 -21.3125 L 55.3125 0 L 35.71875 0 L 22.953125 -25.03125 L 20.515625 -25.03125 L 21.015625 0 L 3.234375 0 C 3.328125 -4.59375 3.410156 -9.242188 3.484375 -13.953125 C 3.554688 -18.660156 3.59375 -23.117188 3.59375 -27.328125 C 3.59375 -31.492188 3.554688 -35.941406 3.484375 -40.671875 C 3.410156 -45.410156 3.328125 -50.097656 3.234375 -54.734375 L 21.015625 -54.734375 L 20.515625 -30.265625 L 22.953125 -30.265625 L 35.578125 -54.734375 L 54.375 -54.734375 L 43.1875 -34.140625 C 42.65625 -33.085938 42.101562 -32.25 41.53125 -31.625 C 40.957031 -31.007812 40.226562 -30.507812 39.34375 -30.125 C 38.457031 -29.738281 37.257812 -29.414062 35.75 -29.15625 C 34.25 -28.894531 32.28125 -28.617188 29.84375 -28.328125 L 29.84375 -27.328125 C 32.375 -27.046875 34.390625 -26.785156 35.890625 -26.546875 C 37.398438 -26.304688 38.570312 -25.984375 39.40625 -25.578125 C 40.25 -25.171875 40.945312 -24.628906 41.5 -23.953125 C 42.050781 -23.285156 42.613281 -22.40625 43.1875 -21.3125 Z M 43.1875 -21.3125 "/></g></g></g><g fill="#f4f6fc" fill-opacity="1"><g transform="translate(300.787372, 211.022094)"><g><path d="M 34.578125 -54.734375 L 53.375 -54.734375 L 42.03125 -10.109375 C 41.21875 -6.710938 39.675781 -4.175781 37.40625 -2.5 C 35.132812 -0.832031 32.300781 0 28.90625 0 L 12.125 0 L 16.5 -16 L 25.171875 -16 L 27.6875 -23.8125 L 26.1875 -23.8125 C 24.894531 -21.46875 23.347656 -19.898438 21.546875 -19.109375 C 19.753906 -18.328125 17.953125 -17.9375 16.140625 -17.9375 L 9.328125 -17.9375 C 8.316406 -21.570312 7.238281 -25.550781 6.09375 -29.875 C 4.945312 -34.207031 3.800781 -38.523438 2.65625 -42.828125 C 1.507812 -47.128906 0.429688 -51.097656 -0.578125 -54.734375 L 17.9375 -54.734375 L 25.53125 -25.828125 L 26.828125 -25.828125 Z M 34.578125 -54.734375 "/></g></g></g><g fill="#12229d" fill-opacity="1"><g transform="translate(43.061366, 277.140958)"><g><path d="M 1.28125 0 C 1.289062 -0.414062 1.300781 -0.929688 1.3125 -1.546875 C 1.332031 -2.160156 1.347656 -2.820312 1.359375 -3.53125 C 1.367188 -4.238281 1.375 -4.953125 1.375 -5.671875 C 1.382812 -6.398438 1.390625 -7.082031 1.390625 -7.71875 C 1.390625 -8.25 1.382812 -8.859375 1.375 -9.546875 C 1.363281 -10.242188 1.347656 -10.960938 1.328125 -11.703125 C 1.316406 -12.441406 1.304688 -13.140625 1.296875 -13.796875 C 1.285156 -14.460938 1.28125 -15.019531 1.28125 -15.46875 L 13.015625 -15.46875 L 13.015625 -12.5625 L 5.25 -12.5625 L 5.25 -8.59375 L 12.46875 -8.71875 L 12.46875 -5.984375 L 5.25 -6.09375 C 5.25 -5.539062 5.25 -4.894531 5.25 -4.15625 C 5.257812 -3.425781 5.269531 -2.691406 5.28125 -1.953125 C 5.289062 -1.210938 5.296875 -0.5625 5.296875 0 Z M 1.28125 0 "/></g></g></g><g fill="#12229d" fill-opacity="1"><g transform="translate(56.071488, 277.140958)"><g><path d="M 1.28125 0 C 1.300781 -1.28125 1.316406 -2.585938 1.328125 -3.921875 C 1.347656 -5.253906 1.359375 -6.519531 1.359375 -7.71875 C 1.359375 -8.9375 1.347656 -10.207031 1.328125 -11.53125 C 1.316406 -12.851562 1.300781 -14.164062 1.28125 -15.46875 L 5.328125 -15.46875 C 5.285156 -12.894531 5.265625 -10.46875 5.265625 -8.1875 C 5.265625 -7.320312 5.269531 -6.429688 5.28125 -5.515625 C 5.289062 -4.609375 5.300781 -3.796875 5.3125 -3.078125 C 6.351562 -3.078125 7.441406 -3.078125 8.578125 -3.078125 C 9.710938 -3.085938 10.769531 -3.101562 11.75 -3.125 L 11.46875 0 Z M 1.28125 0 "/></g></g></g><g fill="#12229d" fill-opacity="1"><g transform="translate(67.075312, 277.140958)"><g><path d="M 4.765625 0 L 4.765625 -5.234375 L 4.515625 -5.234375 C 3.910156 -5.234375 3.460938 -5.363281 3.171875 -5.625 C 2.890625 -5.882812 2.671875 -6.367188 2.515625 -7.078125 L -0.015625 -15.46875 L 4.484375 -15.46875 L 6.390625 -7.890625 L 7.421875 -7.890625 L 9.328125 -15.46875 L 13.796875 -15.46875 L 11.234375 -7.046875 C 11.066406 -6.347656 10.84375 -5.867188 10.5625 -5.609375 C 10.289062 -5.359375 9.84375 -5.234375 9.21875 -5.234375 L 9.015625 -5.234375 L 9.015625 0 Z M 4.765625 0 "/></g></g></g><g fill="#12229d" fill-opacity="1"><g transform="translate(80.125962, 277.140958)"><g/></g></g><g fill="#12229d" fill-opacity="1"><g transform="translate(84.280035, 277.140958)"><g><path d="M 4.171875 0 C 4.203125 -1.257812 4.222656 -2.535156 4.234375 -3.828125 C 4.242188 -5.128906 4.25 -6.375 4.25 -7.5625 C 4.25 -8.394531 4.242188 -9.253906 4.234375 -10.140625 C 4.234375 -11.023438 4.226562 -11.804688 4.21875 -12.484375 C 3.59375 -12.484375 2.894531 -12.476562 2.125 -12.46875 C 1.351562 -12.46875 0.640625 -12.453125 -0.015625 -12.421875 L -0.015625 -15.46875 L 12.46875 -15.46875 L 12.46875 -12.421875 C 11.84375 -12.453125 11.132812 -12.46875 10.34375 -12.46875 C 9.550781 -12.476562 8.832031 -12.484375 8.1875 -12.484375 C 8.1875 -12.210938 8.179688 -11.835938 8.171875 -11.359375 C 8.171875 -10.878906 8.164062 -10.363281 8.15625 -9.8125 C 8.144531 -9.269531 8.140625 -8.757812 8.140625 -8.28125 C 8.140625 -7.8125 8.140625 -7.457031 8.140625 -7.21875 C 8.140625 -4.800781 8.160156 -2.394531 8.203125 0 Z M 4.171875 0 "/></g></g></g><g fill="#12229d" fill-opacity="1"><g transform="translate(95.993162, 277.140958)"><g><path d="M 14.875 -15.46875 C 14.863281 -14.882812 14.847656 -14.171875 14.828125 -13.328125 C 14.816406 -12.492188 14.8125 -11.59375 14.8125 -10.625 C 14.8125 -9.664062 14.8125 -8.695312 14.8125 -7.71875 C 14.8125 -6.789062 14.8125 -5.835938 14.8125 -4.859375 C 14.8125 -3.890625 14.816406 -2.984375 14.828125 -2.140625 C 14.847656 -1.296875 14.863281 -0.582031 14.875 0 L 10.875 0 C 10.90625 -0.6875 10.921875 -1.4375 10.921875 -2.25 C 10.929688 -3.070312 10.941406 -3.878906 10.953125 -4.671875 C 10.960938 -5.472656 10.96875 -6.171875 10.96875 -6.765625 L 5.25 -6.765625 C 5.25 -6.085938 5.25 -5.335938 5.25 -4.515625 C 5.257812 -3.691406 5.269531 -2.882812 5.28125 -2.09375 C 5.289062 -1.300781 5.296875 -0.601562 5.296875 0 L 1.28125 0 C 1.300781 -1.28125 1.320312 -2.582031 1.34375 -3.90625 C 1.363281 -5.226562 1.375 -6.5 1.375 -7.71875 C 1.375 -8.9375 1.363281 -10.207031 1.34375 -11.53125 C 1.320312 -12.851562 1.300781 -14.164062 1.28125 -15.46875 L 5.296875 -15.46875 C 5.273438 -14.5625 5.257812 -13.5625 5.25 -12.46875 C 5.25 -11.382812 5.25 -10.320312 5.25 -9.28125 L 10.96875 -9.28125 C 10.96875 -10.195312 10.957031 -11.195312 10.9375 -12.28125 C 10.925781 -13.375 10.90625 -14.4375 10.875 -15.46875 Z M 14.875 -15.46875 "/></g></g></g><g fill="#12229d" fill-opacity="1"><g transform="translate(111.43515, 277.140958)"><g><path d="M 1.28125 0 C 1.289062 -0.78125 1.304688 -1.613281 1.328125 -2.5 C 1.347656 -3.394531 1.363281 -4.289062 1.375 -5.1875 C 1.382812 -6.09375 1.390625 -6.929688 1.390625 -7.703125 C 1.390625 -8.484375 1.382812 -9.328125 1.375 -10.234375 C 1.363281 -11.148438 1.347656 -12.0625 1.328125 -12.96875 C 1.304688 -13.875 1.289062 -14.707031 1.28125 -15.46875 L 8.375 -15.46875 C 9.757812 -15.46875 10.925781 -15.351562 11.875 -15.125 C 12.832031 -14.894531 13.554688 -14.476562 14.046875 -13.875 C 14.546875 -13.269531 14.796875 -12.40625 14.796875 -11.28125 C 14.796875 -9.769531 14.390625 -8.695312 13.578125 -8.0625 C 12.765625 -7.425781 11.554688 -7.097656 9.953125 -7.078125 L 9.953125 -6.78125 C 10.972656 -6.757812 11.800781 -6.632812 12.4375 -6.40625 C 13.070312 -6.175781 13.5625 -5.832031 13.90625 -5.375 C 14.25 -4.914062 14.484375 -4.328125 14.609375 -3.609375 C 14.640625 -3.421875 14.6875 -3.160156 14.75 -2.828125 C 14.820312 -2.503906 14.898438 -2.164062 14.984375 -1.8125 C 15.078125 -1.457031 15.164062 -1.113281 15.25 -0.78125 C 15.332031 -0.457031 15.410156 -0.195312 15.484375 0 L 11.203125 0 C 11.109375 -0.507812 10.992188 -1.078125 10.859375 -1.703125 C 10.722656 -2.335938 10.628906 -2.9375 10.578125 -3.5 C 10.453125 -4.03125 10.296875 -4.441406 10.109375 -4.734375 C 9.929688 -5.035156 9.675781 -5.25 9.34375 -5.375 C 9.019531 -5.507812 8.570312 -5.578125 8 -5.578125 L 5.265625 -5.578125 C 5.265625 -5.222656 5.265625 -4.785156 5.265625 -4.265625 C 5.265625 -3.753906 5.265625 -3.226562 5.265625 -2.6875 C 5.265625 -2.15625 5.265625 -1.648438 5.265625 -1.171875 C 5.265625 -0.691406 5.265625 -0.300781 5.265625 0 Z M 5.234375 -8.109375 L 7.71875 -8.109375 C 8.75 -8.109375 9.503906 -8.273438 9.984375 -8.609375 C 10.472656 -8.953125 10.71875 -9.546875 10.71875 -10.390625 C 10.71875 -11.328125 10.460938 -11.953125 9.953125 -12.265625 C 9.453125 -12.585938 8.707031 -12.75 7.71875 -12.75 L 5.234375 -12.75 Z M 5.234375 -8.109375 "/></g></g></g><g fill="#12229d" fill-opacity="1"><g transform="translate(126.917662, 277.140958)"><g><path d="M 7.96875 0.265625 C 5.445312 0.265625 3.601562 -0.382812 2.4375 -1.6875 C 1.269531 -2.988281 0.6875 -5.003906 0.6875 -7.734375 C 0.6875 -10.441406 1.273438 -12.445312 2.453125 -13.75 C 3.640625 -15.050781 5.4375 -15.703125 7.84375 -15.703125 C 10.332031 -15.703125 12.171875 -15.046875 13.359375 -13.734375 C 14.546875 -12.429688 15.140625 -10.40625 15.140625 -7.65625 C 15.140625 -4.96875 14.535156 -2.972656 13.328125 -1.671875 C 12.128906 -0.378906 10.34375 0.265625 7.96875 0.265625 Z M 8.03125 -2.59375 C 8.375 -2.59375 8.734375 -2.625 9.109375 -2.6875 C 9.484375 -2.757812 9.804688 -2.882812 10.078125 -3.0625 C 10.441406 -3.613281 10.71875 -4.269531 10.90625 -5.03125 C 11.101562 -5.800781 11.203125 -6.675781 11.203125 -7.65625 C 11.203125 -8.6875 11.070312 -9.585938 10.8125 -10.359375 C 10.5625 -11.140625 10.1875 -11.742188 9.6875 -12.171875 C 9.1875 -12.609375 8.570312 -12.828125 7.84375 -12.828125 C 7.46875 -12.828125 7.078125 -12.78125 6.671875 -12.6875 C 6.273438 -12.59375 5.921875 -12.441406 5.609375 -12.234375 C 5.296875 -11.710938 5.054688 -11.097656 4.890625 -10.390625 C 4.722656 -9.691406 4.640625 -8.835938 4.640625 -7.828125 C 4.640625 -6.253906 4.929688 -4.988281 5.515625 -4.03125 C 6.109375 -3.070312 6.945312 -2.59375 8.03125 -2.59375 Z M 8.03125 -2.59375 "/></g></g></g><g fill="#12229d" fill-opacity="1"><g transform="translate(142.055669, 277.140958)"><g><path d="M 7.53125 0.265625 C 5.976562 0.265625 4.753906 0.0195312 3.859375 -0.46875 C 2.960938 -0.957031 2.320312 -1.691406 1.9375 -2.671875 C 1.550781 -3.660156 1.359375 -4.90625 1.359375 -6.40625 L 1.359375 -10.875 C 1.359375 -11.71875 1.347656 -12.515625 1.328125 -13.265625 C 1.316406 -14.023438 1.300781 -14.757812 1.28125 -15.46875 L 5.25 -15.46875 C 5.25 -15.15625 5.242188 -14.726562 5.234375 -14.1875 C 5.234375 -13.65625 5.234375 -13.066406 5.234375 -12.421875 C 5.234375 -11.773438 5.226562 -11.125 5.21875 -10.46875 C 5.207031 -9.820312 5.203125 -9.21875 5.203125 -8.65625 C 5.203125 -8.101562 5.203125 -7.648438 5.203125 -7.296875 C 5.203125 -6.359375 5.28125 -5.535156 5.4375 -4.828125 C 5.601562 -4.117188 5.882812 -3.566406 6.28125 -3.171875 C 6.6875 -2.773438 7.253906 -2.578125 7.984375 -2.578125 C 8.421875 -2.578125 8.828125 -2.628906 9.203125 -2.734375 C 9.578125 -2.835938 9.894531 -3.019531 10.15625 -3.28125 C 10.269531 -3.6875 10.359375 -4.046875 10.421875 -4.359375 C 10.492188 -4.671875 10.546875 -5.035156 10.578125 -5.453125 C 10.609375 -5.867188 10.625 -6.441406 10.625 -7.171875 C 10.625 -7.679688 10.625 -8.3125 10.625 -9.0625 C 10.625 -9.8125 10.617188 -10.59375 10.609375 -11.40625 C 10.597656 -12.21875 10.585938 -12.984375 10.578125 -13.703125 C 10.578125 -14.421875 10.570312 -15.007812 10.5625 -15.46875 L 14.53125 -15.46875 C 14.5 -14.570312 14.476562 -13.675781 14.46875 -12.78125 C 14.46875 -11.882812 14.46875 -10.96875 14.46875 -10.03125 L 14.484375 -5.453125 C 14.484375 -4.003906 14.207031 -2.859375 13.65625 -2.015625 C 13.101562 -1.179688 12.3125 -0.59375 11.28125 -0.25 C 10.25 0.09375 9 0.265625 7.53125 0.265625 Z M 7.53125 0.265625 "/></g></g></g><g fill="#12229d" fill-opacity="1"><g transform="translate(157.153148, 277.140958)"><g><path d="M 6.9375 0.265625 C 4.90625 0.265625 3.351562 -0.421875 2.28125 -1.796875 C 1.21875 -3.179688 0.6875 -5.160156 0.6875 -7.734375 C 0.6875 -10.429688 1.257812 -12.429688 2.40625 -13.734375 C 3.5625 -15.046875 5.359375 -15.703125 7.796875 -15.703125 C 9.503906 -15.703125 10.835938 -15.472656 11.796875 -15.015625 C 12.765625 -14.554688 13.472656 -13.851562 13.921875 -12.90625 C 14.367188 -11.957031 14.644531 -10.75 14.75 -9.28125 L 10.828125 -8.828125 C 10.765625 -9.617188 10.625 -10.3125 10.40625 -10.90625 C 10.1875 -11.507812 9.859375 -11.984375 9.421875 -12.328125 C 8.992188 -12.671875 8.425781 -12.84375 7.71875 -12.84375 C 7.332031 -12.84375 6.960938 -12.789062 6.609375 -12.6875 C 6.265625 -12.582031 5.941406 -12.429688 5.640625 -12.234375 C 5.304688 -11.722656 5.046875 -11.128906 4.859375 -10.453125 C 4.679688 -9.773438 4.59375 -8.921875 4.59375 -7.890625 C 4.59375 -6.867188 4.726562 -5.957031 5 -5.15625 C 5.269531 -4.351562 5.660156 -3.710938 6.171875 -3.234375 C 6.691406 -2.765625 7.316406 -2.53125 8.046875 -2.53125 C 8.460938 -2.53125 8.835938 -2.566406 9.171875 -2.640625 C 9.515625 -2.710938 9.820312 -2.816406 10.09375 -2.953125 C 10.40625 -3.128906 10.6875 -3.382812 10.9375 -3.71875 C 11.1875 -4.0625 11.359375 -4.320312 11.453125 -4.5 C 11.453125 -4.78125 11.40625 -5.050781 11.3125 -5.3125 C 11.21875 -5.582031 11.054688 -5.71875 10.828125 -5.71875 L 8.59375 -5.71875 L 8.59375 -7.15625 L 15.203125 -7.15625 C 15.203125 -6.414062 15.203125 -5.6875 15.203125 -4.96875 C 15.203125 -4.25 15.207031 -3.488281 15.21875 -2.6875 C 15.226562 -1.894531 15.234375 -1 15.234375 0 L 11.40625 0 L 11.484375 -3 L 11.25 -3 C 11.039062 -1.96875 10.566406 -1.164062 9.828125 -0.59375 C 9.097656 -0.0195312 8.132812 0.265625 6.9375 0.265625 Z M 6.9375 0.265625 "/></g></g></g><g fill="#12229d" fill-opacity="1"><g transform="translate(172.331683, 277.140958)"><g><path d="M 14.875 -15.46875 C 14.863281 -14.882812 14.847656 -14.171875 14.828125 -13.328125 C 14.816406 -12.492188 14.8125 -11.59375 14.8125 -10.625 C 14.8125 -9.664062 14.8125 -8.695312 14.8125 -7.71875 C 14.8125 -6.789062 14.8125 -5.835938 14.8125 -4.859375 C 14.8125 -3.890625 14.816406 -2.984375 14.828125 -2.140625 C 14.847656 -1.296875 14.863281 -0.582031 14.875 0 L 10.875 0 C 10.90625 -0.6875 10.921875 -1.4375 10.921875 -2.25 C 10.929688 -3.070312 10.941406 -3.878906 10.953125 -4.671875 C 10.960938 -5.472656 10.96875 -6.171875 10.96875 -6.765625 L 5.25 -6.765625 C 5.25 -6.085938 5.25 -5.335938 5.25 -4.515625 C 5.257812 -3.691406 5.269531 -2.882812 5.28125 -2.09375 C 5.289062 -1.300781 5.296875 -0.601562 5.296875 0 L 1.28125 0 C 1.300781 -1.28125 1.320312 -2.582031 1.34375 -3.90625 C 1.363281 -5.226562 1.375 -6.5 1.375 -7.71875 C 1.375 -8.9375 1.363281 -10.207031 1.34375 -11.53125 C 1.320312 -12.851562 1.300781 -14.164062 1.28125 -15.46875 L 5.296875 -15.46875 C 5.273438 -14.5625 5.257812 -13.5625 5.25 -12.46875 C 5.25 -11.382812 5.25 -10.320312 5.25 -9.28125 L 10.96875 -9.28125 C 10.96875 -10.195312 10.957031 -11.195312 10.9375 -12.28125 C 10.925781 -13.375 10.90625 -14.4375 10.875 -15.46875 Z M 14.875 -15.46875 "/></g></g></g><g fill="#12229d" fill-opacity="1"><g transform="translate(187.773675, 277.140958)"><g/></g></g><g fill="#12229d" fill-opacity="1"><g transform="translate(191.927751, 277.140958)"><g><path d="M 7.921875 0.265625 C 5.421875 0.265625 3.585938 -0.390625 2.421875 -1.703125 C 1.265625 -3.023438 0.6875 -5.035156 0.6875 -7.734375 C 0.6875 -10.429688 1.269531 -12.429688 2.4375 -13.734375 C 3.601562 -15.046875 5.429688 -15.703125 7.921875 -15.703125 C 9.515625 -15.703125 10.804688 -15.453125 11.796875 -14.953125 C 12.785156 -14.460938 13.523438 -13.75 14.015625 -12.8125 C 14.503906 -11.875 14.804688 -10.742188 14.921875 -9.421875 L 10.984375 -9 C 10.703125 -11.5625 9.566406 -12.84375 7.578125 -12.84375 C 7.222656 -12.84375 6.867188 -12.789062 6.515625 -12.6875 C 6.171875 -12.582031 5.867188 -12.429688 5.609375 -12.234375 C 4.960938 -11.066406 4.640625 -9.550781 4.640625 -7.6875 C 4.640625 -6.113281 4.929688 -4.867188 5.515625 -3.953125 C 6.109375 -3.035156 7 -2.578125 8.1875 -2.578125 C 8.5 -2.578125 8.816406 -2.613281 9.140625 -2.6875 C 9.472656 -2.757812 9.773438 -2.878906 10.046875 -3.046875 C 10.273438 -3.390625 10.453125 -3.757812 10.578125 -4.15625 C 10.710938 -4.5625 10.820312 -5.015625 10.90625 -5.515625 L 14.8125 -5.515625 C 14.632812 -3.660156 13.992188 -2.234375 12.890625 -1.234375 C 11.796875 -0.234375 10.140625 0.265625 7.921875 0.265625 Z M 7.921875 0.265625 "/></g></g></g><g fill="#12229d" fill-opacity="1"><g transform="translate(206.822564, 277.140958)"><g><path d="M 14.875 -15.46875 C 14.863281 -14.882812 14.847656 -14.171875 14.828125 -13.328125 C 14.816406 -12.492188 14.8125 -11.59375 14.8125 -10.625 C 14.8125 -9.664062 14.8125 -8.695312 14.8125 -7.71875 C 14.8125 -6.789062 14.8125 -5.835938 14.8125 -4.859375 C 14.8125 -3.890625 14.816406 -2.984375 14.828125 -2.140625 C 14.847656 -1.296875 14.863281 -0.582031 14.875 0 L 10.875 0 C 10.90625 -0.6875 10.921875 -1.4375 10.921875 -2.25 C 10.929688 -3.070312 10.941406 -3.878906 10.953125 -4.671875 C 10.960938 -5.472656 10.96875 -6.171875 10.96875 -6.765625 L 5.25 -6.765625 C 5.25 -6.085938 5.25 -5.335938 5.25 -4.515625 C 5.257812 -3.691406 5.269531 -2.882812 5.28125 -2.09375 C 5.289062 -1.300781 5.296875 -0.601562 5.296875 0 L 1.28125 0 C 1.300781 -1.28125 1.320312 -2.582031 1.34375 -3.90625 C 1.363281 -5.226562 1.375 -6.5 1.375 -7.71875 C 1.375 -8.9375 1.363281 -10.207031 1.34375 -11.53125 C 1.320312 -12.851562 1.300781 -14.164062 1.28125 -15.46875 L 5.296875 -15.46875 C 5.273438 -14.5625 5.257812 -13.5625 5.25 -12.46875 C 5.25 -11.382812 5.25 -10.320312 5.25 -9.28125 L 10.96875 -9.28125 C 10.96875 -10.195312 10.957031 -11.195312 10.9375 -12.28125 C 10.925781 -13.375 10.90625 -14.4375 10.875 -15.46875 Z M 14.875 -15.46875 "/></g></g></g><g fill="#12229d" fill-opacity="1"><g transform="translate(222.264556, 277.140958)"><g><path d="M 15.203125 0 L 11.0625 0 C 10.957031 -0.582031 10.832031 -1.15625 10.6875 -1.71875 C 10.550781 -2.289062 10.40625 -2.863281 10.25 -3.4375 L 7.5625 -3.4375 C 7.101562 -3.4375 6.660156 -3.4375 6.234375 -3.4375 C 5.804688 -3.4375 5.390625 -3.4375 4.984375 -3.4375 C 4.628906 -2.070312 4.316406 -0.925781 4.046875 0 L -0.015625 0 C 0.273438 -1.09375 0.609375 -2.3125 0.984375 -3.65625 C 1.367188 -5 1.757812 -6.375 2.15625 -7.78125 C 2.550781 -9.195312 2.925781 -10.566406 3.28125 -11.890625 C 3.644531 -13.210938 3.957031 -14.40625 4.21875 -15.46875 L 10.921875 -15.46875 C 11.191406 -14.425781 11.5 -13.25 11.84375 -11.9375 C 12.195312 -10.632812 12.570312 -9.285156 12.96875 -7.890625 C 13.375 -6.492188 13.765625 -5.117188 14.140625 -3.765625 C 14.523438 -2.421875 14.878906 -1.164062 15.203125 0 Z M 5.546875 -5.640625 L 9.640625 -5.640625 C 9.273438 -6.878906 8.914062 -8.128906 8.5625 -9.390625 C 8.207031 -10.648438 7.894531 -11.925781 7.625 -13.21875 L 7.453125 -13.21875 C 7.128906 -11.945312 6.804688 -10.660156 6.484375 -9.359375 C 6.160156 -8.066406 5.847656 -6.828125 5.546875 -5.640625 Z M 5.546875 -5.640625 "/></g></g></g><g fill="#12229d" fill-opacity="1"><g transform="translate(236.733802, 277.140958)"><g><path d="M 1.28125 0 C 1.300781 -1.28125 1.316406 -2.585938 1.328125 -3.921875 C 1.347656 -5.253906 1.359375 -6.519531 1.359375 -7.71875 C 1.359375 -8.9375 1.347656 -10.207031 1.328125 -11.53125 C 1.316406 -12.851562 1.300781 -14.164062 1.28125 -15.46875 L 5.328125 -15.46875 C 5.285156 -12.894531 5.265625 -10.46875 5.265625 -8.1875 C 5.265625 -7.320312 5.269531 -6.429688 5.28125 -5.515625 C 5.289062 -4.609375 5.300781 -3.796875 5.3125 -3.078125 C 6.351562 -3.078125 7.441406 -3.078125 8.578125 -3.078125 C 9.710938 -3.085938 10.769531 -3.101562 11.75 -3.125 L 11.46875 0 Z M 1.28125 0 "/></g></g></g><g fill="#12229d" fill-opacity="1"><g transform="translate(247.737629, 277.140958)"><g><path d="M 1.28125 0 C 1.300781 -1.28125 1.316406 -2.585938 1.328125 -3.921875 C 1.347656 -5.253906 1.359375 -6.519531 1.359375 -7.71875 C 1.359375 -8.9375 1.347656 -10.207031 1.328125 -11.53125 C 1.316406 -12.851562 1.300781 -14.164062 1.28125 -15.46875 L 5.328125 -15.46875 C 5.285156 -12.894531 5.265625 -10.46875 5.265625 -8.1875 C 5.265625 -7.320312 5.269531 -6.429688 5.28125 -5.515625 C 5.289062 -4.609375 5.300781 -3.796875 5.3125 -3.078125 C 6.351562 -3.078125 7.441406 -3.078125 8.578125 -3.078125 C 9.710938 -3.085938 10.769531 -3.101562 11.75 -3.125 L 11.46875 0 Z M 1.28125 0 "/></g></g></g><g fill="#12229d" fill-opacity="1"><g transform="translate(258.741457, 277.140958)"><g><path d="M 1.28125 0 C 1.289062 -0.414062 1.300781 -0.941406 1.3125 -1.578125 C 1.332031 -2.210938 1.347656 -2.894531 1.359375 -3.625 C 1.367188 -4.351562 1.375 -5.078125 1.375 -5.796875 C 1.382812 -6.515625 1.390625 -7.15625 1.390625 -7.71875 C 1.390625 -8.332031 1.382812 -8.988281 1.375 -9.6875 C 1.375 -10.382812 1.367188 -11.09375 1.359375 -11.8125 C 1.347656 -12.53125 1.332031 -13.207031 1.3125 -13.84375 C 1.300781 -14.476562 1.289062 -15.019531 1.28125 -15.46875 L 13.125 -15.46875 L 13.125 -12.5625 L 5.25 -12.5625 L 5.25 -8.9375 L 12.578125 -9.0625 L 12.578125 -6.46875 L 5.25 -6.59375 L 5.25 -2.890625 L 13.234375 -2.890625 L 13.234375 0 Z M 1.28125 0 "/></g></g></g><g fill="#12229d" fill-opacity="1"><g transform="translate(271.974499, 277.140958)"><g><path d="M 1.296875 0 C 1.304688 -0.78125 1.316406 -1.613281 1.328125 -2.5 C 1.335938 -3.382812 1.34375 -4.367188 1.34375 -5.453125 C 1.351562 -6.546875 1.359375 -7.789062 1.359375 -9.1875 C 1.359375 -10.15625 1.347656 -11.1875 1.328125 -12.28125 C 1.316406 -13.375 1.300781 -14.4375 1.28125 -15.46875 L 6.6875 -15.46875 L 11.125 -6.328125 C 11.3125 -5.835938 11.503906 -5.351562 11.703125 -4.875 C 11.910156 -4.394531 12.0625 -3.984375 12.15625 -3.640625 L 12.4375 -3.640625 C 12.382812 -4.066406 12.335938 -4.503906 12.296875 -4.953125 C 12.253906 -5.410156 12.234375 -5.851562 12.234375 -6.28125 C 12.234375 -7 12.226562 -7.78125 12.21875 -8.625 C 12.21875 -9.46875 12.207031 -10.3125 12.1875 -11.15625 C 12.175781 -12 12.164062 -12.796875 12.15625 -13.546875 C 12.15625 -14.296875 12.148438 -14.9375 12.140625 -15.46875 L 15.8125 -15.46875 C 15.769531 -12.9375 15.75 -10.414062 15.75 -7.90625 C 15.75 -5.425781 15.769531 -2.789062 15.8125 0 L 10.421875 0 L 6.328125 -8.109375 C 5.984375 -8.929688 5.707031 -9.640625 5.5 -10.234375 C 5.289062 -10.835938 5.113281 -11.390625 4.96875 -11.890625 L 4.6875 -11.890625 C 4.695312 -11.773438 4.710938 -11.578125 4.734375 -11.296875 C 4.753906 -11.015625 4.773438 -10.710938 4.796875 -10.390625 C 4.828125 -10.066406 4.847656 -9.765625 4.859375 -9.484375 C 4.878906 -9.210938 4.890625 -9.023438 4.890625 -8.921875 C 4.890625 -7.253906 4.890625 -5.679688 4.890625 -4.203125 C 4.898438 -2.734375 4.910156 -1.332031 4.921875 0 Z M 1.296875 0 "/></g></g></g><g fill="#12229d" fill-opacity="1"><g transform="translate(288.348694, 277.140958)"><g><path d="M 6.9375 0.265625 C 4.90625 0.265625 3.351562 -0.421875 2.28125 -1.796875 C 1.21875 -3.179688 0.6875 -5.160156 0.6875 -7.734375 C 0.6875 -10.429688 1.257812 -12.429688 2.40625 -13.734375 C 3.5625 -15.046875 5.359375 -15.703125 7.796875 -15.703125 C 9.503906 -15.703125 10.835938 -15.472656 11.796875 -15.015625 C 12.765625 -14.554688 13.472656 -13.851562 13.921875 -12.90625 C 14.367188 -11.957031 14.644531 -10.75 14.75 -9.28125 L 10.828125 -8.828125 C 10.765625 -9.617188 10.625 -10.3125 10.40625 -10.90625 C 10.1875 -11.507812 9.859375 -11.984375 9.421875 -12.328125 C 8.992188 -12.671875 8.425781 -12.84375 7.71875 -12.84375 C 7.332031 -12.84375 6.960938 -12.789062 6.609375 -12.6875 C 6.265625 -12.582031 5.941406 -12.429688 5.640625 -12.234375 C 5.304688 -11.722656 5.046875 -11.128906 4.859375 -10.453125 C 4.679688 -9.773438 4.59375 -8.921875 4.59375 -7.890625 C 4.59375 -6.867188 4.726562 -5.957031 5 -5.15625 C 5.269531 -4.351562 5.660156 -3.710938 6.171875 -3.234375 C 6.691406 -2.765625 7.316406 -2.53125 8.046875 -2.53125 C 8.460938 -2.53125 8.835938 -2.566406 9.171875 -2.640625 C 9.515625 -2.710938 9.820312 -2.816406 10.09375 -2.953125 C 10.40625 -3.128906 10.6875 -3.382812 10.9375 -3.71875 C 11.1875 -4.0625 11.359375 -4.320312 11.453125 -4.5 C 11.453125 -4.78125 11.40625 -5.050781 11.3125 -5.3125 C 11.21875 -5.582031 11.054688 -5.71875 10.828125 -5.71875 L 8.59375 -5.71875 L 8.59375 -7.15625 L 15.203125 -7.15625 C 15.203125 -6.414062 15.203125 -5.6875 15.203125 -4.96875 C 15.203125 -4.25 15.207031 -3.488281 15.21875 -2.6875 C 15.226562 -1.894531 15.234375 -1 15.234375 0 L 11.40625 0 L 11.484375 -3 L 11.25 -3 C 11.039062 -1.96875 10.566406 -1.164062 9.828125 -0.59375 C 9.097656 -0.0195312 8.132812 0.265625 6.9375 0.265625 Z M 6.9375 0.265625 "/></g></g></g><g fill="#12229d" fill-opacity="1"><g transform="translate(303.527228, 277.140958)"><g><path d="M 1.28125 0 C 1.289062 -0.414062 1.300781 -0.941406 1.3125 -1.578125 C 1.332031 -2.210938 1.347656 -2.894531 1.359375 -3.625 C 1.367188 -4.351562 1.375 -5.078125 1.375 -5.796875 C 1.382812 -6.515625 1.390625 -7.15625 1.390625 -7.71875 C 1.390625 -8.332031 1.382812 -8.988281 1.375 -9.6875 C 1.375 -10.382812 1.367188 -11.09375 1.359375 -11.8125 C 1.347656 -12.53125 1.332031 -13.207031 1.3125 -13.84375 C 1.300781 -14.476562 1.289062 -15.019531 1.28125 -15.46875 L 13.125 -15.46875 L 13.125 -12.5625 L 5.25 -12.5625 L 5.25 -8.9375 L 12.578125 -9.0625 L 12.578125 -6.46875 L 5.25 -6.59375 L 5.25 -2.890625 L 13.234375 -2.890625 L 13.234375 0 Z M 1.28125 0 "/></g></g></g><g fill="#12229d" fill-opacity="1"><g transform="translate(316.76027, 277.140958)"><g><path d="M 7.921875 0.25 C 5.691406 0.25 3.976562 -0.117188 2.78125 -0.859375 C 1.59375 -1.609375 0.894531 -2.898438 0.6875 -4.734375 L 4.984375 -5.09375 C 5.054688 -4.625 5.1875 -4.191406 5.375 -3.796875 C 5.570312 -3.398438 5.875 -3.078125 6.28125 -2.828125 C 6.695312 -2.578125 7.265625 -2.453125 7.984375 -2.453125 C 8.347656 -2.453125 8.722656 -2.484375 9.109375 -2.546875 C 9.503906 -2.617188 9.8125 -2.742188 10.03125 -2.921875 C 10.363281 -3.421875 10.53125 -3.976562 10.53125 -4.59375 C 10.53125 -5 10.445312 -5.332031 10.28125 -5.59375 C 10.125 -5.851562 9.835938 -6.054688 9.421875 -6.203125 C 9.003906 -6.347656 8.394531 -6.460938 7.59375 -6.546875 C 5.976562 -6.609375 4.691406 -6.835938 3.734375 -7.234375 C 2.785156 -7.628906 2.101562 -8.15625 1.6875 -8.8125 C 1.28125 -9.476562 1.078125 -10.242188 1.078125 -11.109375 C 1.078125 -12.148438 1.363281 -13.007812 1.9375 -13.6875 C 2.507812 -14.375 3.285156 -14.878906 4.265625 -15.203125 C 5.253906 -15.535156 6.378906 -15.703125 7.640625 -15.703125 C 9.816406 -15.703125 11.4375 -15.25 12.5 -14.34375 C 13.570312 -13.4375 14.222656 -12.082031 14.453125 -10.28125 L 10.5 -9.984375 C 10.40625 -10.578125 10.269531 -11.085938 10.09375 -11.515625 C 9.925781 -11.953125 9.644531 -12.289062 9.25 -12.53125 C 8.851562 -12.769531 8.265625 -12.890625 7.484375 -12.890625 C 7.191406 -12.890625 6.875 -12.863281 6.53125 -12.8125 C 6.1875 -12.769531 5.90625 -12.679688 5.6875 -12.546875 C 5.5 -12.285156 5.34375 -12.003906 5.21875 -11.703125 C 5.101562 -11.410156 5.046875 -11.082031 5.046875 -10.71875 C 5.046875 -10.0625 5.253906 -9.59375 5.671875 -9.3125 C 6.085938 -9.03125 6.832031 -8.816406 7.90625 -8.671875 C 9.257812 -8.609375 10.363281 -8.460938 11.21875 -8.234375 C 12.070312 -8.015625 12.734375 -7.722656 13.203125 -7.359375 C 13.671875 -7.003906 13.992188 -6.578125 14.171875 -6.078125 C 14.359375 -5.585938 14.453125 -5.035156 14.453125 -4.421875 C 14.453125 -3.421875 14.171875 -2.570312 13.609375 -1.875 C 13.046875 -1.175781 12.273438 -0.644531 11.296875 -0.28125 C 10.316406 0.0703125 9.191406 0.25 7.921875 0.25 Z M 7.921875 0.25 "/></g></g></g><g fill="#12229d" fill-opacity="1"><g transform="translate(331.249779, 277.140958)"><g><path d="M 4.828125 -3.1875 C 4.878906 -2.914062 4.914062 -2.644531 4.9375 -2.375 C 4.96875 -2.101562 4.984375 -1.835938 4.984375 -1.578125 C 4.984375 -0.898438 4.820312 -0.285156 4.5 0.265625 C 4.1875 0.816406 3.742188 1.269531 3.171875 1.625 C 2.597656 1.988281 1.925781 2.210938 1.15625 2.296875 L 1 2.09375 C 1.070312 2.007812 1.191406 1.867188 1.359375 1.671875 C 1.535156 1.484375 1.710938 1.28125 1.890625 1.0625 C 2.078125 0.851562 2.234375 0.65625 2.359375 0.46875 C 2.484375 0.289062 2.546875 0.164062 2.546875 0.09375 C 2.484375 0.0820312 2.359375 0.0625 2.171875 0.03125 C 1.992188 0 1.8125 -0.0507812 1.625 -0.125 C 1.445312 -0.207031 1.320312 -0.285156 1.25 -0.359375 L 0.9375 -3.1875 Z M 4.828125 -3.1875 "/></g></g></g><g fill="#12229d" fill-opacity="1"><g transform="translate(39.905121, 301.140919)"><g><path d="M 15.203125 0 L 11.0625 0 C 10.957031 -0.582031 10.832031 -1.15625 10.6875 -1.71875 C 10.550781 -2.289062 10.40625 -2.863281 10.25 -3.4375 L 7.5625 -3.4375 C 7.101562 -3.4375 6.660156 -3.4375 6.234375 -3.4375 C 5.804688 -3.4375 5.390625 -3.4375 4.984375 -3.4375 C 4.628906 -2.070312 4.316406 -0.925781 4.046875 0 L -0.015625 0 C 0.273438 -1.09375 0.609375 -2.3125 0.984375 -3.65625 C 1.367188 -5 1.757812 -6.375 2.15625 -7.78125 C 2.550781 -9.195312 2.925781 -10.566406 3.28125 -11.890625 C 3.644531 -13.210938 3.957031 -14.40625 4.21875 -15.46875 L 10.921875 -15.46875 C 11.191406 -14.425781 11.5 -13.25 11.84375 -11.9375 C 12.195312 -10.632812 12.570312 -9.285156 12.96875 -7.890625 C 13.375 -6.492188 13.765625 -5.117188 14.140625 -3.765625 C 14.523438 -2.421875 14.878906 -1.164062 15.203125 0 Z M 5.546875 -5.640625 L 9.640625 -5.640625 C 9.273438 -6.878906 8.914062 -8.128906 8.5625 -9.390625 C 8.207031 -10.648438 7.894531 -11.925781 7.625 -13.21875 L 7.453125 -13.21875 C 7.128906 -11.945312 6.804688 -10.660156 6.484375 -9.359375 C 6.160156 -8.066406 5.847656 -6.828125 5.546875 -5.640625 Z M 5.546875 -5.640625 "/></g></g></g><g fill="#12229d" fill-opacity="1"><g transform="translate(54.374363, 301.140919)"><g><path d="M 1.296875 0 C 1.304688 -0.78125 1.316406 -1.613281 1.328125 -2.5 C 1.335938 -3.382812 1.34375 -4.367188 1.34375 -5.453125 C 1.351562 -6.546875 1.359375 -7.789062 1.359375 -9.1875 C 1.359375 -10.15625 1.347656 -11.1875 1.328125 -12.28125 C 1.316406 -13.375 1.300781 -14.4375 1.28125 -15.46875 L 6.6875 -15.46875 L 11.125 -6.328125 C 11.3125 -5.835938 11.503906 -5.351562 11.703125 -4.875 C 11.910156 -4.394531 12.0625 -3.984375 12.15625 -3.640625 L 12.4375 -3.640625 C 12.382812 -4.066406 12.335938 -4.503906 12.296875 -4.953125 C 12.253906 -5.410156 12.234375 -5.851562 12.234375 -6.28125 C 12.234375 -7 12.226562 -7.78125 12.21875 -8.625 C 12.21875 -9.46875 12.207031 -10.3125 12.1875 -11.15625 C 12.175781 -12 12.164062 -12.796875 12.15625 -13.546875 C 12.15625 -14.296875 12.148438 -14.9375 12.140625 -15.46875 L 15.8125 -15.46875 C 15.769531 -12.9375 15.75 -10.414062 15.75 -7.90625 C 15.75 -5.425781 15.769531 -2.789062 15.8125 0 L 10.421875 0 L 6.328125 -8.109375 C 5.984375 -8.929688 5.707031 -9.640625 5.5 -10.234375 C 5.289062 -10.835938 5.113281 -11.390625 4.96875 -11.890625 L 4.6875 -11.890625 C 4.695312 -11.773438 4.710938 -11.578125 4.734375 -11.296875 C 4.753906 -11.015625 4.773438 -10.710938 4.796875 -10.390625 C 4.828125 -10.066406 4.847656 -9.765625 4.859375 -9.484375 C 4.878906 -9.210938 4.890625 -9.023438 4.890625 -8.921875 C 4.890625 -7.253906 4.890625 -5.679688 4.890625 -4.203125 C 4.898438 -2.734375 4.910156 -1.332031 4.921875 0 Z M 1.296875 0 "/></g></g></g><g fill="#12229d" fill-opacity="1"><g transform="translate(70.748554, 301.140919)"><g><path d="M 7.921875 0.25 C 5.691406 0.25 3.976562 -0.117188 2.78125 -0.859375 C 1.59375 -1.609375 0.894531 -2.898438 0.6875 -4.734375 L 4.984375 -5.09375 C 5.054688 -4.625 5.1875 -4.191406 5.375 -3.796875 C 5.570312 -3.398438 5.875 -3.078125 6.28125 -2.828125 C 6.695312 -2.578125 7.265625 -2.453125 7.984375 -2.453125 C 8.347656 -2.453125 8.722656 -2.484375 9.109375 -2.546875 C 9.503906 -2.617188 9.8125 -2.742188 10.03125 -2.921875 C 10.363281 -3.421875 10.53125 -3.976562 10.53125 -4.59375 C 10.53125 -5 10.445312 -5.332031 10.28125 -5.59375 C 10.125 -5.851562 9.835938 -6.054688 9.421875 -6.203125 C 9.003906 -6.347656 8.394531 -6.460938 7.59375 -6.546875 C 5.976562 -6.609375 4.691406 -6.835938 3.734375 -7.234375 C 2.785156 -7.628906 2.101562 -8.15625 1.6875 -8.8125 C 1.28125 -9.476562 1.078125 -10.242188 1.078125 -11.109375 C 1.078125 -12.148438 1.363281 -13.007812 1.9375 -13.6875 C 2.507812 -14.375 3.285156 -14.878906 4.265625 -15.203125 C 5.253906 -15.535156 6.378906 -15.703125 7.640625 -15.703125 C 9.816406 -15.703125 11.4375 -15.25 12.5 -14.34375 C 13.570312 -13.4375 14.222656 -12.082031 14.453125 -10.28125 L 10.5 -9.984375 C 10.40625 -10.578125 10.269531 -11.085938 10.09375 -11.515625 C 9.925781 -11.953125 9.644531 -12.289062 9.25 -12.53125 C 8.851562 -12.769531 8.265625 -12.890625 7.484375 -12.890625 C 7.191406 -12.890625 6.875 -12.863281 6.53125 -12.8125 C 6.1875 -12.769531 5.90625 -12.679688 5.6875 -12.546875 C 5.5 -12.285156 5.34375 -12.003906 5.21875 -11.703125 C 5.101562 -11.410156 5.046875 -11.082031 5.046875 -10.71875 C 5.046875 -10.0625 5.253906 -9.59375 5.671875 -9.3125 C 6.085938 -9.03125 6.832031 -8.816406 7.90625 -8.671875 C 9.257812 -8.609375 10.363281 -8.460938 11.21875 -8.234375 C 12.070312 -8.015625 12.734375 -7.722656 13.203125 -7.359375 C 13.671875 -7.003906 13.992188 -6.578125 14.171875 -6.078125 C 14.359375 -5.585938 14.453125 -5.035156 14.453125 -4.421875 C 14.453125 -3.421875 14.171875 -2.570312 13.609375 -1.875 C 13.046875 -1.175781 12.273438 -0.644531 11.296875 -0.28125 C 10.316406 0.0703125 9.191406 0.25 7.921875 0.25 Z M 7.921875 0.25 "/></g></g></g><g fill="#12229d" fill-opacity="1"><g transform="translate(85.23806, 301.140919)"><g><path d="M 2.796875 0 C 2.359375 -3.007812 1.882812 -5.820312 1.375 -8.4375 C 0.875 -11.050781 0.410156 -13.394531 -0.015625 -15.46875 L 4.046875 -15.46875 C 4.160156 -14.8125 4.289062 -14.066406 4.4375 -13.234375 C 4.582031 -12.398438 4.734375 -11.519531 4.890625 -10.59375 C 5.054688 -9.675781 5.21875 -8.769531 5.375 -7.875 C 5.53125 -6.976562 5.671875 -6.144531 5.796875 -5.375 C 5.929688 -4.601562 6.039062 -3.953125 6.125 -3.421875 L 6.421875 -3.421875 L 8.40625 -15.46875 L 12.609375 -15.46875 L 14.578125 -3.4375 L 14.859375 -3.4375 C 14.992188 -4.300781 15.144531 -5.257812 15.3125 -6.3125 C 15.488281 -7.375 15.675781 -8.453125 15.875 -9.546875 C 16.070312 -10.648438 16.265625 -11.710938 16.453125 -12.734375 C 16.640625 -13.753906 16.800781 -14.664062 16.9375 -15.46875 L 21.015625 -15.46875 C 20.835938 -14.707031 20.648438 -13.8125 20.453125 -12.78125 C 20.265625 -11.75 20.0625 -10.648438 19.84375 -9.484375 C 19.625 -8.316406 19.414062 -7.148438 19.21875 -5.984375 C 19.019531 -4.816406 18.832031 -3.71875 18.65625 -2.6875 C 18.488281 -1.65625 18.34375 -0.757812 18.21875 0 L 12.46875 0 L 10.90625 -9.609375 C 10.851562 -9.972656 10.804688 -10.28125 10.765625 -10.53125 C 10.722656 -10.78125 10.6875 -11.128906 10.65625 -11.578125 L 10.359375 -11.578125 C 10.316406 -11.234375 10.273438 -10.898438 10.234375 -10.578125 C 10.191406 -10.253906 10.144531 -9.921875 10.09375 -9.578125 L 8.546875 0 Z M 2.796875 0 "/></g></g></g><g fill="#12229d" fill-opacity="1"><g transform="translate(105.503237, 301.140919)"><g><path d="M 1.28125 0 C 1.289062 -0.414062 1.300781 -0.941406 1.3125 -1.578125 C 1.332031 -2.210938 1.347656 -2.894531 1.359375 -3.625 C 1.367188 -4.351562 1.375 -5.078125 1.375 -5.796875 C 1.382812 -6.515625 1.390625 -7.15625 1.390625 -7.71875 C 1.390625 -8.332031 1.382812 -8.988281 1.375 -9.6875 C 1.375 -10.382812 1.367188 -11.09375 1.359375 -11.8125 C 1.347656 -12.53125 1.332031 -13.207031 1.3125 -13.84375 C 1.300781 -14.476562 1.289062 -15.019531 1.28125 -15.46875 L 13.125 -15.46875 L 13.125 -12.5625 L 5.25 -12.5625 L 5.25 -8.9375 L 12.578125 -9.0625 L 12.578125 -6.46875 L 5.25 -6.59375 L 5.25 -2.890625 L 13.234375 -2.890625 L 13.234375 0 Z M 1.28125 0 "/></g></g></g><g fill="#12229d" fill-opacity="1"><g transform="translate(118.736278, 301.140919)"><g><path d="M 1.28125 0 C 1.289062 -0.78125 1.304688 -1.613281 1.328125 -2.5 C 1.347656 -3.394531 1.363281 -4.289062 1.375 -5.1875 C 1.382812 -6.09375 1.390625 -6.929688 1.390625 -7.703125 C 1.390625 -8.484375 1.382812 -9.328125 1.375 -10.234375 C 1.363281 -11.148438 1.347656 -12.0625 1.328125 -12.96875 C 1.304688 -13.875 1.289062 -14.707031 1.28125 -15.46875 L 8.375 -15.46875 C 9.757812 -15.46875 10.925781 -15.351562 11.875 -15.125 C 12.832031 -14.894531 13.554688 -14.476562 14.046875 -13.875 C 14.546875 -13.269531 14.796875 -12.40625 14.796875 -11.28125 C 14.796875 -9.769531 14.390625 -8.695312 13.578125 -8.0625 C 12.765625 -7.425781 11.554688 -7.097656 9.953125 -7.078125 L 9.953125 -6.78125 C 10.972656 -6.757812 11.800781 -6.632812 12.4375 -6.40625 C 13.070312 -6.175781 13.5625 -5.832031 13.90625 -5.375 C 14.25 -4.914062 14.484375 -4.328125 14.609375 -3.609375 C 14.640625 -3.421875 14.6875 -3.160156 14.75 -2.828125 C 14.820312 -2.503906 14.898438 -2.164062 14.984375 -1.8125 C 15.078125 -1.457031 15.164062 -1.113281 15.25 -0.78125 C 15.332031 -0.457031 15.410156 -0.195312 15.484375 0 L 11.203125 0 C 11.109375 -0.507812 10.992188 -1.078125 10.859375 -1.703125 C 10.722656 -2.335938 10.628906 -2.9375 10.578125 -3.5 C 10.453125 -4.03125 10.296875 -4.441406 10.109375 -4.734375 C 9.929688 -5.035156 9.675781 -5.25 9.34375 -5.375 C 9.019531 -5.507812 8.570312 -5.578125 8 -5.578125 L 5.265625 -5.578125 C 5.265625 -5.222656 5.265625 -4.785156 5.265625 -4.265625 C 5.265625 -3.753906 5.265625 -3.226562 5.265625 -2.6875 C 5.265625 -2.15625 5.265625 -1.648438 5.265625 -1.171875 C 5.265625 -0.691406 5.265625 -0.300781 5.265625 0 Z M 5.234375 -8.109375 L 7.71875 -8.109375 C 8.75 -8.109375 9.503906 -8.273438 9.984375 -8.609375 C 10.472656 -8.953125 10.71875 -9.546875 10.71875 -10.390625 C 10.71875 -11.328125 10.460938 -11.953125 9.953125 -12.265625 C 9.453125 -12.585938 8.707031 -12.75 7.71875 -12.75 L 5.234375 -12.75 Z M 5.234375 -8.109375 "/></g></g></g><g fill="#12229d" fill-opacity="1"><g transform="translate(134.218798, 301.140919)"><g/></g></g><g fill="#12229d" fill-opacity="1"><g transform="translate(138.372867, 301.140919)"><g><path d="M 2.796875 0 C 2.359375 -3.007812 1.882812 -5.820312 1.375 -8.4375 C 0.875 -11.050781 0.410156 -13.394531 -0.015625 -15.46875 L 4.046875 -15.46875 C 4.160156 -14.8125 4.289062 -14.066406 4.4375 -13.234375 C 4.582031 -12.398438 4.734375 -11.519531 4.890625 -10.59375 C 5.054688 -9.675781 5.21875 -8.769531 5.375 -7.875 C 5.53125 -6.976562 5.671875 -6.144531 5.796875 -5.375 C 5.929688 -4.601562 6.039062 -3.953125 6.125 -3.421875 L 6.421875 -3.421875 L 8.40625 -15.46875 L 12.609375 -15.46875 L 14.578125 -3.4375 L 14.859375 -3.4375 C 14.992188 -4.300781 15.144531 -5.257812 15.3125 -6.3125 C 15.488281 -7.375 15.675781 -8.453125 15.875 -9.546875 C 16.070312 -10.648438 16.265625 -11.710938 16.453125 -12.734375 C 16.640625 -13.753906 16.800781 -14.664062 16.9375 -15.46875 L 21.015625 -15.46875 C 20.835938 -14.707031 20.648438 -13.8125 20.453125 -12.78125 C 20.265625 -11.75 20.0625 -10.648438 19.84375 -9.484375 C 19.625 -8.316406 19.414062 -7.148438 19.21875 -5.984375 C 19.019531 -4.816406 18.832031 -3.71875 18.65625 -2.6875 C 18.488281 -1.65625 18.34375 -0.757812 18.21875 0 L 12.46875 0 L 10.90625 -9.609375 C 10.851562 -9.972656 10.804688 -10.28125 10.765625 -10.53125 C 10.722656 -10.78125 10.6875 -11.128906 10.65625 -11.578125 L 10.359375 -11.578125 C 10.316406 -11.234375 10.273438 -10.898438 10.234375 -10.578125 C 10.191406 -10.253906 10.144531 -9.921875 10.09375 -9.578125 L 8.546875 0 Z M 2.796875 0 "/></g></g></g><g fill="#12229d" fill-opacity="1"><g transform="translate(158.638039, 301.140919)"><g><path d="M 1.28125 0 C 1.320312 -1.28125 1.34375 -2.566406 1.34375 -3.859375 C 1.351562 -5.148438 1.359375 -6.4375 1.359375 -7.71875 C 1.359375 -9.019531 1.351562 -10.3125 1.34375 -11.59375 C 1.34375 -12.875 1.320312 -14.164062 1.28125 -15.46875 L 5.265625 -15.46875 C 5.222656 -14.175781 5.195312 -12.882812 5.1875 -11.59375 C 5.1875 -10.3125 5.1875 -9.023438 5.1875 -7.734375 C 5.1875 -6.441406 5.1875 -5.148438 5.1875 -3.859375 C 5.195312 -2.566406 5.222656 -1.28125 5.265625 0 Z M 1.28125 0 "/></g></g></g><g fill="#12229d" fill-opacity="1"><g transform="translate(164.474143, 301.140919)"><g><path d="M 4.171875 0 C 4.203125 -1.257812 4.222656 -2.535156 4.234375 -3.828125 C 4.242188 -5.128906 4.25 -6.375 4.25 -7.5625 C 4.25 -8.394531 4.242188 -9.253906 4.234375 -10.140625 C 4.234375 -11.023438 4.226562 -11.804688 4.21875 -12.484375 C 3.59375 -12.484375 2.894531 -12.476562 2.125 -12.46875 C 1.351562 -12.46875 0.640625 -12.453125 -0.015625 -12.421875 L -0.015625 -15.46875 L 12.46875 -15.46875 L 12.46875 -12.421875 C 11.84375 -12.453125 11.132812 -12.46875 10.34375 -12.46875 C 9.550781 -12.476562 8.832031 -12.484375 8.1875 -12.484375 C 8.1875 -12.210938 8.179688 -11.835938 8.171875 -11.359375 C 8.171875 -10.878906 8.164062 -10.363281 8.15625 -9.8125 C 8.144531 -9.269531 8.140625 -8.757812 8.140625 -8.28125 C 8.140625 -7.8125 8.140625 -7.457031 8.140625 -7.21875 C 8.140625 -4.800781 8.160156 -2.394531 8.203125 0 Z M 4.171875 0 "/></g></g></g><g fill="#12229d" fill-opacity="1"><g transform="translate(176.187267, 301.140919)"><g><path d="M 14.875 -15.46875 C 14.863281 -14.882812 14.847656 -14.171875 14.828125 -13.328125 C 14.816406 -12.492188 14.8125 -11.59375 14.8125 -10.625 C 14.8125 -9.664062 14.8125 -8.695312 14.8125 -7.71875 C 14.8125 -6.789062 14.8125 -5.835938 14.8125 -4.859375 C 14.8125 -3.890625 14.816406 -2.984375 14.828125 -2.140625 C 14.847656 -1.296875 14.863281 -0.582031 14.875 0 L 10.875 0 C 10.90625 -0.6875 10.921875 -1.4375 10.921875 -2.25 C 10.929688 -3.070312 10.941406 -3.878906 10.953125 -4.671875 C 10.960938 -5.472656 10.96875 -6.171875 10.96875 -6.765625 L 5.25 -6.765625 C 5.25 -6.085938 5.25 -5.335938 5.25 -4.515625 C 5.257812 -3.691406 5.269531 -2.882812 5.28125 -2.09375 C 5.289062 -1.300781 5.296875 -0.601562 5.296875 0 L 1.28125 0 C 1.300781 -1.28125 1.320312 -2.582031 1.34375 -3.90625 C 1.363281 -5.226562 1.375 -6.5 1.375 -7.71875 C 1.375 -8.9375 1.363281 -10.207031 1.34375 -11.53125 C 1.320312 -12.851562 1.300781 -14.164062 1.28125 -15.46875 L 5.296875 -15.46875 C 5.273438 -14.5625 5.257812 -13.5625 5.25 -12.46875 C 5.25 -11.382812 5.25 -10.320312 5.25 -9.28125 L 10.96875 -9.28125 C 10.96875 -10.195312 10.957031 -11.195312 10.9375 -12.28125 C 10.925781 -13.375 10.90625 -14.4375 10.875 -15.46875 Z M 14.875 -15.46875 "/></g></g></g><g fill="#12229d" fill-opacity="1"><g transform="translate(191.629259, 301.140919)"><g/></g></g><g fill="#12229d" fill-opacity="1"><g transform="translate(195.783335, 301.140919)"><g><path d="M 7.921875 0.265625 C 5.421875 0.265625 3.585938 -0.390625 2.421875 -1.703125 C 1.265625 -3.023438 0.6875 -5.035156 0.6875 -7.734375 C 0.6875 -10.429688 1.269531 -12.429688 2.4375 -13.734375 C 3.601562 -15.046875 5.429688 -15.703125 7.921875 -15.703125 C 9.515625 -15.703125 10.804688 -15.453125 11.796875 -14.953125 C 12.785156 -14.460938 13.523438 -13.75 14.015625 -12.8125 C 14.503906 -11.875 14.804688 -10.742188 14.921875 -9.421875 L 10.984375 -9 C 10.703125 -11.5625 9.566406 -12.84375 7.578125 -12.84375 C 7.222656 -12.84375 6.867188 -12.789062 6.515625 -12.6875 C 6.171875 -12.582031 5.867188 -12.429688 5.609375 -12.234375 C 4.960938 -11.066406 4.640625 -9.550781 4.640625 -7.6875 C 4.640625 -6.113281 4.929688 -4.867188 5.515625 -3.953125 C 6.109375 -3.035156 7 -2.578125 8.1875 -2.578125 C 8.5 -2.578125 8.816406 -2.613281 9.140625 -2.6875 C 9.472656 -2.757812 9.773438 -2.878906 10.046875 -3.046875 C 10.273438 -3.390625 10.453125 -3.757812 10.578125 -4.15625 C 10.710938 -4.5625 10.820312 -5.015625 10.90625 -5.515625 L 14.8125 -5.515625 C 14.632812 -3.660156 13.992188 -2.234375 12.890625 -1.234375 C 11.796875 -0.234375 10.140625 0.265625 7.921875 0.265625 Z M 7.921875 0.265625 "/></g></g></g><g fill="#12229d" fill-opacity="1"><g transform="translate(210.678148, 301.140919)"><g><path d="M 7.96875 0.265625 C 5.445312 0.265625 3.601562 -0.382812 2.4375 -1.6875 C 1.269531 -2.988281 0.6875 -5.003906 0.6875 -7.734375 C 0.6875 -10.441406 1.273438 -12.445312 2.453125 -13.75 C 3.640625 -15.050781 5.4375 -15.703125 7.84375 -15.703125 C 10.332031 -15.703125 12.171875 -15.046875 13.359375 -13.734375 C 14.546875 -12.429688 15.140625 -10.40625 15.140625 -7.65625 C 15.140625 -4.96875 14.535156 -2.972656 13.328125 -1.671875 C 12.128906 -0.378906 10.34375 0.265625 7.96875 0.265625 Z M 8.03125 -2.59375 C 8.375 -2.59375 8.734375 -2.625 9.109375 -2.6875 C 9.484375 -2.757812 9.804688 -2.882812 10.078125 -3.0625 C 10.441406 -3.613281 10.71875 -4.269531 10.90625 -5.03125 C 11.101562 -5.800781 11.203125 -6.675781 11.203125 -7.65625 C 11.203125 -8.6875 11.070312 -9.585938 10.8125 -10.359375 C 10.5625 -11.140625 10.1875 -11.742188 9.6875 -12.171875 C 9.1875 -12.609375 8.570312 -12.828125 7.84375 -12.828125 C 7.46875 -12.828125 7.078125 -12.78125 6.671875 -12.6875 C 6.273438 -12.59375 5.921875 -12.441406 5.609375 -12.234375 C 5.296875 -11.710938 5.054688 -11.097656 4.890625 -10.390625 C 4.722656 -9.691406 4.640625 -8.835938 4.640625 -7.828125 C 4.640625 -6.253906 4.929688 -4.988281 5.515625 -4.03125 C 6.109375 -3.070312 6.945312 -2.59375 8.03125 -2.59375 Z M 8.03125 -2.59375 "/></g></g></g><g fill="#12229d" fill-opacity="1"><g transform="translate(225.816155, 301.140919)"><g><path d="M 1.296875 0 C 1.304688 -0.78125 1.316406 -1.613281 1.328125 -2.5 C 1.335938 -3.382812 1.34375 -4.367188 1.34375 -5.453125 C 1.351562 -6.546875 1.359375 -7.789062 1.359375 -9.1875 C 1.359375 -10.15625 1.347656 -11.1875 1.328125 -12.28125 C 1.316406 -13.375 1.300781 -14.4375 1.28125 -15.46875 L 6.6875 -15.46875 L 11.125 -6.328125 C 11.3125 -5.835938 11.503906 -5.351562 11.703125 -4.875 C 11.910156 -4.394531 12.0625 -3.984375 12.15625 -3.640625 L 12.4375 -3.640625 C 12.382812 -4.066406 12.335938 -4.503906 12.296875 -4.953125 C 12.253906 -5.410156 12.234375 -5.851562 12.234375 -6.28125 C 12.234375 -7 12.226562 -7.78125 12.21875 -8.625 C 12.21875 -9.46875 12.207031 -10.3125 12.1875 -11.15625 C 12.175781 -12 12.164062 -12.796875 12.15625 -13.546875 C 12.15625 -14.296875 12.148438 -14.9375 12.140625 -15.46875 L 15.8125 -15.46875 C 15.769531 -12.9375 15.75 -10.414062 15.75 -7.90625 C 15.75 -5.425781 15.769531 -2.789062 15.8125 0 L 10.421875 0 L 6.328125 -8.109375 C 5.984375 -8.929688 5.707031 -9.640625 5.5 -10.234375 C 5.289062 -10.835938 5.113281 -11.390625 4.96875 -11.890625 L 4.6875 -11.890625 C 4.695312 -11.773438 4.710938 -11.578125 4.734375 -11.296875 C 4.753906 -11.015625 4.773438 -10.710938 4.796875 -10.390625 C 4.828125 -10.066406 4.847656 -9.765625 4.859375 -9.484375 C 4.878906 -9.210938 4.890625 -9.023438 4.890625 -8.921875 C 4.890625 -7.253906 4.890625 -5.679688 4.890625 -4.203125 C 4.898438 -2.734375 4.910156 -1.332031 4.921875 0 Z M 1.296875 0 "/></g></g></g><g fill="#12229d" fill-opacity="1"><g transform="translate(242.190351, 301.140919)"><g><path d="M 1.28125 0 C 1.289062 -0.414062 1.300781 -0.929688 1.3125 -1.546875 C 1.332031 -2.160156 1.347656 -2.820312 1.359375 -3.53125 C 1.367188 -4.238281 1.375 -4.953125 1.375 -5.671875 C 1.382812 -6.398438 1.390625 -7.082031 1.390625 -7.71875 C 1.390625 -8.25 1.382812 -8.859375 1.375 -9.546875 C 1.363281 -10.242188 1.347656 -10.960938 1.328125 -11.703125 C 1.316406 -12.441406 1.304688 -13.140625 1.296875 -13.796875 C 1.285156 -14.460938 1.28125 -15.019531 1.28125 -15.46875 L 13.015625 -15.46875 L 13.015625 -12.5625 L 5.25 -12.5625 L 5.25 -8.59375 L 12.46875 -8.71875 L 12.46875 -5.984375 L 5.25 -6.09375 C 5.25 -5.539062 5.25 -4.894531 5.25 -4.15625 C 5.257812 -3.425781 5.269531 -2.691406 5.28125 -1.953125 C 5.289062 -1.210938 5.296875 -0.5625 5.296875 0 Z M 1.28125 0 "/></g></g></g><g fill="#12229d" fill-opacity="1"><g transform="translate(255.200477, 301.140919)"><g><path d="M 1.28125 0 C 1.320312 -1.28125 1.34375 -2.566406 1.34375 -3.859375 C 1.351562 -5.148438 1.359375 -6.4375 1.359375 -7.71875 C 1.359375 -9.019531 1.351562 -10.3125 1.34375 -11.59375 C 1.34375 -12.875 1.320312 -14.164062 1.28125 -15.46875 L 5.265625 -15.46875 C 5.222656 -14.175781 5.195312 -12.882812 5.1875 -11.59375 C 5.1875 -10.3125 5.1875 -9.023438 5.1875 -7.734375 C 5.1875 -6.441406 5.1875 -5.148438 5.1875 -3.859375 C 5.195312 -2.566406 5.222656 -1.28125 5.265625 0 Z M 1.28125 0 "/></g></g></g><g fill="#12229d" fill-opacity="1"><g transform="translate(261.036588, 301.140919)"><g><path d="M 1.28125 0 C 1.300781 -0.769531 1.316406 -1.601562 1.328125 -2.5 C 1.347656 -3.394531 1.359375 -4.296875 1.359375 -5.203125 C 1.367188 -6.109375 1.375 -6.945312 1.375 -7.71875 C 1.375 -8.5 1.367188 -9.351562 1.359375 -10.28125 C 1.359375 -11.21875 1.347656 -12.140625 1.328125 -13.046875 C 1.316406 -13.953125 1.300781 -14.757812 1.28125 -15.46875 L 7.21875 -15.46875 C 8.96875 -15.46875 10.414062 -15.207031 11.5625 -14.6875 C 12.71875 -14.164062 13.578125 -13.335938 14.140625 -12.203125 C 14.710938 -11.078125 15 -9.597656 15 -7.765625 C 15 -5.191406 14.441406 -3.257812 13.328125 -1.96875 C 12.222656 -0.6875 10.460938 -0.03125 8.046875 0 Z M 5.25 -2.703125 L 7.375 -2.703125 C 8.695312 -2.703125 9.632812 -3.09375 10.1875 -3.875 C 10.75 -4.664062 11.03125 -5.9375 11.03125 -7.6875 C 11.03125 -9.488281 10.75 -10.785156 10.1875 -11.578125 C 9.632812 -12.367188 8.65625 -12.765625 7.25 -12.765625 L 5.25 -12.765625 Z M 5.25 -2.703125 "/></g></g></g><g fill="#12229d" fill-opacity="1"><g transform="translate(276.032734, 301.140919)"><g><path d="M 1.28125 0 C 1.289062 -0.414062 1.300781 -0.941406 1.3125 -1.578125 C 1.332031 -2.210938 1.347656 -2.894531 1.359375 -3.625 C 1.367188 -4.351562 1.375 -5.078125 1.375 -5.796875 C 1.382812 -6.515625 1.390625 -7.15625 1.390625 -7.71875 C 1.390625 -8.332031 1.382812 -8.988281 1.375 -9.6875 C 1.375 -10.382812 1.367188 -11.09375 1.359375 -11.8125 C 1.347656 -12.53125 1.332031 -13.207031 1.3125 -13.84375 C 1.300781 -14.476562 1.289062 -15.019531 1.28125 -15.46875 L 13.125 -15.46875 L 13.125 -12.5625 L 5.25 -12.5625 L 5.25 -8.9375 L 12.578125 -9.0625 L 12.578125 -6.46875 L 5.25 -6.59375 L 5.25 -2.890625 L 13.234375 -2.890625 L 13.234375 0 Z M 1.28125 0 "/></g></g></g><g fill="#12229d" fill-opacity="1"><g transform="translate(289.265776, 301.140919)"><g><path d="M 1.296875 0 C 1.304688 -0.78125 1.316406 -1.613281 1.328125 -2.5 C 1.335938 -3.382812 1.34375 -4.367188 1.34375 -5.453125 C 1.351562 -6.546875 1.359375 -7.789062 1.359375 -9.1875 C 1.359375 -10.15625 1.347656 -11.1875 1.328125 -12.28125 C 1.316406 -13.375 1.300781 -14.4375 1.28125 -15.46875 L 6.6875 -15.46875 L 11.125 -6.328125 C 11.3125 -5.835938 11.503906 -5.351562 11.703125 -4.875 C 11.910156 -4.394531 12.0625 -3.984375 12.15625 -3.640625 L 12.4375 -3.640625 C 12.382812 -4.066406 12.335938 -4.503906 12.296875 -4.953125 C 12.253906 -5.410156 12.234375 -5.851562 12.234375 -6.28125 C 12.234375 -7 12.226562 -7.78125 12.21875 -8.625 C 12.21875 -9.46875 12.207031 -10.3125 12.1875 -11.15625 C 12.175781 -12 12.164062 -12.796875 12.15625 -13.546875 C 12.15625 -14.296875 12.148438 -14.9375 12.140625 -15.46875 L 15.8125 -15.46875 C 15.769531 -12.9375 15.75 -10.414062 15.75 -7.90625 C 15.75 -5.425781 15.769531 -2.789062 15.8125 0 L 10.421875 0 L 6.328125 -8.109375 C 5.984375 -8.929688 5.707031 -9.640625 5.5 -10.234375 C 5.289062 -10.835938 5.113281 -11.390625 4.96875 -11.890625 L 4.6875 -11.890625 C 4.695312 -11.773438 4.710938 -11.578125 4.734375 -11.296875 C 4.753906 -11.015625 4.773438 -10.710938 4.796875 -10.390625 C 4.828125 -10.066406 4.847656 -9.765625 4.859375 -9.484375 C 4.878906 -9.210938 4.890625 -9.023438 4.890625 -8.921875 C 4.890625 -7.253906 4.890625 -5.679688 4.890625 -4.203125 C 4.898438 -2.734375 4.910156 -1.332031 4.921875 0 Z M 1.296875 0 "/></g></g></g><g fill="#12229d" fill-opacity="1"><g transform="translate(305.639956, 301.140919)"><g><path d="M 7.921875 0.265625 C 5.421875 0.265625 3.585938 -0.390625 2.421875 -1.703125 C 1.265625 -3.023438 0.6875 -5.035156 0.6875 -7.734375 C 0.6875 -10.429688 1.269531 -12.429688 2.4375 -13.734375 C 3.601562 -15.046875 5.429688 -15.703125 7.921875 -15.703125 C 9.515625 -15.703125 10.804688 -15.453125 11.796875 -14.953125 C 12.785156 -14.460938 13.523438 -13.75 14.015625 -12.8125 C 14.503906 -11.875 14.804688 -10.742188 14.921875 -9.421875 L 10.984375 -9 C 10.703125 -11.5625 9.566406 -12.84375 7.578125 -12.84375 C 7.222656 -12.84375 6.867188 -12.789062 6.515625 -12.6875 C 6.171875 -12.582031 5.867188 -12.429688 5.609375 -12.234375 C 4.960938 -11.066406 4.640625 -9.550781 4.640625 -7.6875 C 4.640625 -6.113281 4.929688 -4.867188 5.515625 -3.953125 C 6.109375 -3.035156 7 -2.578125 8.1875 -2.578125 C 8.5 -2.578125 8.816406 -2.613281 9.140625 -2.6875 C 9.472656 -2.757812 9.773438 -2.878906 10.046875 -3.046875 C 10.273438 -3.390625 10.453125 -3.757812 10.578125 -4.15625 C 10.710938 -4.5625 10.820312 -5.015625 10.90625 -5.515625 L 14.8125 -5.515625 C 14.632812 -3.660156 13.992188 -2.234375 12.890625 -1.234375 C 11.796875 -0.234375 10.140625 0.265625 7.921875 0.265625 Z M 7.921875 0.265625 "/></g></g></g><g fill="#12229d" fill-opacity="1"><g transform="translate(320.534769, 301.140919)"><g><path d="M 1.28125 0 C 1.289062 -0.414062 1.300781 -0.941406 1.3125 -1.578125 C 1.332031 -2.210938 1.347656 -2.894531 1.359375 -3.625 C 1.367188 -4.351562 1.375 -5.078125 1.375 -5.796875 C 1.382812 -6.515625 1.390625 -7.15625 1.390625 -7.71875 C 1.390625 -8.332031 1.382812 -8.988281 1.375 -9.6875 C 1.375 -10.382812 1.367188 -11.09375 1.359375 -11.8125 C 1.347656 -12.53125 1.332031 -13.207031 1.3125 -13.84375 C 1.300781 -14.476562 1.289062 -15.019531 1.28125 -15.46875 L 13.125 -15.46875 L 13.125 -12.5625 L 5.25 -12.5625 L 5.25 -8.9375 L 12.578125 -9.0625 L 12.578125 -6.46875 L 5.25 -6.59375 L 5.25 -2.890625 L 13.234375 -2.890625 L 13.234375 0 Z M 1.28125 0 "/></g></g></g><g fill="#12229d" fill-opacity="1"><g transform="translate(333.767811, 301.140919)"><g><path d="M 1.625 -3.9375 C 1.550781 -5.875 1.460938 -7.796875 1.359375 -9.703125 C 1.265625 -11.609375 1.148438 -13.53125 1.015625 -15.46875 L 5.484375 -15.46875 C 5.390625 -14.269531 5.304688 -13.007812 5.234375 -11.6875 C 5.160156 -10.363281 5.09375 -9.039062 5.03125 -7.71875 C 4.96875 -6.394531 4.921875 -5.132812 4.890625 -3.9375 C 4.660156 -3.976562 4.421875 -4.015625 4.171875 -4.046875 C 3.921875 -4.078125 3.601562 -4.09375 3.21875 -4.09375 C 2.882812 -4.09375 2.585938 -4.078125 2.328125 -4.046875 C 2.078125 -4.015625 1.84375 -3.976562 1.625 -3.9375 Z M 3.265625 0.296875 C 2.484375 0.296875 1.925781 0.164062 1.59375 -0.09375 C 1.269531 -0.351562 1.109375 -0.738281 1.109375 -1.25 C 1.109375 -1.769531 1.269531 -2.15625 1.59375 -2.40625 C 1.925781 -2.65625 2.484375 -2.78125 3.265625 -2.78125 C 4.035156 -2.78125 4.582031 -2.65625 4.90625 -2.40625 C 5.238281 -2.15625 5.40625 -1.769531 5.40625 -1.25 C 5.40625 -0.738281 5.238281 -0.351562 4.90625 -0.09375 C 4.582031 0.164062 4.035156 0.296875 3.265625 0.296875 Z M 3.265625 0.296875 "/></g></g></g></svg>